<svg height="1200" width="1200" xmlns="http://www.w3.org/2000/svg" xmlns:svg="http://www.w3.org/2000/svg" xmlns:xlink="http://www.w3.org/1999/xlink">
    <style type="text/css"><![CDATA[
	polyline { fill: none; stroke: black; stroke-width: 1 }
	path { fill: none; stroke: black; stroke-width: 1 }
	line { fill: none; stroke: black; stroke-width: 1 }
	circle.node_circle  {}
	circle.taxon_circle {}
	text.node_text      {}
	text.taxon_text     {}
	line.scale_bar      {}
	text.scale_label    {}
	line.scale_major    {}
	line.scale_minor    {}
]]></style>
    <polyline points="431,65 431,80 511,80" style="stroke: rgb(0,0,255); stroke-width: 2" />
    <text class="taxon_text" style="font-family: Verdana; font-size: 12; font-style: Italic; fill: #008000" transform="rotate( 511.038476276484 80.5555555555556)" x="517" y="84">Phalaenopsis equestris SEP-E</text>
    <polyline points="431,65 431,50 616,50" style="stroke: rgb(32,0,223); stroke-width: 2" />
    <text class="taxon_text" style="font-family: Verdana; font-size: 12; font-style: Italic; fill: #008000" transform="rotate( 616.635247165337 50)" x="622" y="54">Erycina pusilla SEP-E</text>
    <polyline points="398,88 398,111 441,111" style="stroke: rgb(0,0,255); stroke-width: 2" />
    <text class="taxon_text" style="font-family: Verdana; font-size: 12; font-style: Italic; fill: #008000" transform="rotate( 441.677678063949 111.111111111111)" x="447" y="115">Dendrobium crumenatum SEP-E</text>
    <polyline points="398,88 398,65 431,65" style="stroke: rgb(0,0,255); stroke-width: 2" />
    <polyline points="443,156 443,172 501,172" style="stroke: rgb(0,0,255); stroke-width: 2" />
    <text class="taxon_text" style="font-family: Verdana; font-size: 12; font-style: Italic; fill: #008000" transform="rotate( 501.632430387415 172.222222222222)" x="507" y="176">Erycina pusilla SEP-E</text>
    <polyline points="443,156 443,141 457,141" style="stroke: rgb(0,0,255); stroke-width: 2" />
    <text class="taxon_text" style="font-family: Verdana; font-size: 12; font-style: Italic; fill: #008000" transform="rotate( 457.712498101111 141.666666666667)" x="463" y="145">Oncidium Gower SEP-E</text>
    <polyline points="450,218 450,233 454,233" style="stroke: rgb(0,0,255); stroke-width: 2" />
    <text class="taxon_text" style="font-family: Verdana; font-size: 12; font-style: Italic; fill: #008000" transform="rotate( 454.314876566128 233.333333333333)" x="460" y="237">Cymbidium ensifolium SEP-E</text>
    <polyline points="450,218 450,202 450,202" style="stroke: rgb(0,0,255); stroke-width: 2" />
    <text class="taxon_text" style="font-family: Verdana; font-size: 12; font-style: Italic; fill: #008000" transform="rotate( 450.25959704588 202.777777777778)" x="456" y="206">Cymbidium goeringii SEP-E</text>
    <polyline points="410,187 410,218 450,218" style="stroke: rgb(0,0,255); stroke-width: 2" />
    <polyline points="410,187 410,156 443,156" style="stroke: rgb(0,0,255); stroke-width: 2" />
    <polyline points="367,225 367,263 401,263" style="stroke: rgb(75,0,180); stroke-width: 2" />
    <text class="taxon_text" style="font-family: Verdana; font-size: 12; font-style: Italic; fill: #008000" transform="rotate( 401.10166520844 263.888888888889)" x="407" y="267">Phalaenopsis equestris SEP-E</text>
    <polyline points="367,225 367,187 410,187" style="stroke: rgb(82,0,173); stroke-width: 2" />
    <polyline points="335,156 335,225 367,225" style="stroke: rgb(215,0,40); stroke-width: 2" />
    <polyline points="335,156 335,88 398,88" style="stroke: rgb(0,0,255); stroke-width: 2" />
    <polyline points="429,309 429,325 477,325" style="stroke: rgb(0,0,255); stroke-width: 2" />
    <text class="taxon_text" style="font-family: Verdana; font-size: 12; font-style: Italic; fill: #008000" transform="rotate( 477.463460488095 325)" x="483" y="329">Dendrobium nobile SEP-E</text>
    <polyline points="429,309 429,294 463,294" style="stroke: rgb(0,0,255); stroke-width: 2" />
    <text class="taxon_text" style="font-family: Verdana; font-size: 12; font-style: Italic; fill: #008000" transform="rotate( 463.091576482765 294.444444444444)" x="469" y="298">Dendrobium grex SEP-E</text>
    <polyline points="279,233 279,309 429,309" style="stroke: rgb(94,0,161); stroke-width: 2" />
    <polyline points="279,233 279,156 335,156" style="stroke: rgb(0,0,255); stroke-width: 2" />
    <polyline points="420,401 420,416 559,416" style="stroke: rgb(0,0,255); stroke-width: 2" />
    <text class="taxon_text" style="font-family: Verdana; font-size: 12; font-style: Italic; fill: #008000" transform="rotate( 559.157552797251 416.666666666667)" x="565" y="420">Erycina pusilla SEP-E</text>
    <polyline points="420,401 420,386 472,386" style="stroke: rgb(0,0,255); stroke-width: 2" />
    <text class="taxon_text" style="font-family: Verdana; font-size: 12; font-style: Italic; fill: #008000" transform="rotate( 472.074312930021 386.111111111111)" x="478" y="390">Phalaenopsis equestris SEP-E</text>
    <polyline points="414,424 414,447 463,447" style="stroke: rgb(0,0,255); stroke-width: 2" />
    <text class="taxon_text" style="font-family: Verdana; font-size: 12; font-style: Italic; fill: #008000" transform="rotate( 463.885237048769 447.222222222222)" x="469" y="451">Dendrobium grex SEP-E</text>
    <polyline points="414,424 414,401 420,401" style="stroke: rgb(0,0,255); stroke-width: 2" />
    <polyline points="321,389 321,424 414,424" style="stroke: rgb(83,0,172); stroke-width: 2" />
    <polyline points="321,389 321,355 437,355" style="stroke: rgb(5,0,250); stroke-width: 2" />
    <text class="taxon_text" style="font-family: Verdana; font-size: 12; font-style: Italic; fill: #008000" transform="rotate( 437.151767594723 355.555555555556)" x="443" y="359">Paphiopedilum concolor SEP-E</text>
    <polyline points="347,493 347,508 429,508" style="stroke: rgb(0,0,255); stroke-width: 2" />
    <text class="taxon_text" style="font-family: Verdana; font-size: 12; font-style: Italic; fill: #008000" transform="rotate( 429.77921887 508.333333333333)" x="435" y="512">Phalaenopsis equestris SEP-E</text>
    <polyline points="347,493 347,477 395,477" style="stroke: rgb(0,0,255); stroke-width: 2" />
    <text class="taxon_text" style="font-family: Verdana; font-size: 12; font-style: Italic; fill: #008000" transform="rotate( 395.214984210009 477.777777777778)" x="401" y="481">Oncidium Gower-Ramsey SEP-E</text>
    <polyline points="297,441 297,493 347,493" style="stroke: rgb(0,0,255); stroke-width: 2" />
    <polyline points="297,441 297,389 321,389" style="stroke: rgb(0,0,255); stroke-width: 2" />
    <polyline points="141,337 141,441 297,441" style="stroke: rgb(98,0,157); stroke-width: 2" />
    <polyline points="141,337 141,233 279,233" style="stroke: rgb(1,0,254); stroke-width: 2" />
    <polyline points="859,554 859,569 886,569" style="stroke: rgb(-5,0,260); stroke-width: 2" />
    <text class="taxon_text" style="font-family: Verdana; font-size: 12; font-style: Italic; fill: #BF0000" transform="rotate( 886.749831578885 569.444444444444)" x="892" y="573">Phalaenopsis amabilis AP1-A</text>
    <polyline points="859,554 859,538 864,538" style="stroke: rgb(107,0,148); stroke-width: 2" />
    <text class="taxon_text" style="font-family: Verdana; font-size: 12; font-style: Italic; fill: #BF0000" transform="rotate( 864.287200820342 538.888888888889)" x="870" y="542">Sedirea japonica AP1-A</text>
    <polyline points="872,645 872,661 929,661" style="stroke: rgb(0,0,255); stroke-width: 2" />
    <text class="taxon_text" style="font-family: Verdana; font-size: 12; font-style: Italic; fill: #BF0000" transform="rotate( 929.281573816014 661.111111111111)" x="935" y="665">Erycina pusilla AP1-A</text>
    <polyline points="872,645 872,630 888,630" style="stroke: rgb(2,0,253); stroke-width: 2" />
    <text class="taxon_text" style="font-family: Verdana; font-size: 12; font-style: Italic; fill: #BF0000" transform="rotate( 888.747039304902 630.555555555556)" x="894" y="634">Oncidium Gower-Ramsey AP1-A</text>
    <polyline points="829,622 829,645 872,645" style="stroke: rgb(0,0,255); stroke-width: 2" />
    <polyline points="829,622 829,600 859,600" style="stroke: rgb(54,0,201); stroke-width: 2" />
    <text class="taxon_text" style="font-family: Verdana; font-size: 12; font-style: Italic; fill: #BF0000" transform="rotate( 859.724344530495 600)" x="865" y="604">Cymbidium ensifolium AP1-A</text>
    <polyline points="806,588 806,622 829,622" style="stroke: rgb(0,0,255); stroke-width: 2" />
    <polyline points="806,588 806,554 859,554" style="stroke: rgb(0,0,255); stroke-width: 2" />
    <polyline points="820,706 820,722 881,722" style="stroke: rgb(-5,0,260); stroke-width: 2" />
    <text class="taxon_text" style="font-family: Verdana; font-size: 12; font-style: Italic; fill: #BF0000" transform="rotate( 881.675719632736 722.222222222222)" x="887" y="726">Cymbidium faberi AP1-A</text>
    <polyline points="820,706 820,691 1000,691" style="stroke: rgb(29,0,226); stroke-width: 2" />
    <text class="taxon_text" style="font-family: Verdana; font-size: 12; font-style: Italic; fill: #BF0000" transform="rotate( 1000 691.666666666667)" x="1006" y="695">Erycina pusilla AP1-A</text>
    <polyline points="705,647 705,706 820,706" style="stroke: rgb(215,0,40); stroke-width: 2" />
    <polyline points="705,647 705,588 806,588" style="stroke: rgb(0,0,255); stroke-width: 2" />
    <polyline points="711,768 711,783 790,783" style="stroke: rgb(71,0,184); stroke-width: 2" />
    <text class="taxon_text" style="font-family: Verdana; font-size: 12; font-style: Italic; fill: #BF0000" transform="rotate( 790.469400290804 783.333333333333)" x="796" y="787">Cymbidium faberi AP1-A</text>
    <polyline points="711,768 711,752 768,752" style="stroke: rgb(8,0,247); stroke-width: 2" />
    <text class="taxon_text" style="font-family: Verdana; font-size: 12; font-style: Italic; fill: #BF0000" transform="rotate( 768.859452725072 752.777777777778)" x="774" y="756">Dendrobium grex AP1-A</text>
    <polyline points="688,790 688,813 780,813" style="stroke: rgb(0,0,255); stroke-width: 2" />
    <text class="taxon_text" style="font-family: Verdana; font-size: 12; font-style: Italic; fill: #BF0000" transform="rotate( 780.891626514338 813.888888888889)" x="786" y="817">Phalaenopsis amabilis AP1-A</text>
    <polyline points="688,790 688,768 711,768" style="stroke: rgb(0,0,255); stroke-width: 2" />
    <polyline points="612,817 612,844 795,844" style="stroke: rgb(-3,0,258); stroke-width: 2" />
    <text class="taxon_text" style="font-family: Verdana; font-size: 12; font-style: Italic; fill: #BF0000" transform="rotate( 795.809975644368 844.444444444444)" x="801" y="848">Erycina pusilla AP1-A</text>
    <polyline points="612,817 612,790 688,790" style="stroke: rgb(0,0,255); stroke-width: 2" />
    <polyline points="544,732 544,817 612,817" style="stroke: rgb(239,0,16); stroke-width: 2" />
    <polyline points="544,732 544,647 705,647" style="stroke: rgb(0,0,255); stroke-width: 2" />
    <polyline points="597,890 597,905 626,905" style="stroke: rgb(0,0,255); stroke-width: 2" />
    <text class="taxon_text" style="font-family: Verdana; font-size: 12; font-style: Italic; fill: #0000FF" transform="rotate( 626.371776351474 905.555555555556)" x="632" y="909">Erycina pusilla AGL-AE</text>
    <polyline points="597,890 597,875 652,875" style="stroke: rgb(0,0,255); stroke-width: 2" />
    <text class="taxon_text" style="font-family: Verdana; font-size: 12; font-style: Italic; fill: #0000FF" transform="rotate( 652.778484417104 875)" x="658" y="879">Oncidium Gower AGL-AE</text>
    <polyline points="504,913 504,936 730,936" style="stroke: rgb(72,0,183); stroke-width: 2" />
    <text class="taxon_text" style="font-family: Verdana; font-size: 12; font-style: Italic; fill: #0000FF" transform="rotate( 730.038910585198 936.111111111111)" x="736" y="940">Erycina pusilla AGL-AE</text>
    <polyline points="504,913 504,890 597,890" style="stroke: rgb(0,0,255); stroke-width: 2" />
    <polyline points="531,981 531,997 603,997" style="stroke: rgb(-256,0,511); stroke-width: 2" />
    <text class="taxon_text" style="font-family: Verdana; font-size: 12; font-style: Italic; fill: #0000FF" transform="rotate( 603.093443675587 997.222222222222)" x="609" y="1001">Erycina pusilla AGL-AE</text>
    <polyline points="531,981 531,966 549,966" style="stroke: rgb(0,0,255); stroke-width: 2" />
    <text class="taxon_text" style="font-family: Verdana; font-size: 12; font-style: Italic; fill: #0000FF" transform="rotate( 549.998268899106 966.666666666667)" x="555" y="970">Oncidium Gower-Ramsey AGL-AE</text>
    <polyline points="540,1073 540,1088 542,1088" style="stroke: rgb(131,0,124); stroke-width: 2" />
    <text class="taxon_text" style="font-family: Verdana; font-size: 12; font-style: Italic; fill: #0000FF" transform="rotate( 542.40657164229 1088.88888888889)" x="548" y="1092">Cymbidium faberi AGL-AE</text>
    <polyline points="540,1073 540,1058 544,1058" style="stroke: rgb(0,0,255); stroke-width: 2" />
    <text class="taxon_text" style="font-family: Verdana; font-size: 12; font-style: Italic; fill: #0000FF" transform="rotate( 544.562064427351 1058.33333333333)" x="550" y="1062">Cymbidium ensifolium AGL-AE</text>
    <polyline points="538,1050 538,1073 540,1073" style="stroke: rgb(255,0,0); stroke-width: 2" />
    <polyline points="538,1050 538,1027 538,1027" style="stroke: rgb(63,0,192); stroke-width: 2" />
    <text class="taxon_text" style="font-family: Verdana; font-size: 12; font-style: Italic; fill: #0000FF" transform="rotate( 538.108758865525 1027.77777777778)" x="544" y="1031">Cymbidium goeringii AGL-AE</text>
    <polyline points="535,1085 535,1119 536,1119" style="stroke: rgb(0,0,255); stroke-width: 2" />
    <text class="taxon_text" style="font-family: Verdana; font-size: 12; font-style: Italic; fill: #0000FF" transform="rotate( 536.963672326238 1119.44444444444)" x="542" y="1123">Cymbidium goeringii AGL-AE</text>
    <polyline points="535,1085 535,1050 538,1050" style="stroke: rgb(0,0,255); stroke-width: 2" />
    <polyline points="489,1033 489,1085 535,1085" style="stroke: rgb(0,0,255); stroke-width: 2" />
    <polyline points="489,1033 489,981 531,981" style="stroke: rgb(0,0,255); stroke-width: 2" />
    <polyline points="350,973 350,1033 489,1033" style="stroke: rgb(108,0,147); stroke-width: 2" />
    <polyline points="350,973 350,913 504,913" style="stroke: rgb(62,0,193); stroke-width: 2" />
    <polyline points="141,853 141,973 350,973" style="stroke: rgb(-5,0,260); stroke-width: 2" />
    <polyline points="141,853 141,732 544,732" style="stroke: rgb(185,0,70); stroke-width: 2" />
    <polyline points="50,595 50,853 141,853" style="stroke: rgb(51,0,204); stroke-width: 2" />
    <polyline points="50,595 50,337 141,337" style="stroke: rgb(30,0,225); stroke-width: 2" />
    <text class="node_text" style="font-family: Verdana; font-size: 12; font-style: Italic" transform="rotate( 50 595.225694444444)" x="56" y="599">root</text>
</svg>