<svg height="900" width="1200" xmlns="http://www.w3.org/2000/svg" xmlns:svg="http://www.w3.org/2000/svg" xmlns:xlink="http://www.w3.org/1999/xlink">
    <style type="text/css"><![CDATA[
	polyline { fill: none; stroke: black; stroke-width: 1 }
	path { fill: none; stroke: black; stroke-width: 1 }
	line { fill: none; stroke: black; stroke-width: 1 }
	circle.node_circle  {}
	circle.taxon_circle {}
	text.node_text      {}
	text.taxon_text     {}
	line.scale_bar      {}
	text.scale_label    {}
	line.scale_major    {}
	line.scale_minor    {}
]]></style>
    <polyline points="711,105 711,116 813,116" style="stroke: rgb(43,0,212); stroke-width: 4" />
    <text class="taxon_text" style="font-family: Verdana; font-size: 12; font-style: Italic" transform="rotate( 813.122218215255 116.666666666667)" x="819" y="120">Ginkgo biloba (GBM5)</text>
    <polyline points="711,105 711,94 858,94" style="stroke: rgb(0,0,255); stroke-width: 4" />
    <text class="taxon_text" style="font-family: Verdana; font-size: 12; font-style: Italic" transform="rotate( 858.071956799693 94.4444444444444)" x="864" y="98">Cycas edentata (CyAG)</text>
    <polyline points="578,88 578,105 711,105" style="stroke: rgb(0,0,255); stroke-width: 4" />
    <circle cx="711" cy="105" r="5" style="fill: green; stroke: black; stroke-width: 1" />
    <polyline points="578,88 578,72 685,72" style="stroke: rgb(0,0,255); stroke-width: 4" />
    <text class="taxon_text" style="font-family: Verdana; font-size: 12; font-style: Italic" transform="rotate( 685.108601813127 72.2222222222222)" x="691" y="76">Picea abies (dal2)</text>
    <polyline points="344,69 344,88 578,88" style="stroke: rgb(85,0,170); stroke-width: 4" />
    <text class="node_text" style="font-family: Verdana; font-size: 12" transform="rotate( 578.591009927391 88.8888888888889)" x="584" y="92">0.92</text>
    <circle cx="578" cy="88" r="5" style="fill: green; stroke: black; stroke-width: 1" />
    <polyline points="344,69 344,50 723,50" style="stroke: rgb(193,0,62); stroke-width: 4" />
    <text class="taxon_text" style="font-family: Verdana; font-size: 12; font-style: Italic" transform="rotate( 723.043286170812 50)" x="729" y="54">Gnetum gnemon (GGM3)</text>
    <polyline points="683,194 683,205 914,205" style="stroke: rgb(229,0,26); stroke-width: 4" />
    <text class="taxon_text" style="font-family: Verdana; font-size: 12; font-style: Italic" transform="rotate( 914.471213065002 205.555555555556)" x="920" y="209">Zea mays (ZAG1)</text>
    <polyline points="683,194 683,183 829,183" style="stroke: rgb(66,0,189); stroke-width: 4" />
    <text class="taxon_text" style="font-family: Verdana; font-size: 12; font-style: Italic" transform="rotate( 829.006199350247 183.333333333333)" x="835" y="187">Oryza sativa (KCS268A08)</text>
    <polyline points="534,177 534,194 683,194" style="stroke: rgb(55,0,200); stroke-width: 4" />
    <text class="node_text" style="font-family: Verdana; font-size: 12" transform="rotate( 683.294772781558 194.444444444444)" x="689" y="198">0.99</text>
    <circle cx="683" cy="194" r="5" style="fill: green; stroke: black; stroke-width: 1" />
    <polyline points="534,177 534,161 651,161" style="stroke: rgb(0,0,255); stroke-width: 4" />
    <text class="taxon_text" style="font-family: Verdana; font-size: 12; font-style: Italic" transform="rotate( 651.686985111256 161.111111111111)" x="657" y="165">Oryza sativa (OsMADS3)</text>
    <polyline points="551,238 551,250 623,250" style="stroke: rgb(16,0,239); stroke-width: 4" />
    <text class="taxon_text" style="font-family: Verdana; font-size: 12; font-style: Italic" transform="rotate( 623.613420320942 250)" x="629" y="254">Elaeis guineensis (EgAG2)</text>
    <polyline points="551,238 551,227 612,227" style="stroke: rgb(24,0,231); stroke-width: 4" />
    <text class="taxon_text" style="font-family: Verdana; font-size: 12; font-style: Italic" transform="rotate( 612.512430704191 227.777777777778)" x="618" y="231">Elaeis guineensis (EgAG1)</text>
    <polyline points="619,327 619,338 697,338" style="stroke: rgb(0,0,255); stroke-width: 4" />
    <text class="taxon_text" style="font-family: Verdana; font-size: 12; font-style: Italic" transform="rotate( 697.252209425947 338.888888888889)" x="703" y="342">Narcissus tazetta (MADS.box)</text>
    <polyline points="619,327 619,316 884,316" style="stroke: rgb(46,0,209); stroke-width: 4" />
    <text class="taxon_text" style="font-family: Verdana; font-size: 12; font-style: Italic" transform="rotate( 884.726196665059 316.666666666667)" x="890" y="320">Allium cepa (AcAG)</text>
    <polyline points="623,394 623,405 801,405" style="stroke: rgb(24,0,231); stroke-width: 4" />
    <text class="taxon_text" style="font-family: Verdana; font-size: 12; font-style: Italic" transform="rotate( 801.189210539051 405.555555555556)" x="807" y="409">Hyacinthus orientalis (HAG1)</text>
    <polyline points="623,394 623,383 657,383" style="stroke: rgb(0,0,255); stroke-width: 4" />
    <text class="taxon_text" style="font-family: Verdana; font-size: 12; font-style: Italic" transform="rotate( 657.328690455561 383.333333333333)" x="663" y="387">Hosta plantaginea (AG)</text>
    <polyline points="576,377 576,394 623,394" style="stroke: rgb(0,0,255); stroke-width: 4" />
    <text class="node_text" style="font-family: Verdana; font-size: 12" transform="rotate( 623.548164002554 394.444444444444)" x="629" y="398">0.84</text>
    <circle cx="623" cy="394" r="5" style="fill: green; stroke: black; stroke-width: 1" />
    <polyline points="576,377 576,361 680,361" style="stroke: rgb(54,0,201); stroke-width: 4" />
    <text class="taxon_text" style="font-family: Verdana; font-size: 12; font-style: Italic" transform="rotate( 680.721597499653 361.111111111111)" x="686" y="365">Asparagus virgatus (AVAG1)</text>
    <polyline points="558,352 558,377 576,377" style="stroke: rgb(0,0,255); stroke-width: 4" />
    <text class="node_text" style="font-family: Verdana; font-size: 12" transform="rotate( 576.683745712676 377.777777777778)" x="582" y="381">0.51</text>
    <circle cx="576" cy="377" r="5" style="fill: red; stroke: black; stroke-width: 1" />
    <polyline points="558,352 558,327 619,327" style="stroke: rgb(0,0,255); stroke-width: 4" />
    <text class="node_text" style="font-family: Verdana; font-size: 12" transform="rotate( 619.835969345142 327.777777777778)" x="625" y="331">0.96</text>
    <circle cx="619" cy="327" r="5" style="fill: green; stroke: black; stroke-width: 1" />
    <polyline points="851,461 851,472 943,472" style="stroke: rgb(255,0,0); stroke-width: 4" />
    <text class="taxon_text" style="font-family: Verdana; font-size: 12; font-style: Italic" transform="rotate( 943.08610867831 472.222222222222)" x="949" y="476">Lilium longiflorum (LLAG1)</text>
    <polyline points="851,461 851,450 852,450" style="stroke: rgb(0,0,255); stroke-width: 4" />
    <text class="taxon_text" style="font-family: Verdana; font-size: 12; font-style: Italic" transform="rotate( 852.403555688774 450)" x="858" y="454">Lilium formosanum (LFAG1)</text>
    <polyline points="587,444 587,461 851,461" style="stroke: rgb(50,0,205); stroke-width: 4" />
    <text class="node_text" style="font-family: Verdana; font-size: 12" transform="rotate( 851.190381406008 461.111111111111)" x="857" y="465">1.00</text>
    <circle cx="851" cy="461" r="5" style="fill: green; stroke: black; stroke-width: 1" />
    <polyline points="587,444 587,427 798,427" style="stroke: rgb(0,0,255); stroke-width: 4" />
    <text class="taxon_text" style="font-family: Verdana; font-size: 12; font-style: Italic" transform="rotate( 798.06283964899 427.777777777778)" x="804" y="431">Lilium longiflorum (LFMADS1)</text>
    <polyline points="820,572 820,583 867,583" style="stroke: rgb(27,0,228); stroke-width: 4" />
    <text class="taxon_text" style="font-family: Verdana; font-size: 12; font-style: Italic" transform="rotate( 867.090676620597 583.333333333333)" x="873" y="587">Dendrobium moniliforme (DMAG1)</text>
    <polyline points="820,572 820,561 859,561" style="stroke: rgb(0,0,255); stroke-width: 4" />
    <text class="taxon_text" style="font-family: Verdana; font-size: 12; font-style: Italic" transform="rotate( 859.595098594804 561.111111111111)" x="865" y="565">Dendrobium crumenatum (DcOAG1)</text>
    <polyline points="858,638 858,650 880,650" style="stroke: rgb(0,0,255); stroke-width: 4" />
    <text class="taxon_text" style="font-family: Verdana; font-size: 12; font-style: Italic" transform="rotate( 880.500850049411 650)" x="886" y="654">Gongora galeata (CD28)</text>
    <polyline points="858,638 858,627 1000,627" style="stroke: rgb(0,0,255); stroke-width: 4" />
    <text class="taxon_text" style="font-family: Verdana; font-size: 12; font-style: Italic" transform="rotate( 1000 627.777777777778)" x="1006" y="631">Erycina pusilla (EpMADS22)</text>
    <polyline points="836,622 836,638 858,638" style="stroke: rgb(0,0,255); stroke-width: 4" />
    <text class="node_text" style="font-family: Verdana; font-size: 12" transform="rotate( 858.223232810502 638.888888888889)" x="864" y="642">0.90</text>
    <circle cx="858" cy="638" r="5" style="fill: green; stroke: black; stroke-width: 1" />
    <polyline points="836,622 836,605 882,605" style="stroke: rgb(84,0,171); stroke-width: 4" />
    <text class="taxon_text" style="font-family: Verdana; font-size: 12; font-style: Italic" transform="rotate( 882.79223668373 605.555555555556)" x="888" y="609">Cymbidium ensifolium (CeMADS2)</text>
    <polyline points="788,597 788,622 836,622" style="stroke: rgb(0,0,255); stroke-width: 4" />
    <text class="node_text" style="font-family: Verdana; font-size: 12" transform="rotate( 836.196259158131 622.222222222222)" x="842" y="626">0.99</text>
    <circle cx="836" cy="622" r="5" style="fill: green; stroke: black; stroke-width: 1" />
    <polyline points="788,597 788,572 820,572" style="stroke: rgb(0,0,255); stroke-width: 4" />
    <text class="node_text" style="font-family: Verdana; font-size: 12" transform="rotate( 820.568854002257 572.222222222222)" x="826" y="576">0.91</text>
    <circle cx="820" cy="572" r="5" style="fill: green; stroke: black; stroke-width: 1" />
    <polyline points="759,568 759,597 788,597" style="stroke: rgb(0,0,255); stroke-width: 4" />
    <text class="node_text" style="font-family: Verdana; font-size: 12" transform="rotate( 788.627369249287 597.222222222222)" x="794" y="601">0.59</text>
    <circle cx="788" cy="597" r="5" style="fill: green; stroke: black; stroke-width: 1" />
    <polyline points="759,568 759,538 895,538" style="stroke: rgb(0,0,255); stroke-width: 4" />
    <text class="taxon_text" style="font-family: Verdana; font-size: 12; font-style: Italic" transform="rotate( 895.382256838253 538.888888888889)" x="901" y="542">Orchis italica (AG)</text>
    <polyline points="709,542 709,568 759,568" style="stroke: rgb(0,0,255); stroke-width: 4" />
    <text class="node_text" style="font-family: Verdana; font-size: 12" transform="rotate( 759.865646919605 568.055555555556)" x="765" y="572">0.95</text>
    <circle cx="759" cy="568" r="5" style="fill: green; stroke: black; stroke-width: 1" />
    <polyline points="709,542 709,516 818,516" style="stroke: rgb(0,0,255); stroke-width: 4" />
    <text class="taxon_text" style="font-family: Verdana; font-size: 12; font-style: Italic" transform="rotate( 818.121742062693 516.666666666667)" x="824" y="520">Phragmipedium longifolium (MADS.box)</text>
    <polyline points="876,750 876,761 912,761" style="stroke: rgb(0,0,255); stroke-width: 4" />
    <text class="taxon_text" style="font-family: Verdana; font-size: 12; font-style: Italic" transform="rotate( 912.517972807786 761.111111111111)" x="918" y="765">Oncidium Gower-Ramsey (OMADS4)</text>
    <polyline points="876,750 876,738 918,738" style="stroke: rgb(0,0,255); stroke-width: 4" />
    <text class="taxon_text" style="font-family: Verdana; font-size: 12; font-style: Italic" transform="rotate( 918.53935127726 738.888888888889)" x="924" y="742">Erycina pusilla (EpMADS21)</text>
    <polyline points="904,816 904,827 906,827" style="stroke: rgb(0,0,255); stroke-width: 4" />
    <text class="taxon_text" style="font-family: Verdana; font-size: 12; font-style: Italic" transform="rotate( 906.969702646628 827.777777777778)" x="912" y="831">Cymbidium ensifolium (CeMADS1)</text>
    <polyline points="904,816 904,805 906,805" style="stroke: rgb(198,0,57); stroke-width: 4" />
    <text class="taxon_text" style="font-family: Verdana; font-size: 12; font-style: Italic" transform="rotate( 906.98749982437 805.555555555556)" x="912" y="809">Cymbidium ensifolium (AG)</text>
    <polyline points="901,800 901,816 904,816" style="stroke: rgb(0,0,255); stroke-width: 4" />
    <text class="node_text" style="font-family: Verdana; font-size: 12" transform="rotate( 904.319406261172 816.666666666667)" x="910" y="820">0.80</text>
    <circle cx="904" cy="816" r="5" style="fill: red; stroke: black; stroke-width: 1" />
    <polyline points="901,800 901,783 901,783" style="stroke: rgb(55,0,200); stroke-width: 4" />
    <text class="taxon_text" style="font-family: Verdana; font-size: 12; font-style: Italic" transform="rotate( 901.643897207248 783.333333333333)" x="907" y="787">Cymbidium faberi (AG1)</text>
    <polyline points="870,775 870,800 901,800" style="stroke: rgb(0,0,255); stroke-width: 4" />
    <text class="node_text" style="font-family: Verdana; font-size: 12" transform="rotate( 901.643897207248 800)" x="907" y="804">0.99</text>
    <circle cx="901" cy="800" r="5" style="fill: green; stroke: black; stroke-width: 1" />
    <polyline points="870,775 870,750 876,750" style="stroke: rgb(0,0,255); stroke-width: 4" />
    <text class="node_text" style="font-family: Verdana; font-size: 12" transform="rotate( 876.96069477684 750)" x="882" y="754">0.55</text>
    <circle cx="876" cy="750" r="5" style="fill: green; stroke: black; stroke-width: 1" />
    <polyline points="840,745 840,775 870,775" style="stroke: rgb(0,0,255); stroke-width: 4" />
    <text class="node_text" style="font-family: Verdana; font-size: 12" transform="rotate( 870.601169930263 775)" x="876" y="779">0.95</text>
    <circle cx="870" cy="775" r="5" style="fill: green; stroke: black; stroke-width: 1" />
    <polyline points="840,745 840,716 889,716" style="stroke: rgb(0,0,255); stroke-width: 4" />
    <text class="taxon_text" style="font-family: Verdana; font-size: 12; font-style: Italic" transform="rotate( 889.003451715788 716.666666666667)" x="895" y="720">Dendrobium thyrsiflorum (DthyrAG1)</text>
    <polyline points="816,720 816,745 840,745" style="stroke: rgb(0,0,255); stroke-width: 4" />
    <text class="node_text" style="font-family: Verdana; font-size: 12" transform="rotate( 840.780515524915 745.833333333333)" x="846" y="749">0.72</text>
    <circle cx="840" cy="745" r="5" style="fill: green; stroke: black; stroke-width: 1" />
    <polyline points="816,720 816,694 875,694" style="stroke: rgb(0,0,255); stroke-width: 4" />
    <text class="taxon_text" style="font-family: Verdana; font-size: 12; font-style: Italic" transform="rotate( 875.189875591483 694.444444444444)" x="881" y="698">Phalaenopsis equestris (PeMADS1)</text>
    <polyline points="732,696 732,720 816,720" style="stroke: rgb(0,0,255); stroke-width: 4" />
    <text class="node_text" style="font-family: Verdana; font-size: 12" transform="rotate( 816.994587472348 720.138888888889)" x="822" y="724">0.99</text>
    <circle cx="816" cy="720" r="5" style="fill: red; stroke: black; stroke-width: 1" />
    <polyline points="732,696 732,672 889,672" style="stroke: rgb(30,0,225); stroke-width: 4" />
    <text class="taxon_text" style="font-family: Verdana; font-size: 12; font-style: Italic" transform="rotate( 889.863648639999 672.222222222222)" x="895" y="676">Vanilla planifolia (MADS.box)</text>
    <polyline points="689,619 689,696 732,696" style="stroke: rgb(0,0,255); stroke-width: 4" />
    <text class="node_text" style="font-family: Verdana; font-size: 12" transform="rotate( 732.253325652446 696.180555555556)" x="738" y="700">0.90</text>
    <circle cx="732" cy="696" r="5" style="fill: green; stroke: black; stroke-width: 1" />
    <polyline points="689,619 689,542 709,542" style="stroke: rgb(0,0,255); stroke-width: 4" />
    <text class="node_text" style="font-family: Verdana; font-size: 12" transform="rotate( 709.122926980053 542.361111111111)" x="715" y="546">0.80</text>
    <circle cx="709" cy="542" r="5" style="fill: green; stroke: black; stroke-width: 1" />
    <polyline points="652,556 652,619 689,619" style="stroke: rgb(55,0,200); stroke-width: 4" />
    <text class="node_text" style="font-family: Verdana; font-size: 12" transform="rotate( 689.680993394749 619.270833333333)" x="695" y="623">0.73</text>
    <circle cx="689" cy="619" r="5" style="fill: red; stroke: black; stroke-width: 1" />
    <polyline points="652,556 652,494 904,494" style="stroke: rgb(6,0,249); stroke-width: 4" />
    <text class="taxon_text" style="font-family: Verdana; font-size: 12; font-style: Italic" transform="rotate( 904.868152574893 494.444444444444)" x="910" y="498">Erycina pusilla (EpMADS20)</text>
    <polyline points="547,500 547,556 652,556" style="stroke: rgb(0,0,255); stroke-width: 4" />
    <text class="node_text" style="font-family: Verdana; font-size: 12" transform="rotate( 652.348446884011 556.857638888889)" x="658" y="560">0.98</text>
    <circle cx="652" cy="556" r="5" style="fill: red; stroke: black; stroke-width: 1" />
    <polyline points="547,500 547,444 587,444" style="stroke: rgb(0,0,255); stroke-width: 4" />
    <text class="node_text" style="font-family: Verdana; font-size: 12" transform="rotate( 587.053567943848 444.444444444444)" x="593" y="448">0.83</text>
    <circle cx="587" cy="444" r="5" style="fill: red; stroke: black; stroke-width: 1" />
    <polyline points="513,426 513,500 547,500" style="stroke: rgb(0,0,255); stroke-width: 4" />
    <text class="node_text" style="font-family: Verdana; font-size: 12" transform="rotate( 547.453364369114 500.651041666667)" x="553" y="504">0.84</text>
    <circle cx="547" cy="500" r="5" style="fill: green; stroke: black; stroke-width: 1" />
    <polyline points="513,426 513,352 558,352" style="stroke: rgb(0,0,255); stroke-width: 4" />
    <text class="node_text" style="font-family: Verdana; font-size: 12" transform="rotate( 558.078279481259 352.777777777778)" x="564" y="356">0.94</text>
    <circle cx="558" cy="352" r="5" style="fill: green; stroke: black; stroke-width: 1" />
    <polyline points="489,360 489,426 513,426" style="stroke: rgb(0,0,255); stroke-width: 4" />
    <text class="node_text" style="font-family: Verdana; font-size: 12" transform="rotate( 513.127057798676 426.714409722222)" x="519" y="430">0.54</text>
    <circle cx="513" cy="426" r="5" style="fill: red; stroke: black; stroke-width: 1" />
    <polyline points="489,360 489,294 674,294" style="stroke: rgb(-20,0,275); stroke-width: 4" />
    <text class="taxon_text" style="font-family: Verdana; font-size: 12; font-style: Italic" transform="rotate( 674.648310595097 294.444444444444)" x="680" y="298">Crocus sativus (CsAG1a)</text>
    <polyline points="468,316 468,360 489,360" style="stroke: rgb(0,0,255); stroke-width: 4" />
    <text class="node_text" style="font-family: Verdana; font-size: 12" transform="rotate( 489.756397226763 360.579427083333)" x="495" y="364">0.54</text>
    <circle cx="489" cy="360" r="5" style="fill: red; stroke: black; stroke-width: 1" />
    <polyline points="468,316 468,272 581,272" style="stroke: rgb(0,0,255); stroke-width: 4" />
    <text class="taxon_text" style="font-family: Verdana; font-size: 12; font-style: Italic" transform="rotate( 581.548307628901 272.222222222222)" x="587" y="276">Hypoxis villosa (2A)</text>
    <polyline points="441,277 441,316 468,316" style="stroke: rgb(0,0,255); stroke-width: 4" />
    <text class="node_text" style="font-family: Verdana; font-size: 12" transform="rotate( 468.777973963041 316.400824652778)" x="474" y="320">0.81</text>
    <circle cx="468" cy="316" r="5" style="fill: red; stroke: black; stroke-width: 1" />
    <polyline points="441,277 441,238 551,238" style="stroke: rgb(0,0,255); stroke-width: 4" />
    <text class="node_text" style="font-family: Verdana; font-size: 12" transform="rotate( 551.806257425248 238.888888888889)" x="557" y="242">0.99</text>
    <circle cx="551" cy="238" r="5" style="fill: red; stroke: black; stroke-width: 1" />
    <polyline points="374,227 374,277 441,277" style="stroke: rgb(0,0,255); stroke-width: 4" />
    <text class="node_text" style="font-family: Verdana; font-size: 12" transform="rotate( 441.540876526615 277.644856770833)" x="447" y="281">0.35</text>
    <circle cx="441" cy="277" r="5" style="fill: red; stroke: black; stroke-width: 1" />
    <polyline points="374,227 374,177 534,177" style="stroke: rgb(-12,0,267); stroke-width: 4" />
    <text class="node_text" style="font-family: Verdana; font-size: 12" transform="rotate( 534.798087896202 177.777777777778)" x="540" y="181">1.00</text>
    <circle cx="534" cy="177" r="5" style="fill: red; stroke: black; stroke-width: 1" />
    <polyline points="344,183 344,227 374,227" style="stroke: rgb(50,0,205); stroke-width: 4" />
    <text class="node_text" style="font-family: Verdana; font-size: 12" transform="rotate( 374.083640490765 227.711317274306)" x="380" y="231">0.59</text>
    <circle cx="374" cy="227" r="5" style="fill: red; stroke: black; stroke-width: 1" />
    <polyline points="344,183 344,138 563,138" style="stroke: rgb(43,0,212); stroke-width: 4" />
    <text class="taxon_text" style="font-family: Verdana; font-size: 12; font-style: Italic" transform="rotate( 563.623583446127 138.888888888889)" x="569" y="142">Alpinia hainanensis (AHMADS6)</text>
    <polyline points="50,126 50,183 344,183" style="stroke: rgb(39,0,216); stroke-width: 4" />
    <text class="node_text" style="font-family: Verdana; font-size: 12" transform="rotate( 344.424643783243 183.300103081597)" x="350" y="187">1.00</text>
    <circle cx="344" cy="183" r="5" style="fill: red; stroke: black; stroke-width: 1" />
    <polyline points="50,126 50,69 344,69" style="stroke: rgb(0,0,255); stroke-width: 4" />
    <text class="node_text" style="font-family: Verdana; font-size: 12" transform="rotate( 344.424643783243 69.4444444444444)" x="350" y="73">0.90</text>
    <circle cx="344" cy="69" r="5" style="fill: red; stroke: black; stroke-width: 1" />
    <circle cx="50" cy="126" r="5" style="fill: green; stroke: black; stroke-width: 1" />
</svg>