<svg height="2000" width="1200" xmlns="http://www.w3.org/2000/svg" xmlns:svg="http://www.w3.org/2000/svg" xmlns:xlink="http://www.w3.org/1999/xlink">
    <style type="text/css"><![CDATA[
	polyline { fill: none; stroke: black; stroke-width: 2 }
	path { fill: none; stroke: black; stroke-width: 2 }
	line { fill: none; stroke: black; stroke-width: 2 }
	circle.node_circle  {}
	circle.taxon_circle {}
	text.node_text      {}
	text.taxon_text     {}
	line.scale_bar      {}
	text.scale_label    {}
	line.scale_major    {}
	line.scale_minor    {}
]]></style>
    <polyline points="805,240 805,256 835,256" style="stroke: black; stroke-width: 2" />
    <polygon class="collapsed" id="collapsed58" points="835,256 881,270 881,241 835,256 " style="fill: white; stroke: black; stroke-width: 2" />
    <text class="collapsed_text" id="collapsed_text58" style="font-style: italic;" transform="rotate()" x="887" y="260">Oreonastes</text>
    <polyline points="805,240 805,223 822,223" style="stroke: black; stroke-width: 2" />
    <polygon class="collapsed" id="collapsed38" points="822,223 864,238 864,209 822,223 " style="fill: white; stroke: black; stroke-width: 2" />
    <text class="collapsed_text" id="collapsed_text38" style="font-style: italic;" transform="rotate()" x="870" y="227">Megaclinium</text>
    <polyline points="810,304 810,320 915,320" style="stroke: black; stroke-width: 2" />
    <polygon class="collapsed" id="collapsed65" points="915,320 919,334 919,306 915,320 " style="fill: white; stroke: black; stroke-width: 2" />
    <text class="collapsed_text" id="collapsed_text65" style="font-style: italic;" transform="rotate()" x="925" y="324">Genyorchis</text>
    <polyline points="810,304 810,288 915,288" style="stroke: black; stroke-width: 2" />
    <polygon class="collapsed" id="collapsed62" points="915,288 915,302 915,273 915,288 " style="fill: white; stroke: black; stroke-width: 2" />
    <text class="collapsed_text" id="collapsed_text62" style="font-style: italic;" transform="rotate()" x="921" y="292">Saltatoria</text>
    <polyline points="801,272 801,304 810,304" style="stroke: black; stroke-width: 2" />
    <polyline points="801,272 801,240 805,240" style="stroke: black; stroke-width: 2" />
    <polyline points="767,231 767,272 801,272" style="stroke: black; stroke-width: 2" />
    <polyline points="767,231 767,191 818,191" style="stroke: black; stroke-width: 2" />
    <polygon class="collapsed" id="collapsed29" points="818,191 1038,206 1038,177 818,191 " style="fill: white; stroke: black; stroke-width: 2" />
    <text class="collapsed_text" id="collapsed_text29" style="font-style: italic;" transform="rotate()" x="1044" y="195">Bulbophyllaria</text>
    <polyline points="734,292 734,352 814,352" style="stroke: black; stroke-width: 2" />
    <polygon class="collapsed" id="collapsed68" points="814,352 814,367 814,338 814,352 " style="fill: white; stroke: black; stroke-width: 2" />
    <text class="collapsed_text" id="collapsed_text68" style="font-style: italic;" transform="rotate()" x="820" y="356">Chaseella</text>
    <polyline points="734,292 734,231 767,231" style="stroke: black; stroke-width: 2" />
    <polyline points="750,401 750,417 848,417" style="stroke: black; stroke-width: 2" />
    <polygon class="collapsed" id="collapsed75" points="848,417 869,431 869,402 848,417 " style="fill: white; stroke: black; stroke-width: 2" />
    <text class="collapsed_text" id="collapsed_text75" style="font-style: italic;" transform="rotate()" x="875" y="421">Trichopus</text>
    <polyline points="750,401 750,384 822,384" style="stroke: black; stroke-width: 2" />
    <polygon class="collapsed" id="collapsed70" points="822,384 843,399 843,370 822,384 " style="fill: white; stroke: black; stroke-width: 2" />
    <text class="collapsed_text" id="collapsed_text70" style="font-style: italic;" transform="rotate()" x="849" y="388">Bulbophyllum</text>
    <polyline points="708,346 708,401 750,401" style="stroke: black; stroke-width: 2" />
    <polyline points="708,346 708,292 734,292" style="stroke: black; stroke-width: 2" />
    <polyline points="674,253 674,346 708,346" style="stroke: black; stroke-width: 2" />
    <polyline points="674,253 674,159 725,159" style="stroke: black; stroke-width: 2" />
    <polygon class="collapsed" id="collapsed21" points="725,159 818,173 818,145 725,159 " style="fill: white; stroke: black; stroke-width: 2" />
    <text class="collapsed_text" id="collapsed_text21" style="font-style: italic;" transform="rotate()" x="824" y="163">Adelopetalum</text>
    <polyline points="894,465 894,481 928,481" style="stroke: black; stroke-width: 2" />
    <polygon class="collapsed" id="collapsed93" points="928,481 928,495 928,467 928,481 " style="fill: silver; stroke: black; stroke-width: 2" />
    <text class="collapsed_text" id="collapsed_text93" style="font-style: italic;" transform="rotate()" x="934" y="485">Polymeres</text>
    <polyline points="894,465 894,449 962,449" style="stroke: black; stroke-width: 2" />
    <polygon class="collapsed" id="collapsed90" points="962,449 974,463 974,434 962,449 " style="fill: white; stroke: black; stroke-width: 2" />
    <text class="collapsed_text" id="collapsed_text90" style="font-style: italic;" transform="rotate()" x="980" y="453">Pedilochilus</text>
    <polyline points="856,489 856,513 983,513" style="stroke: black; stroke-width: 2" />
    <polygon class="collapsed" id="collapsed96" points="983,513 995,528 995,499 983,513 " style="fill: silver; stroke: black; stroke-width: 2" />
    <text class="collapsed_text" id="collapsed_text96" style="font-style: italic;" transform="rotate()" x="1001" y="517">Polymeres</text>
    <polyline points="856,489 856,465 894,465" style="stroke: black; stroke-width: 2" />
    <polyline points="831,517 831,545 856,545" style="stroke: black; stroke-width: 2" />
    <polygon class="collapsed" id="collapsed99" points="856,545 886,560 886,531 856,545 " style="fill: silver; stroke: black; stroke-width: 2" />
    <text class="collapsed_text" id="collapsed_text99" style="font-style: italic;" transform="rotate()" x="892" y="549">Polymeres</text>
    <polyline points="831,517 831,489 856,489" style="stroke: black; stroke-width: 2" />
    <polyline points="877,626 877,642 902,642" style="stroke: black; stroke-width: 2" />
    <polygon class="collapsed" id="collapsed112" points="902,642 962,656 962,628 902,642 " style="fill: white; stroke: black; stroke-width: 2" />
    <text class="collapsed_text" id="collapsed_text112" style="font-style: italic;" transform="rotate()" x="968" y="646">Hyalosema</text>
    <polyline points="877,626 877,610 1000,610" style="stroke: black; stroke-width: 2" />
    <polygon class="collapsed" id="collapsed111" points="1000,610 1000,624 1000,595 1000,610 " style="fill: white; stroke: black; stroke-width: 2" />
    <text class="collapsed_text" id="collapsed_text111" style="font-style: italic;" transform="rotate()" x="1006" y="614">Hoplandra</text>
    <polyline points="843,602 843,626 877,626" style="stroke: black; stroke-width: 2" />
    <polyline points="843,602 843,578 894,578" style="stroke: black; stroke-width: 2" />
    <polygon class="collapsed" id="collapsed103" points="894,578 962,592 962,563 894,578 " style="fill: white; stroke: black; stroke-width: 2" />
    <text class="collapsed_text" id="collapsed_text103" style="font-style: italic;" transform="rotate()" x="968" y="582">Epicrianthes</text>
    <polyline points="810,560 810,602 843,602" style="stroke: black; stroke-width: 2" />
    <polyline points="810,560 810,517 831,517" style="stroke: black; stroke-width: 2" />
    <polyline points="848,690 848,706 898,706" style="stroke: black; stroke-width: 2" />
    <polygon class="collapsed" id="collapsed155" points="898,706 902,721 902,692 898,706 " style="fill: silver; stroke: black; stroke-width: 2" />
    <text class="collapsed_text" id="collapsed_text155" style="font-style: italic;" transform="rotate()" x="908" y="710">Polymeres</text>
    <polyline points="848,690 848,674 864,674" style="stroke: black; stroke-width: 2" />
    <polygon class="collapsed" id="collapsed142" points="864,674 915,689 915,660 864,674 " style="fill: white; stroke: black; stroke-width: 2" />
    <text class="collapsed_text" id="collapsed_text142" style="font-style: italic;" transform="rotate()" x="921" y="678">Brachypus</text>
    <polyline points="869,755 869,771 915,771" style="stroke: black; stroke-width: 2" />
    <polygon class="collapsed" id="collapsed160" points="915,771 1004,785 1004,756 915,771 " style="fill: silver; stroke: black; stroke-width: 2" />
    <text class="collapsed_text" id="collapsed_text160" style="font-style: italic;" transform="rotate()" x="1010" y="775">Polymeres</text>
    <polyline points="869,755 869,739 932,739" style="stroke: black; stroke-width: 2" />
    <polygon class="collapsed" id="collapsed159" points="932,739 932,753 932,724 932,739 " style="fill: white; stroke: black; stroke-width: 2" />
    <text class="collapsed_text" id="collapsed_text159" style="font-style: italic;" transform="rotate()" x="938" y="743">Elliptifolia</text>
    <polyline points="848,723 848,755 869,755" style="stroke: black; stroke-width: 2" />
    <polyline points="848,723 848,690 848,690" style="stroke: black; stroke-width: 2" />
    <polyline points="852,851 852,867 894,867" style="stroke: black; stroke-width: 2" />
    <polygon class="collapsed" id="collapsed194" points="894,867 919,882 919,853 894,867 " style="fill: white; stroke: black; stroke-width: 2" />
    <text class="collapsed_text" id="collapsed_text194" style="font-style: italic;" transform="rotate()" x="925" y="871">Epibulbon</text>
    <polyline points="852,851 852,835 873,835" style="stroke: black; stroke-width: 2" />
    <polygon class="collapsed" id="collapsed183" points="873,835 928,850 928,821 873,835 " style="fill: white; stroke: black; stroke-width: 2" />
    <text class="collapsed_text" id="collapsed_text183" style="font-style: italic;" transform="rotate()" x="934" y="839">Papulipetalum</text>
    <polyline points="848,827 848,851 852,851" style="stroke: black; stroke-width: 2" />
    <polyline points="848,827 848,803 869,803" style="stroke: black; stroke-width: 2" />
    <polygon class="collapsed" id="collapsed173" points="869,803 919,817 919,789 869,803 " style="fill: white; stroke: black; stroke-width: 2" />
    <text class="collapsed_text" id="collapsed_text173" style="font-style: italic;" transform="rotate()" x="925" y="807">Peltopus</text>
    <polyline points="839,775 839,827 848,827" style="stroke: black; stroke-width: 2" />
    <polyline points="839,775 839,723 848,723" style="stroke: black; stroke-width: 2" />
    <polyline points="848,916 848,932 869,932" style="stroke: black; stroke-width: 2" />
    <polygon class="collapsed" id="collapsed246" points="869,932 970,946 970,917 869,932 " style="fill: silver; stroke: black; stroke-width: 2" />
    <text class="collapsed_text" id="collapsed_text246" style="font-style: italic;" transform="rotate()" x="976" y="936">Polymeres</text>
    <polyline points="848,916 848,900 856,900" style="stroke: black; stroke-width: 2" />
    <polygon class="collapsed" id="collapsed212" points="856,900 1038,914 1038,885 856,900 " style="fill: white; stroke: black; stroke-width: 2" />
    <text class="collapsed_text" id="collapsed_text212" style="" transform="rotate()" x="1044" y="904">Codonosiphon</text>
    <polyline points="826,845 826,916 848,916" style="stroke: black; stroke-width: 2" />
    <polyline points="826,845 826,775 839,775" style="stroke: black; stroke-width: 2" />
    <polyline points="797,702 797,845 826,845" style="stroke: black; stroke-width: 2" />
    <polyline points="797,702 797,560 810,560" style="stroke: black; stroke-width: 2" />
    <polyline points="784,980 784,996 835,996" style="stroke: black; stroke-width: 2" />
    <polygon class="collapsed" id="collapsed257" points="835,996 839,1011 839,982 835,996 " style="fill: white; stroke: black; stroke-width: 2" />
    <text class="collapsed_text" id="collapsed_text257" style="font-style: italic;" transform="rotate()" x="845" y="1000">Pseudopelma</text>
    <polyline points="784,980 784,964 826,964" style="stroke: black; stroke-width: 2" />
    <polygon class="collapsed" id="collapsed254" points="826,964 848,978 848,950 826,964 " style="fill: white; stroke: black; stroke-width: 2" />
    <text class="collapsed_text" id="collapsed_text254" style="font-style: italic;" transform="rotate()" x="854" y="968">Hemisterrantha</text>
    <polyline points="767,841 767,980 784,980" style="stroke: black; stroke-width: 2" />
    <polyline points="767,841 767,702 797,702" style="stroke: black; stroke-width: 2" />
    <polyline points="763,935 763,1028 831,1028" style="stroke: black; stroke-width: 2" />
    <polygon class="collapsed" id="collapsed260" points="831,1028 932,1043 932,1014 831,1028 " style="fill: white; stroke: black; stroke-width: 2" />
    <text class="collapsed_text" id="collapsed_text260" style="font-style: italic;" transform="rotate()" x="938" y="1032">Saurocephalum</text>
    <polyline points="763,935 763,841 767,841" style="stroke: black; stroke-width: 2" />
    <polyline points="822,1077 822,1093 843,1093" style="stroke: black; stroke-width: 2" />
    <polygon class="collapsed" id="collapsed281" points="843,1093 974,1107 974,1078 843,1093 " style="fill: white; stroke: black; stroke-width: 2" />
    <text class="collapsed_text" id="collapsed_text281" style="font-style: italic;" transform="rotate()" x="980" y="1097">Minutissima</text>
    <polyline points="822,1077 822,1061 852,1061" style="stroke: black; stroke-width: 2" />
    <polygon class="collapsed" id="collapsed274" points="852,1061 932,1075 932,1046 852,1061 " style="fill: white; stroke: black; stroke-width: 2" />
    <text class="collapsed_text" id="collapsed_text274" style="font-style: italic;" transform="rotate()" x="938" y="1065">Monanthaparva</text>
    <polyline points="797,1101 797,1125 826,1125" style="stroke: black; stroke-width: 2" />
    <polygon class="collapsed" id="collapsed286" points="826,1125 1080,1140 1080,1111 826,1125 " style="fill: white; stroke: black; stroke-width: 2" />
    <text class="collapsed_text" id="collapsed_text286" style="font-style: italic;" transform="rotate()" x="1086" y="1129">Monanthes</text>
    <polyline points="797,1101 797,1077 822,1077" style="stroke: black; stroke-width: 2" />
    <polyline points="784,1129 784,1157 831,1157" style="stroke: black; stroke-width: 2" />
    <polygon class="collapsed" id="collapsed313" points="831,1157 902,1172 902,1143 831,1157 " style="fill: white; stroke: black; stroke-width: 2" />
    <text class="collapsed_text" id="collapsed_text313" style="font-style: italic;" transform="rotate()" x="908" y="1161">Pelma</text>
    <polyline points="784,1129 784,1101 797,1101" style="stroke: black; stroke-width: 2" />
    <polyline points="746,1032 746,1129 784,1129" style="stroke: black; stroke-width: 2" />
    <polyline points="746,1032 746,935 763,935" style="stroke: black; stroke-width: 2" />
    <polyline points="831,1206 831,1222 852,1222" style="stroke: black; stroke-width: 2" />
    <polygon class="collapsed" id="collapsed328" points="852,1222 932,1236 932,1207 852,1222 " style="fill: white; stroke: black; stroke-width: 2" />
    <text class="collapsed_text" id="collapsed_text328" style="font-style: italic;" transform="rotate()" x="938" y="1226">Macrouris</text>
    <polyline points="831,1206 831,1190 886,1190" style="stroke: black; stroke-width: 2" />
    <polygon class="collapsed" id="collapsed325" points="886,1190 953,1204 953,1175 886,1190 " style="fill: white; stroke: black; stroke-width: 2" />
    <text class="collapsed_text" id="collapsed_text325" style="font-style: italic;" transform="rotate()" x="959" y="1194">Lepanthanthe</text>
    <polyline points="721,1230 721,1254 797,1254" style="stroke: black; stroke-width: 2" />
    <polygon class="collapsed" id="collapsed339" points="797,1254 797,1268 797,1239 797,1254 " style="fill: white; stroke: black; stroke-width: 2" />
    <text class="collapsed_text" id="collapsed_text339" style="font-style: italic;" transform="rotate()" x="803" y="1258">Imitatores</text>
    <polyline points="721,1230 721,1206 831,1206" style="stroke: black; stroke-width: 2" />
    <polyline points="712,1131 712,1230 721,1230" style="stroke: black; stroke-width: 2" />
    <polyline points="712,1131 712,1032 746,1032" style="stroke: black; stroke-width: 2" />
    <polyline points="700,1208 700,1286 734,1286" style="stroke: black; stroke-width: 2" />
    <polygon class="collapsed" id="collapsed342" points="734,1286 818,1301 818,1272 734,1286 " style="fill: white; stroke: black; stroke-width: 2" />
    <text class="collapsed_text" id="collapsed_text342" style="font-style: italic;" transform="rotate()" x="824" y="1290">Uncifera</text>
    <polyline points="700,1208 700,1131 712,1131" style="stroke: black; stroke-width: 2" />
    <polyline points="750,1367 750,1383 763,1383" style="stroke: black; stroke-width: 2" />
    <polygon class="collapsed" id="collapsed391" points="763,1383 801,1397 801,1368 763,1383 " style="fill: white; stroke: black; stroke-width: 2" />
    <text class="collapsed_text" id="collapsed_text391" style="font-style: italic;" transform="rotate()" x="807" y="1387">Sestochilus</text>
    <polyline points="750,1367 750,1351 755,1351" style="stroke: black; stroke-width: 2" />
    <polygon class="collapsed" id="collapsed369" points="755,1351 805,1365 805,1336 755,1351 " style="fill: white; stroke: black; stroke-width: 2" />
    <text class="collapsed_text" id="collapsed_text369" style="font-style: italic;" transform="rotate()" x="811" y="1355">Stenochilus</text>
    <polyline points="742,1342 742,1367 750,1367" style="stroke: black; stroke-width: 2" />
    <polyline points="742,1342 742,1318 750,1318" style="stroke: black; stroke-width: 2" />
    <polygon class="collapsed" id="collapsed355" points="750,1318 839,1333 839,1304 750,1318 " style="fill: white; stroke: black; stroke-width: 2" />
    <text class="collapsed_text" id="collapsed_text355" style="font-style: italic;" transform="rotate()" x="845" y="1322">Beccariana</text>
    <polyline points="797,1431 797,1447 818,1447" style="stroke: black; stroke-width: 2" />
    <polygon class="collapsed" id="collapsed430" points="818,1447 843,1462 843,1433 818,1447 " style="fill: white; stroke: black; stroke-width: 2" />
    <text class="collapsed_text" id="collapsed_text430" style="font-style: italic;" transform="rotate()" x="849" y="1451">Intervallatae</text>
    <polyline points="797,1431 797,1415 810,1415" style="stroke: black; stroke-width: 2" />
    <polygon class="collapsed" id="collapsed419" points="810,1415 839,1429 839,1401 810,1415 " style="fill: white; stroke: black; stroke-width: 2" />
    <text class="collapsed_text" id="collapsed_text419" style="font-style: italic;" transform="rotate()" x="845" y="1419">Hymenobractea</text>
    <polyline points="784,1455 784,1479 814,1479" style="stroke: black; stroke-width: 2" />
    <polygon class="collapsed" id="collapsed437" points="814,1479 843,1494 843,1465 814,1479 " style="fill: white; stroke: black; stroke-width: 2" />
    <text class="collapsed_text" id="collapsed_text437" style="font-style: italic;" transform="rotate()" x="849" y="1483">Lepidorhiza</text>
    <polyline points="784,1455 784,1431 797,1431" style="stroke: black; stroke-width: 2" />
    <polyline points="759,1483 759,1512 801,1512" style="stroke: black; stroke-width: 2" />
    <polygon class="collapsed" id="collapsed458" points="801,1512 801,1526 801,1497 801,1512 " style="fill: white; stroke: black; stroke-width: 2" />
    <text class="collapsed_text" id="collapsed_text458" style="font-style: italic;" transform="rotate()" x="807" y="1516">Leopardinae</text>
    <polyline points="759,1483 759,1455 784,1455" style="stroke: black; stroke-width: 2" />
    <polyline points="738,1413 738,1483 759,1483" style="stroke: black; stroke-width: 2" />
    <polyline points="738,1413 738,1342 742,1342" style="stroke: black; stroke-width: 2" />
    <polyline points="712,1478 712,1544 831,1544" style="stroke: black; stroke-width: 2" />
    <polygon class="collapsed" id="collapsed461" points="831,1544 860,1558 860,1529 831,1544 " style="fill: white; stroke: black; stroke-width: 2" />
    <text class="collapsed_text" id="collapsed_text461" style="font-style: italic;" transform="rotate()" x="866" y="1548">Brachystachyae</text>
    <polyline points="712,1478 712,1413 738,1413" style="stroke: black; stroke-width: 2" />
    <polyline points="670,1343 670,1478 712,1478" style="stroke: black; stroke-width: 2" />
    <polyline points="670,1343 670,1208 700,1208" style="stroke: black; stroke-width: 2" />
    <polyline points="653,1460 653,1576 742,1576" style="stroke: black; stroke-width: 2" />
    <polygon class="collapsed" id="collapsed464" points="742,1576 776,1590 776,1562 742,1576 " style="fill: white; stroke: black; stroke-width: 2" />
    <text class="collapsed_text" id="collapsed_text464" style="font-style: italic;" transform="rotate()" x="782" y="1580">Sunipia</text>
    <polyline points="653,1460 653,1343 670,1343" style="stroke: black; stroke-width: 2" />
    <polyline points="641,856 641,1460 653,1460" style="stroke: black; stroke-width: 2" />
    <polyline points="641,856 641,253 674,253" style="stroke: black; stroke-width: 2" />
    <polyline points="818,1656 818,1673 924,1673" style="stroke: black; stroke-width: 2" />
    <polygon class="collapsed" id="collapsed501" points="924,1673 924,1687 924,1658 924,1673 " style="fill: white; stroke: black; stroke-width: 2" />
    <text class="collapsed_text" id="collapsed_text501" style="font-style: italic;" transform="rotate()" x="930" y="1677">Cirrhopetalum</text>
    <polyline points="818,1656 818,1640 894,1640" style="stroke: black; stroke-width: 2" />
    <polygon class="collapsed" id="collapsed486" points="894,1640 928,1655 928,1626 894,1640 " style="fill: white; stroke: black; stroke-width: 2" />
    <text class="collapsed_text" id="collapsed_text486" style="font-style: italic;" transform="rotate()" x="934" y="1644">Recurvae</text>
    <polyline points="788,1632 788,1656 818,1656" style="stroke: black; stroke-width: 2" />
    <polyline points="788,1632 788,1608 856,1608" style="stroke: black; stroke-width: 2" />
    <polygon class="collapsed" id="collapsed473" points="856,1608 890,1623 890,1594 856,1608 " style="fill: white; stroke: black; stroke-width: 2" />
    <text class="collapsed_text" id="collapsed_text473" style="font-style: italic;" transform="rotate()" x="896" y="1612">Racemosae</text>
    <polyline points="725,1669 725,1705 780,1705" style="stroke: black; stroke-width: 2" />
    <polygon class="collapsed" id="collapsed504" points="780,1705 852,1719 852,1690 780,1705 " style="fill: white; stroke: black; stroke-width: 2" />
    <text class="collapsed_text" id="collapsed_text504" style="font-style: italic;" transform="rotate()" x="858" y="1709">Trias</text>
    <polyline points="725,1669 725,1632 788,1632" style="stroke: black; stroke-width: 2" />
    <polyline points="704,1703 704,1737 759,1737" style="stroke: black; stroke-width: 2" />
    <polygon class="collapsed" id="collapsed507" points="759,1737 911,1751 911,1723 759,1737 " style="fill: white; stroke: black; stroke-width: 2" />
    <text class="collapsed_text" id="collapsed_text507" style="font-style: italic;" transform="rotate()" x="917" y="1741">Lemniscatae</text>
    <polyline points="704,1703 704,1669 725,1669" style="stroke: black; stroke-width: 2" />
    <polyline points="674,1736 674,1769 734,1769" style="stroke: black; stroke-width: 2" />
    <polygon class="collapsed" id="collapsed516" points="734,1769 734,1784 734,1755 734,1769 " style="fill: white; stroke: black; stroke-width: 2" />
    <text class="collapsed_text" id="collapsed_text516" style="font-style: italic;" transform="rotate()" x="740" y="1773">Reptantia</text>
    <polyline points="674,1736 674,1703 704,1703" style="stroke: black; stroke-width: 2" />
    <polyline points="696,1817 696,1834 721,1834" style="stroke: black; stroke-width: 2" />
    <polygon class="collapsed" id="collapsed559" points="721,1834 810,1848 810,1819 721,1834 " style="fill: white; stroke: black; stroke-width: 2" />
    <text class="collapsed_text" id="collapsed_text559" style="font-style: italic;" transform="rotate()" x="816" y="1838">Hirtula</text>
    <polyline points="696,1817 696,1801 734,1801" style="stroke: black; stroke-width: 2" />
    <polygon class="collapsed" id="collapsed518" points="734,1801 924,1816 924,1787 734,1801 " style="fill: white; stroke: black; stroke-width: 2" />
    <text class="collapsed_text" id="collapsed_text518" style="font-style: italic;" transform="rotate()" x="930" y="1805">Stachysanthes</text>
    <polyline points="658,1777 658,1817 696,1817" style="stroke: black; stroke-width: 2" />
    <polyline points="658,1777 658,1736 674,1736" style="stroke: black; stroke-width: 2" />
    <polyline points="624,1821 624,1866 734,1866" style="stroke: black; stroke-width: 2" />
    <polygon class="collapsed" id="collapsed572" points="734,1866 1097,1880 1097,1851 734,1866 " style="fill: white; stroke: black; stroke-width: 2" />
    <text class="collapsed_text" id="collapsed_text572" style="font-style: italic;" transform="rotate()" x="1103" y="1870">Drymoda</text>
    <polyline points="624,1821 624,1777 658,1777" style="stroke: black; stroke-width: 2" />
    <polyline points="598,1339 598,1821 624,1821" style="stroke: black; stroke-width: 2" />
    <polyline points="598,1339 598,856 641,856" style="stroke: black; stroke-width: 2" />
    <polyline points="586,1618 586,1898 649,1898" style="stroke: black; stroke-width: 2" />
    <polygon class="collapsed" id="collapsed575" points="649,1898 649,1912 649,1884 649,1898 " style="fill: white; stroke: black; stroke-width: 2" />
    <text class="collapsed_text" id="collapsed_text575" style="font-style: italic;" transform="rotate()" x="655" y="1902">Rhinanthera</text>
    <polyline points="586,1618 586,1339 598,1339" style="stroke: black; stroke-width: 2" />
    <polyline points="560,1774 560,1930 683,1930" style="stroke: black; stroke-width: 2" />
    <polygon class="collapsed" id="collapsed576" points="683,1930 856,1945 856,1916 683,1930 " style="fill: white; stroke: black; stroke-width: 2" />
    <text class="collapsed_text" id="collapsed_text576" style="font-style: italic;" transform="rotate()" x="862" y="1934">Macrocaulia</text>
    <polyline points="560,1774 560,1618 586,1618" style="stroke: black; stroke-width: 2" />
    <polyline points="366,951 366,1774 560,1774" style="stroke: black; stroke-width: 2" />
    <polyline points="366,951 366,127 518,127" style="stroke: black; stroke-width: 2" />
    <polygon class="collapsed" id="collapsed9" points="518,127 1016,141 1016,112 518,127 " style="fill: white; stroke: black; stroke-width: 2" />
    <text class="collapsed_text" id="collapsed_text9" style="" transform="rotate()" x="1022" y="131">OUTGROUP</text>
    <polyline points="50,369 50,951 366,951" style="stroke: black; stroke-width: 2" />
    <polyline points="50,369 50,95 278,95" style="stroke: black; stroke-width: 2" />
    <polygon class="collapsed" id="collapsed7" points="278,95 278,109 278,80 278,95 " style="fill: white; stroke: black; stroke-width: 2" />
    <text class="collapsed_text" id="collapsed_text7" style="" transform="rotate()" x="284" y="99">OUTGROUP</text>
    <polyline points="50,369 50,62 197,62" style="stroke: black; stroke-width: 2" />
    <polygon class="collapsed" id="collapsed6" points="197,62 197,77 197,48 197,62 " style="fill: white; stroke: black; stroke-width: 2" />
    <text class="collapsed_text" id="collapsed_text6" style="" transform="rotate()" x="203" y="66">OUTGROUP</text>
</svg>