<svg height="1200" width="1200" xmlns="http://www.w3.org/2000/svg" xmlns:svg="http://www.w3.org/2000/svg" xmlns:xlink="http://www.w3.org/1999/xlink">
    <style type="text/css"><![CDATA[
	polyline { fill: none; stroke: black; stroke-width: 1 }
	path { fill: none; stroke: black; stroke-width: 1 }
	line { fill: none; stroke: black; stroke-width: 1 }
	circle.node_circle  {}
	circle.taxon_circle {}
	text.node_text      {}
	text.taxon_text     {}
	line.scale_bar      {}
	text.scale_label    {}
	line.scale_major    {}
	line.scale_minor    {}
]]></style>
    <polyline points="397,93 397,107 450,107" style="stroke: rgb(0,0,255); stroke-width: 2" />
    <text class="taxon_text" style="font-family: Verdana; font-size: 12; font-style: Italic" transform="rotate( 450.909567708 107.894736842105)" x="456" y="111">Oncidium Gower AGL6-A/E</text>
    <polyline points="397,93 397,78 427,78" style="stroke: rgb(0,0,255); stroke-width: 2" />
    <text class="taxon_text" style="font-family: Verdana; font-size: 12; font-style: Italic; fill: blue" transform="rotate( 427.364107989567 78.9473684210526)" x="433" y="82">Erycina pusilla AGL6-A/E</text>
    <polyline points="306,71 306,93 397,93" style="stroke: rgb(0,0,255); stroke-width: 2" />
    <text class="node_text" style="font-family: Verdana; font-size: 12" transform="rotate( 397.746227366229 93.4210526315789)" x="403" y="97">0.96</text>
    <circle cx="397" cy="93" r="5" style="fill: green; stroke: black; stroke-width: 1" />
    <polyline points="306,71 306,50 535,50" style="stroke: rgb(70,0,185); stroke-width: 2" />
    <text class="taxon_text" style="font-family: Verdana; font-size: 12; font-style: Italic; fill: blue" transform="rotate( 535.409013070148 50)" x="541" y="54">Erycina pusilla AGL6-A/E</text>
    <polyline points="337,151 337,165 355,165" style="stroke: rgb(0,0,255); stroke-width: 2" />
    <text class="taxon_text" style="font-family: Verdana; font-size: 12; font-style: Italic" transform="rotate( 355.300451369715 165.789473684211)" x="361" y="169">Oncidium Gower-Ramsey AGL6-A/E</text>
    <polyline points="337,151 337,136 407,136" style="stroke: rgb(0,0,255); stroke-width: 2" />
    <text class="taxon_text" style="font-family: Verdana; font-size: 12; font-style: Italic; fill: blue" transform="rotate( 407.334274782438 136.842105263158)" x="413" y="140">Erycina pusilla AGL6-A/E</text>
    <polyline points="340,267 340,281 342,281" style="stroke: rgb(255,0,0); stroke-width: 2" />
    <text class="taxon_text" style="font-family: Verdana; font-size: 12; font-style: Italic" transform="rotate( 342.847263605424 281.578947368421)" x="348" y="285">Cymbidium faberi AGL6-A/E</text>
    <polyline points="340,267 340,252 344,252" style="stroke: rgb(0,0,255); stroke-width: 2" />
    <text class="taxon_text" style="font-family: Verdana; font-size: 12; font-style: Italic" transform="rotate( 344.968403116705 252.631578947368)" x="350" y="256">Cymbidium ensifolium AGL6-A/E</text>
    <polyline points="338,245 338,267 340,267" style="stroke: rgb(232,0,23); stroke-width: 2" />
    <text class="node_text" style="font-family: Verdana; font-size: 12" transform="rotate( 340.719026590998 267.105263157895)" x="346" y="271">0.78</text>
    <circle cx="340" cy="267" r="5" style="fill: green; stroke: black; stroke-width: 1" />
    <polyline points="338,245 338,223 338,223" style="stroke: rgb(0,0,255); stroke-width: 2" />
    <text class="taxon_text" style="font-family: Verdana; font-size: 12; font-style: Italic" transform="rotate( 338.623245444525 223.684210526316)" x="344" y="227">Cymbidium goeringii AGL6-A/E</text>
    <polyline points="335,220 335,245 338,245" style="stroke: rgb(0,0,255); stroke-width: 2" />
    <text class="node_text" style="font-family: Verdana; font-size: 12" transform="rotate( 338.623245444525 245.394736842105)" x="344" y="249">0.28</text>
    <circle cx="338" cy="245" r="5" style="fill: red; stroke: black; stroke-width: 1" />
    <polyline points="335,220 335,194 337,194" style="stroke: rgb(0,0,255); stroke-width: 2" />
    <text class="taxon_text" style="font-family: Verdana; font-size: 12; font-style: Italic" transform="rotate( 337.50117075449 194.736842105263)" x="343" y="198">Cymbidium goeringii AGL6-A/E</text>
    <polyline points="293,185 293,220 335,220" style="stroke: rgb(0,0,255); stroke-width: 2" />
    <text class="node_text" style="font-family: Verdana; font-size: 12" transform="rotate( 335.907274333967 220.065789473684)" x="341" y="224">0.88</text>
    <circle cx="335" cy="220" r="5" style="fill: red; stroke: black; stroke-width: 1" />
    <polyline points="293,185 293,151 337,151" style="stroke: rgb(0,0,255); stroke-width: 2" />
    <text class="node_text" style="font-family: Verdana; font-size: 12" transform="rotate( 337.171400479801 151.315789473684)" x="343" y="155">0.90</text>
    <circle cx="337" cy="151" r="5" style="fill: green; stroke: black; stroke-width: 1" />
    <polyline points="153,128 153,185 293,185" style="stroke: rgb(121,0,134); stroke-width: 2" />
    <text class="node_text" style="font-family: Verdana; font-size: 12" transform="rotate( 293.213217538157 185.690789473684)" x="299" y="189">0.97</text>
    <circle cx="293" cy="185" r="5" style="fill: green; stroke: black; stroke-width: 1" />
    <polyline points="153,128 153,71 306,71" style="stroke: rgb(43,0,212); stroke-width: 2" />
    <text class="node_text" style="font-family: Verdana; font-size: 12" transform="rotate( 306.894760032431 71.7105263157895)" x="312" y="75">0.98</text>
    <circle cx="306" cy="71" r="5" style="fill: red; stroke: black; stroke-width: 1" />
    <polyline points="687,353 687,368 778,368" style="stroke: rgb(0,0,255); stroke-width: 2" />
    <text class="taxon_text" style="font-family: Verdana; font-size: 12; font-style: Italic" transform="rotate( 778.929790767795 368.421052631579)" x="784" y="372">Phalaenopsis amabilis AP1-A</text>
    <polyline points="687,353 687,339 789,339" style="stroke: rgb(96,0,159); stroke-width: 2" />
    <text class="taxon_text" style="font-family: Verdana; font-size: 12; font-style: Italic" transform="rotate( 789.377315396972 339.473684210526)" x="795" y="343">Cymbidium faberi AP1-A</text>
    <polyline points="617,332 617,353 687,353" style="stroke: rgb(0,0,255); stroke-width: 2" />
    <text class="node_text" style="font-family: Verdana; font-size: 12" transform="rotate( 687.20267405315 353.947368421053)" x="693" y="357">0.96</text>
    <circle cx="687" cy="353" r="5" style="fill: green; stroke: black; stroke-width: 1" />
    <polyline points="617,332 617,310 795,310" style="stroke: rgb(3,0,252); stroke-width: 2" />
    <text class="taxon_text" style="font-family: Verdana; font-size: 12; font-style: Italic; fill: blue" transform="rotate( 795.048311663295 310.526315789474)" x="801" y="314">Erycina pusilla AP1-A</text>
    <polyline points="819,411 819,426 1000,426" style="stroke: rgb(0,0,255); stroke-width: 2" />
    <text class="taxon_text" style="font-family: Verdana; font-size: 12; font-style: Italic; fill: blue" transform="rotate( 1000 426.315789473684)" x="1006" y="430">Erycina pusilla AP1-A</text>
    <polyline points="819,411 819,397 879,397" style="stroke: rgb(0,0,255); stroke-width: 2" />
    <text class="taxon_text" style="font-family: Verdana; font-size: 12; font-style: Italic" transform="rotate( 879.915316434733 397.368421052632)" x="885" y="401">Cymbidium faberi AP1-A</text>
    <polyline points="857,498 857,513 872,513" style="stroke: rgb(23,0,232); stroke-width: 2" />
    <text class="taxon_text" style="font-family: Verdana; font-size: 12; font-style: Italic" transform="rotate( 872.852144926553 513.157894736842)" x="878" y="517">Oncidium Gower-Ramsey AP1-A</text>
    <polyline points="857,498 857,484 914,484" style="stroke: rgb(0,0,255); stroke-width: 2" />
    <text class="taxon_text" style="font-family: Verdana; font-size: 12; font-style: Italic; fill: blue" transform="rotate( 914.151501797245 484.210526315789)" x="920" y="488">Erycina pusilla AP1-A</text>
    <polyline points="808,476 808,498 857,498" style="stroke: rgb(48,0,207); stroke-width: 2" />
    <text class="node_text" style="font-family: Verdana; font-size: 12" transform="rotate( 857.871343645877 498.684210526316)" x="863" y="502">1.00</text>
    <circle cx="857" cy="498" r="5" style="fill: green; stroke: black; stroke-width: 1" />
    <polyline points="808,476 808,455 833,455" style="stroke: rgb(0,0,255); stroke-width: 2" />
    <text class="taxon_text" style="font-family: Verdana; font-size: 12; font-style: Italic" transform="rotate( 833.605183179539 455.263157894737)" x="839" y="459">Cymbidium ensifolium AP1-A</text>
    <polyline points="862,585 862,600 869,600" style="stroke: rgb(-29,0,284); stroke-width: 2" />
    <text class="taxon_text" style="font-family: Verdana; font-size: 12; font-style: Italic" transform="rotate( 869.476146580687 600)" x="875" y="604">Sedirea japonica AP1-A</text>
    <polyline points="862,585 862,571 887,571" style="stroke: rgb(0,0,255); stroke-width: 2" />
    <text class="taxon_text" style="font-family: Verdana; font-size: 12; font-style: Italic" transform="rotate( 887.306088409498 571.052631578947)" x="893" y="575">Phalaenopsis amabilis AP1-A</text>
    <polyline points="799,563 799,585 862,585" style="stroke: rgb(0,0,255); stroke-width: 2" />
    <circle cx="862" cy="585" r="5" style="fill: green; stroke: black; stroke-width: 1" />
    <polyline points="799,563 799,542 838,542" style="stroke: rgb(0,0,255); stroke-width: 2" />
    <text class="taxon_text" style="font-family: Verdana; font-size: 12; font-style: Italic" transform="rotate( 838.673500035965 542.105263157895)" x="844" y="546">Dendrobium thyrsiflorum AP1-A</text>
    <polyline points="797,520 797,563 799,563" style="stroke: rgb(112,0,143); stroke-width: 2" />
    <text class="node_text" style="font-family: Verdana; font-size: 12" transform="rotate( 799.616954159036 563.815789473684)" x="805" y="567">1.00</text>
    <circle cx="799" cy="563" r="5" style="fill: green; stroke: black; stroke-width: 1" />
    <polyline points="797,520 797,476 808,476" style="stroke: rgb(0,0,255); stroke-width: 2" />
    <text class="node_text" style="font-family: Verdana; font-size: 12" transform="rotate( 808.582428877962 476.973684210526)" x="814" y="480">0.80</text>
    <circle cx="808" cy="476" r="5" style="fill: green; stroke: black; stroke-width: 1" />
    <polyline points="697,466 697,520 797,520" style="stroke: rgb(0,0,255); stroke-width: 2" />
    <text class="node_text" style="font-family: Verdana; font-size: 12" transform="rotate( 797.023891524366 520.394736842105)" x="803" y="524">0.00</text>
    <circle cx="797" cy="520" r="5" style="fill: red; stroke: black; stroke-width: 1" />
    <polyline points="697,466 697,411 819,411" style="stroke: rgb(180,0,75); stroke-width: 2" />
    <text class="node_text" style="font-family: Verdana; font-size: 12" transform="rotate( 819.461826434211 411.842105263158)" x="825" y="415">0.99</text>
    <circle cx="819" cy="411" r="5" style="fill: green; stroke: black; stroke-width: 1" />
    <polyline points="539,399 539,466 697,466" style="stroke: rgb(0,0,255); stroke-width: 2" />
    <text class="node_text" style="font-family: Verdana; font-size: 12" transform="rotate( 697.410384190353 466.118421052632)" x="703" y="470">0.98</text>
    <circle cx="697" cy="466" r="5" style="fill: red; stroke: black; stroke-width: 1" />
    <polyline points="539,399 539,332 617,332" style="stroke: rgb(180,0,75); stroke-width: 2" />
    <text class="node_text" style="font-family: Verdana; font-size: 12" transform="rotate( 617.736460241338 332.236842105263)" x="623" y="336">0.81</text>
    <circle cx="617" cy="332" r="5" style="fill: red; stroke: black; stroke-width: 1" />
    <polyline points="547,643 547,657 626,657" style="stroke: rgb(0,0,255); stroke-width: 2" />
    <text class="taxon_text" style="font-family: Verdana; font-size: 12; font-style: Italic" transform="rotate( 626.432260258631 657.894736842105)" x="632" y="661">Phalaenopsis equestris SEP-E</text>
    <polyline points="547,643 547,628 597,628" style="stroke: rgb(0,0,255); stroke-width: 2" />
    <text class="taxon_text" style="font-family: Verdana; font-size: 12; font-style: Italic" transform="rotate( 597.97228657692 628.947368421053)" x="603" y="632">Oncidium Gower-Ramsey SEP-E</text>
    <polyline points="609,730 609,744 656,744" style="stroke: rgb(0,0,255); stroke-width: 2" />
    <text class="taxon_text" style="font-family: Verdana; font-size: 12; font-style: Italic" transform="rotate( 656.293564961256 744.736842105263)" x="662" y="748">Phalaenopsis equestris SEP-E</text>
    <polyline points="609,730 609,715 752,715" style="stroke: rgb(0,0,255); stroke-width: 2" />
    <text class="taxon_text" style="font-family: Verdana; font-size: 12; font-style: Italic; fill: blue" transform="rotate( 752.425189341772 715.789473684211)" x="758" y="719">Erycina pusilla SEP-E</text>
    <polyline points="518,708 518,730 609,730" style="stroke: rgb(79,0,176); stroke-width: 2" />
    <text class="node_text" style="font-family: Verdana; font-size: 12" transform="rotate( 609.567659971837 730.263157894737)" x="615" y="734">1.00</text>
    <circle cx="609" cy="730" r="5" style="fill: green; stroke: black; stroke-width: 1" />
    <polyline points="518,708 518,686 625,686" style="stroke: rgb(9,0,246); stroke-width: 2" />
    <text class="taxon_text" style="font-family: Verdana; font-size: 12; font-style: Italic" transform="rotate( 625.930294418359 686.842105263158)" x="631" y="690">Paphiopedilum concolor SEP-E</text>
    <polyline points="493,675 493,708 518,708" style="stroke: rgb(0,0,255); stroke-width: 2" />
    <text class="node_text" style="font-family: Verdana; font-size: 12" transform="rotate( 518.236837414929 708.552631578947)" x="524" y="712">0.61</text>
    <circle cx="518" cy="708" r="5" style="fill: green; stroke: black; stroke-width: 1" />
    <polyline points="493,675 493,643 547,643" style="stroke: rgb(0,0,255); stroke-width: 2" />
    <text class="node_text" style="font-family: Verdana; font-size: 12" transform="rotate( 547.815245781491 643.421052631579)" x="553" y="647">0.93</text>
    <circle cx="547" cy="643" r="5" style="fill: green; stroke: black; stroke-width: 1" />
    <polyline points="650,846 650,860 650,860" style="stroke: rgb(108,0,147); stroke-width: 2" />
    <text class="taxon_text" style="font-family: Verdana; font-size: 12; font-style: Italic" transform="rotate( 650.532329012091 860.526315789474)" x="656" y="864">Cymbidium goeringii SEP-E</text>
    <polyline points="650,846 650,831 654,831" style="stroke: rgb(0,0,255); stroke-width: 2" />
    <text class="taxon_text" style="font-family: Verdana; font-size: 12; font-style: Italic" transform="rotate( 654.503757175356 831.578947368421)" x="660" y="835">Cymbidium ensifolium SEP-E</text>
    <polyline points="646,903 646,918 660,918" style="stroke: rgb(0,0,255); stroke-width: 2" />
    <text class="taxon_text" style="font-family: Verdana; font-size: 12; font-style: Italic" transform="rotate( 660.166094487843 918.421052631579)" x="666" y="922">Oncidium Gower SEP-E</text>
    <polyline points="646,903 646,889 702,889" style="stroke: rgb(108,0,147); stroke-width: 2" />
    <text class="taxon_text" style="font-family: Verdana; font-size: 12; font-style: Italic; fill: blue" transform="rotate( 702.955927018947 889.473684210526)" x="708" y="893">Erycina pusilla SEP-E</text>
    <polyline points="612,875 612,903 646,903" style="stroke: rgb(0,0,255); stroke-width: 2" />
    <text class="node_text" style="font-family: Verdana; font-size: 12" transform="rotate( 646.340158361731 903.947368421053)" x="652" y="907">0.98</text>
    <circle cx="646" cy="903" r="5" style="fill: green; stroke: black; stroke-width: 1" />
    <polyline points="612,875 612,846 650,846" style="stroke: rgb(0,0,255); stroke-width: 2" />
    <text class="node_text" style="font-family: Verdana; font-size: 12" transform="rotate( 650.532197201318 846.052631578947)" x="656" y="850">0.99</text>
    <circle cx="650" cy="846" r="5" style="fill: green; stroke: black; stroke-width: 1" />
    <polyline points="574,838 574,875 612,875" style="stroke: rgb(72,0,183); stroke-width: 2" />
    <text class="node_text" style="font-family: Verdana; font-size: 12" transform="rotate( 612.086026455553 875)" x="618" y="879">0.98</text>
    <circle cx="612" cy="875" r="5" style="fill: green; stroke: black; stroke-width: 1" />
    <polyline points="574,838 574,802 610,802" style="stroke: rgb(62,0,193); stroke-width: 2" />
    <text class="taxon_text" style="font-family: Verdana; font-size: 12; font-style: Italic" transform="rotate( 610.901007051914 802.631578947368)" x="616" y="806">Phalaenopsis equestris SEP-E</text>
    <polyline points="683,1019 683,1034 700,1034" style="stroke: rgb(-36,0,291); stroke-width: 2" />
    <text class="taxon_text" style="font-family: Verdana; font-size: 12; font-style: Italic" transform="rotate( 700.915770018549 1034.21052631579)" x="706" y="1038">Gongora galeata SEP-E</text>
    <polyline points="683,1019 683,1005 825,1005" style="stroke: rgb(37,0,218); stroke-width: 2" />
    <text class="taxon_text" style="font-family: Verdana; font-size: 12; font-style: Italic; fill: blue" transform="rotate( 825.052113950488 1005.26315789474)" x="831" y="1009">Erycina pusilla SEP-E</text>
    <polyline points="683,1106 683,1121 692,1121" style="stroke: rgb(0,0,255); stroke-width: 2" />
    <text class="taxon_text" style="font-family: Verdana; font-size: 12; font-style: Italic" transform="rotate( 692.327902745508 1121.05263157895)" x="698" y="1125">Cleisostoma racemiferum SEP-E</text>
    <polyline points="683,1106 683,1092 711,1092" style="stroke: rgb(54,0,201); stroke-width: 2" />
    <text class="taxon_text" style="font-family: Verdana; font-size: 12; font-style: Italic" transform="rotate( 711.797367800772 1092.10526315789)" x="717" y="1096">Aranda deborah SEP-E</text>
    <polyline points="678,1084 678,1106 683,1106" style="stroke: rgb(246,0,9); stroke-width: 2" />
    <text class="node_text" style="font-family: Verdana; font-size: 12" transform="rotate( 683.422564156799 1106.57894736842)" x="689" y="1110">0.80</text>
    <circle cx="683" cy="1106" r="5" style="fill: green; stroke: black; stroke-width: 1" />
    <polyline points="678,1084 678,1063 715,1063" style="stroke: rgb(0,0,255); stroke-width: 2" />
    <text class="taxon_text" style="font-family: Verdana; font-size: 12; font-style: Italic" transform="rotate( 715.367928986418 1063.15789473684)" x="721" y="1067">Phalaenopsis equestris SEP-E</text>
    <polyline points="646,1052 646,1084 678,1084" style="stroke: rgb(0,0,255); stroke-width: 2" />
    <text class="node_text" style="font-family: Verdana; font-size: 12" transform="rotate( 678.424411188604 1084.86842105263)" x="684" y="1088">0.98</text>
    <circle cx="678" cy="1084" r="5" style="fill: green; stroke: black; stroke-width: 1" />
    <polyline points="646,1052 646,1019 683,1019" style="stroke: rgb(0,0,255); stroke-width: 2" />
    <text class="node_text" style="font-family: Verdana; font-size: 12" transform="rotate( 683.738798479062 1019.73684210526)" x="689" y="1023">0.97</text>
    <circle cx="683" cy="1019" r="5" style="fill: green; stroke: black; stroke-width: 1" />
    <polyline points="610,1014 610,1052 646,1052" style="stroke: rgb(0,0,255); stroke-width: 2" />
    <text class="node_text" style="font-family: Verdana; font-size: 12" transform="rotate( 646.816573190682 1052.30263157895)" x="652" y="1056">0.97</text>
    <circle cx="646" cy="1052" r="5" style="fill: green; stroke: black; stroke-width: 1" />
    <polyline points="610,1014 610,976 657,976" style="stroke: rgb(0,0,255); stroke-width: 2" />
    <text class="taxon_text" style="font-family: Verdana; font-size: 12; font-style: Italic" transform="rotate( 657.676401916832 976.315789473684)" x="663" y="980">Dendrobium crumenatum SEP-E</text>
    <polyline points="555,980 555,1014 610,1014" style="stroke: rgb(117,0,138); stroke-width: 2" />
    <text class="node_text" style="font-family: Verdana; font-size: 12" transform="rotate( 610.725404684821 1014.30921052632)" x="616" y="1018">0.99</text>
    <circle cx="610" cy="1014" r="5" style="fill: green; stroke: black; stroke-width: 1" />
    <polyline points="555,980 555,947 624,947" style="stroke: rgb(108,0,147); stroke-width: 2" />
    <text class="taxon_text" style="font-family: Verdana; font-size: 12; font-style: Italic" transform="rotate( 624.893511437544 947.368421052632)" x="630" y="951">Vanilla planifolia SEP-E</text>
    <polyline points="542,909 542,980 555,980" style="stroke: rgb(0,0,255); stroke-width: 2" />
    <text class="node_text" style="font-family: Verdana; font-size: 12" transform="rotate( 555.32479954103 980.838815789474)" x="561" y="984">0.73</text>
    <circle cx="555" cy="980" r="5" style="fill: green; stroke: black; stroke-width: 1" />
    <polyline points="542,909 542,838 574,838" style="stroke: rgb(39,0,216); stroke-width: 2" />
    <text class="node_text" style="font-family: Verdana; font-size: 12" transform="rotate( 574.482704486817 838.815789473684)" x="580" y="842">0.89</text>
    <circle cx="574" cy="838" r="5" style="fill: green; stroke: black; stroke-width: 1" />
    <polyline points="483,841 483,909 542,909" style="stroke: rgb(45,0,210); stroke-width: 2" />
    <text class="node_text" style="font-family: Verdana; font-size: 12" transform="rotate( 542.366675124436 909.827302631579)" x="548" y="913">0.83</text>
    <circle cx="542" cy="909" r="5" style="fill: red; stroke: black; stroke-width: 1" />
    <polyline points="483,841 483,773 665,773" style="stroke: rgb(156,0,99); stroke-width: 2" />
    <text class="taxon_text" style="font-family: Verdana; font-size: 12; font-style: Italic" transform="rotate( 665.416310210581 773.684210526316)" x="671" y="777">Dendrobium nobile SEP-E</text>
    <polyline points="341,758 341,841 483,841" style="stroke: rgb(23,0,232); stroke-width: 2" />
    <text class="node_text" style="font-family: Verdana; font-size: 12" transform="rotate( 483.001354027497 841.755756578947)" x="489" y="845">0.95</text>
    <circle cx="483" cy="841" r="5" style="fill: red; stroke: black; stroke-width: 1" />
    <polyline points="341,758 341,675 493,675" style="stroke: rgb(27,0,228); stroke-width: 2" />
    <text class="node_text" style="font-family: Verdana; font-size: 12" transform="rotate( 493.603847568195 675.986842105263)" x="499" y="679">0.98</text>
    <circle cx="493" cy="675" r="5" style="fill: red; stroke: black; stroke-width: 1" />
    <polyline points="153,579 153,758 341,758" style="stroke: rgb(29,0,226); stroke-width: 2" />
    <text class="node_text" style="font-family: Verdana; font-size: 12" transform="rotate( 341.274730669367 758.871299342105)" x="347" y="762">0.99</text>
    <circle cx="341" cy="758" r="5" style="fill: red; stroke: black; stroke-width: 1" />
    <polyline points="153,579 153,399 539,399" style="stroke: rgb(51,0,204); stroke-width: 2" />
    <text class="node_text" style="font-family: Verdana; font-size: 12" transform="rotate( 539.610349638854 399.177631578947)" x="545" y="403">0.97</text>
    <circle cx="539" cy="399" r="5" style="fill: red; stroke: black; stroke-width: 1" />
    <polyline points="50,353 50,579 153,579" style="stroke: rgb(96,0,159); stroke-width: 2" />
    <text class="node_text" style="font-family: Verdana; font-size: 12" transform="rotate( 153.32262698998 579.024465460526)" x="159" y="583">1.00</text>
    <circle cx="153" cy="579" r="5" style="fill: red; stroke: black; stroke-width: 1" />
    <polyline points="50,353 50,128 153,128" style="stroke: rgb(147,0,108); stroke-width: 2" />
    <text class="node_text" style="font-family: Verdana; font-size: 12" transform="rotate( 153.32262698998 128.700657894737)" x="159" y="132">0.97</text>
    <circle cx="153" cy="128" r="5" style="fill: red; stroke: black; stroke-width: 1" />
    <circle cx="50" cy="353" r="5" style="fill: red; stroke: black; stroke-width: 1" />
</svg>