<svg height="1550" width="1200" xmlns="http://www.w3.org/2000/svg" xmlns:svg="http://www.w3.org/2000/svg" xmlns:xlink="http://www.w3.org/1999/xlink">
    <style type="text/css"><![CDATA[
	polyline { fill: none; stroke: black; stroke-width: 1 }
	path { fill: none; stroke: black; stroke-width: 1 }
	line { fill: none; stroke: black; stroke-width: 1 }
	circle.node_circle  {}
	circle.taxon_circle {}
	text.node_text      {}
	text.taxon_text     {}
	line.scale_bar      {}
	text.scale_label    {}
	line.scale_major    {}
	line.scale_minor    {}
]]></style>
    <polyline points="565,131 565,143 570,143" style="stroke: rgb(0,0,255); stroke-width: 4" />
    <text class="taxon_text" style="font-family: Verdana; font-size: 12; font-style: Italic; fill: #0000FF; font-weight: bold" transform="rotate( 570.830753722748 143.548387096774)" x="576" y="147">Oncidium Gower-Ramsey PI</text>
    <polyline points="565,131 565,120 609,120" style="stroke: rgb(0,0,255); stroke-width: 4" />
    <text class="taxon_text" style="font-family: Verdana; font-size: 12; font-style: Italic; fill: #0000FF; font-weight: bold" transform="rotate( 609.965886198459 120.161290322581)" x="615" y="124">* Erycina pusilla PI</text>
    <polyline points="538,114 538,131 565,131" style="stroke: rgb(0,0,255); stroke-width: 4" />
    <text class="node_text" style="font-family: Verdana; font-size: 12" transform="rotate( 565.261144837952 131.854838709677)" x="571" y="135">1.00</text>
    <circle cx="565" cy="131" r="5" style="fill: green; stroke: black; stroke-width: 1" />
    <polyline points="538,114 538,96 547,96" style="stroke: rgb(0,0,255); stroke-width: 4" />
    <text class="taxon_text" style="font-family: Verdana; font-size: 12; font-style: Italic; fill: #0000FF; font-weight: bold" transform="rotate( 547.131193576935 96.7741935483871)" x="553" y="100">Gongora galeata PI</text>
    <polyline points="557,178 557,190 562,190" style="stroke: rgb(108,0,147); stroke-width: 4" />
    <text class="taxon_text" style="font-family: Verdana; font-size: 12; font-style: Italic" transform="rotate( 562.985885415758 190.322580645161)" x="568" y="194">Sedirea japonica (PI)</text>
    <polyline points="557,178 557,166 567,166" style="stroke: rgb(0,0,255); stroke-width: 4" />
    <text class="taxon_text" style="font-family: Verdana; font-size: 12; font-style: Italic" transform="rotate( 567.01857077573 166.935483870968)" x="573" y="170">Phalaenopsis equestris (PI)</text>
    <polyline points="614,295 614,307 631,307" style="stroke: rgb(0,0,255); stroke-width: 4" />
    <text class="taxon_text" style="font-family: Verdana; font-size: 12; font-style: Italic" transform="rotate( 631.241372743224 307.258064516129)" x="637" y="311">Orchis italica (PI)</text>
    <polyline points="614,295 614,283 625,283" style="stroke: rgb(0,0,255); stroke-width: 4" />
    <text class="taxon_text" style="font-family: Verdana; font-size: 12; font-style: Italic" transform="rotate( 625.53213721571 283.870967741935)" x="631" y="287">Habenaria radiata (PI)</text>
    <polyline points="593,342 593,354 604,354" style="stroke: rgb(0,0,255); stroke-width: 4" />
    <text class="taxon_text" style="font-family: Verdana; font-size: 12; font-style: Italic" transform="rotate( 604.340767737157 354.032258064516)" x="610" y="358">Phragmipedium longifolium (PI)</text>
    <polyline points="593,342 593,330 602,330" style="stroke: rgb(0,0,255); stroke-width: 4" />
    <text class="taxon_text" style="font-family: Verdana; font-size: 12; font-style: Italic" transform="rotate( 602.836818770023 330.645161290323)" x="608" y="334">Paphiopedilum concolor (PI)</text>
    <polyline points="569,318 569,342 593,342" style="stroke: rgb(0,0,255); stroke-width: 4" />
    <text class="node_text" style="font-family: Verdana; font-size: 12" transform="rotate( 593.978512983132 342.338709677419)" x="599" y="346">1.00</text>
    <circle cx="593" cy="342" r="5" style="fill: green; stroke: black; stroke-width: 1" />
    <polyline points="569,318 569,295 614,295" style="stroke: rgb(0,0,255); stroke-width: 4" />
    <text class="node_text" style="font-family: Verdana; font-size: 12" transform="rotate( 614.138912306414 295.564516129032)" x="620" y="299">1.00</text>
    <circle cx="614" cy="295" r="5" style="fill: green; stroke: black; stroke-width: 1" />
    <polyline points="563,289 563,318 569,318" style="stroke: rgb(114,0,141); stroke-width: 4" />
    <text class="node_text" style="font-family: Verdana; font-size: 12" transform="rotate( 569.567851863691 318.951612903226)" x="575" y="322">0.13</text>
    <circle cx="569" cy="318" r="5" style="fill: green; stroke: black; stroke-width: 1" />
    <polyline points="563,289 563,260 655,260" style="stroke: rgb(0,0,255); stroke-width: 4" />
    <text class="taxon_text" style="font-family: Verdana; font-size: 12; font-style: Italic" transform="rotate( 655.724717000997 260.483870967742)" x="661" y="264">Vanilla planifolia (PI)</text>
    <polyline points="579,412 579,424 597,424" style="stroke: rgb(0,0,255); stroke-width: 4" />
    <text class="taxon_text" style="font-family: Verdana; font-size: 12; font-style: Italic" transform="rotate( 597.581724823065 424.193548387097)" x="603" y="428">Orchis italica (PI)</text>
    <polyline points="579,412 579,400 592,400" style="stroke: rgb(224,0,31); stroke-width: 4" />
    <text class="taxon_text" style="font-family: Verdana; font-size: 12; font-style: Italic" transform="rotate( 592.941586283151 400.806451612903)" x="598" y="404">Habenaria radiata (PI)</text>
    <polyline points="577,394 577,412 579,412" style="stroke: rgb(-35,0,290); stroke-width: 4" />
    <text class="node_text" style="font-family: Verdana; font-size: 12" transform="rotate( 579.769280940997 412.5)" x="585" y="416">0.80</text>
    <circle cx="579" cy="412" r="5" style="fill: green; stroke: black; stroke-width: 1" />
    <polyline points="577,394 577,377 593,377" style="stroke: rgb(0,0,255); stroke-width: 4" />
    <text class="taxon_text" style="font-family: Verdana; font-size: 12; font-style: Italic" transform="rotate( 593.212571713474 377.41935483871)" x="599" y="381">Habenaria petelotii (PI)</text>
    <polyline points="588,482 588,494 599,494" style="stroke: rgb(0,0,255); stroke-width: 4" />
    <text class="taxon_text" style="font-family: Verdana; font-size: 12; font-style: Italic" transform="rotate( 599.857828187845 494.354838709677)" x="605" y="498">Ludisia discolor (PI)</text>
    <polyline points="588,482 588,470 596,470" style="stroke: rgb(-60,0,315); stroke-width: 4" />
    <text class="taxon_text" style="font-family: Verdana; font-size: 12; font-style: Italic" transform="rotate( 596.200743649059 470.967741935484)" x="602" y="474">Anoectochilus formosanus (PI)</text>
    <polyline points="570,465 570,482 588,482" style="stroke: rgb(0,0,255); stroke-width: 4" />
    <text class="node_text" style="font-family: Verdana; font-size: 12" transform="rotate( 588.115794285486 482.661290322581)" x="594" y="486">0.99</text>
    <circle cx="588" cy="482" r="5" style="fill: green; stroke: black; stroke-width: 1" />
    <polyline points="570,465 570,447 610,447" style="stroke: rgb(-92,0,347); stroke-width: 4" />
    <text class="taxon_text" style="font-family: Verdana; font-size: 12; font-style: Italic" transform="rotate( 610.446999421523 447.58064516129)" x="616" y="451">Spiranthes odorata (PI)</text>
    <polyline points="564,430 564,465 570,465" style="stroke: rgb(0,0,255); stroke-width: 4" />
    <text class="node_text" style="font-family: Verdana; font-size: 12" transform="rotate( 570.148998559781 465.120967741935)" x="576" y="469">0.86</text>
    <circle cx="570" cy="465" r="5" style="fill: green; stroke: black; stroke-width: 1" />
    <polyline points="564,430 564,394 577,394" style="stroke: rgb(0,0,255); stroke-width: 4" />
    <text class="node_text" style="font-family: Verdana; font-size: 12" transform="rotate( 577.262159885952 394.959677419355)" x="583" y="398">0.98</text>
    <circle cx="577" cy="394" r="5" style="fill: red; stroke: black; stroke-width: 1" />
    <polyline points="553,359 553,430 564,430" style="stroke: rgb(255,0,0); stroke-width: 4" />
    <text class="node_text" style="font-family: Verdana; font-size: 12" transform="rotate( 564.48868491042 430.040322580645)" x="570" y="434">0.97</text>
    <circle cx="564" cy="430" r="5" style="fill: green; stroke: black; stroke-width: 1" />
    <polyline points="553,359 553,289 563,289" style="stroke: rgb(0,0,255); stroke-width: 4" />
    <text class="node_text" style="font-family: Verdana; font-size: 12" transform="rotate( 563.367102731528 289.717741935484)" x="569" y="293">0.88</text>
    <circle cx="563" cy="289" r="5" style="fill: green; stroke: black; stroke-width: 1" />
    <polyline points="552,298 552,359 553,359" style="stroke: rgb(0,0,255); stroke-width: 4" />
    <text class="node_text" style="font-family: Verdana; font-size: 12" transform="rotate( 553.787263130092 359.879032258065)" x="559" y="363">0.57</text>
    <circle cx="553" cy="359" r="5" style="fill: red; stroke: black; stroke-width: 1" />
    <polyline points="552,298 552,237 568,237" style="stroke: rgb(0,0,255); stroke-width: 4" />
    <text class="taxon_text" style="font-family: Verdana; font-size: 12; font-style: Italic" transform="rotate( 568.593544879218 237.096774193548)" x="574" y="241">Epipactis palustris (PI)</text>
    <polyline points="533,256 533,298 552,298" style="stroke: rgb(0,0,255); stroke-width: 4" />
    <circle cx="552" cy="298" r="5" style="fill: red; stroke: black; stroke-width: 1" />
    <polyline points="533,256 533,213 554,213" style="stroke: rgb(0,0,255); stroke-width: 4" />
    <text class="taxon_text" style="font-family: Verdana; font-size: 12; font-style: Italic" transform="rotate( 554.978023870108 213.709677419355)" x="560" y="217">Dendrobium moniliforme (PI)</text>
    <polyline points="529,217 529,256 533,256" style="stroke: rgb(0,0,255); stroke-width: 4" />
    <text class="node_text" style="font-family: Verdana; font-size: 12" transform="rotate( 533.979928578724 256.098790322581)" x="539" y="260">0.99</text>
    <circle cx="533" cy="256" r="5" style="fill: red; stroke: black; stroke-width: 1" />
    <polyline points="529,217 529,178 557,178" style="stroke: rgb(0,0,255); stroke-width: 4" />
    <text class="node_text" style="font-family: Verdana; font-size: 12" transform="rotate( 557.924290810371 178.629032258065)" x="563" y="182">1.00</text>
    <circle cx="557" cy="178" r="5" style="fill: green; stroke: black; stroke-width: 1" />
    <polyline points="525,165 525,217 529,217" style="stroke: rgb(0,0,255); stroke-width: 4" />
    <text class="node_text" style="font-family: Verdana; font-size: 12" transform="rotate( 529.400111839829 217.363911290323)" x="535" y="221">0.57</text>
    <circle cx="529" cy="217" r="5" style="fill: red; stroke: black; stroke-width: 1" />
    <polyline points="525,165 525,114 538,114" style="stroke: rgb(108,0,147); stroke-width: 4" />
    <text class="node_text" style="font-family: Verdana; font-size: 12" transform="rotate( 538.874158240419 114.314516129032)" x="544" y="118">0.99</text>
    <circle cx="538" cy="114" r="5" style="fill: green; stroke: black; stroke-width: 1" />
    <polyline points="515,119 515,165 525,165" style="stroke: rgb(0,0,255); stroke-width: 4" />
    <text class="node_text" style="font-family: Verdana; font-size: 12" transform="rotate( 525.583958549974 165.839213709677)" x="531" y="169">0.80</text>
    <circle cx="525" cy="165" r="5" style="fill: red; stroke: black; stroke-width: 1" />
    <polyline points="515,119 515,73 516,73" style="stroke: rgb(113,0,142); stroke-width: 4" />
    <text class="taxon_text" style="font-family: Verdana; font-size: 12; font-style: Italic" transform="rotate( 516.053121717403 73.3870967741936)" x="522" y="77">Cymbidium goeringii (PI)</text>
    <polyline points="513,84 513,119 515,119" style="stroke: rgb(0,0,255); stroke-width: 4" />
    <text class="node_text" style="font-family: Verdana; font-size: 12" transform="rotate( 515.180841621014 119.613155241935)" x="521" y="123">0.98</text>
    <circle cx="515" cy="119" r="5" style="fill: red; stroke: black; stroke-width: 1" />
    <polyline points="513,84 513,50 513,50" style="stroke: rgb(0,0,255); stroke-width: 4" />
    <text class="taxon_text" style="font-family: Verdana; font-size: 12; font-style: Italic" transform="rotate( 513.501486555159 50)" x="519" y="54">Cymbidium faberi (PI)</text>
    <polyline points="601,552 601,564 689,564" style="stroke: rgb(11,0,244); stroke-width: 4" />
    <text class="taxon_text" style="font-family: Verdana; font-size: 12; font-style: Italic; fill: #00D773; font-weight: bold" transform="rotate( 689.208539427279 564.516129032258)" x="695" y="568">Spiranthes odorata AP3-B2</text>
    <polyline points="601,552 601,541 656,541" style="stroke: rgb(14,0,241); stroke-width: 4" />
    <text class="taxon_text" style="font-family: Verdana; font-size: 12; font-style: Italic; fill: #00D773; font-weight: bold" transform="rotate( 656.48335182999 541.129032258065)" x="662" y="545">Orchis italica AP3-B2</text>
    <polyline points="667,646 667,658 680,658" style="stroke: rgb(209,0,46); stroke-width: 4" />
    <text class="taxon_text" style="font-family: Verdana; font-size: 12; font-style: Italic; fill: #00D773; font-weight: bold" transform="rotate( 680.839621416522 658.064516129032)" x="686" y="662">Oncidium Gower-Ramsey AP3-B2</text>
    <polyline points="667,646 667,634 718,634" style="stroke: rgb(1,0,254); stroke-width: 4" />
    <text class="taxon_text" style="font-family: Verdana; font-size: 12; font-style: Italic; fill: #00D773; font-weight: bold" transform="rotate( 718.320358505639 634.677419354839)" x="724" y="638">* Erycina pusilla AP3-B2</text>
    <polyline points="636,628 636,646 667,646" style="stroke: rgb(0,0,255); stroke-width: 4" />
    <text class="node_text" style="font-family: Verdana; font-size: 12" transform="rotate( 667.847130459269 646.370967741935)" x="673" y="650">0.99</text>
    <circle cx="667" cy="646" r="5" style="fill: green; stroke: black; stroke-width: 1" />
    <polyline points="636,628 636,611 661,611" style="stroke: rgb(-83,0,338); stroke-width: 4" />
    <text class="taxon_text" style="font-family: Verdana; font-size: 12; font-style: Italic; fill: #00D773; font-weight: bold" transform="rotate( 661.736161258373 611.290322580645)" x="667" y="615">Gongora galeata AP3-B2</text>
    <polyline points="621,608 621,628 636,628" style="stroke: rgb(0,0,255); stroke-width: 4" />
    <text class="node_text" style="font-family: Verdana; font-size: 12" transform="rotate( 636.530718496755 628.83064516129)" x="642" y="632">0.74</text>
    <circle cx="636" cy="628" r="5" style="fill: green; stroke: black; stroke-width: 1" />
    <polyline points="621,608 621,587 669,587" style="stroke: rgb(107,0,148); stroke-width: 4" />
    <text class="taxon_text" style="font-family: Verdana; font-size: 12; font-style: Italic; fill: #00D773; font-weight: bold" transform="rotate( 669.630289432732 587.903225806452)" x="675" y="591">Phalaenopsis equestris AP3-B2</text>
    <polyline points="579,580 579,608 621,608" style="stroke: rgb(0,0,255); stroke-width: 4" />
    <text class="node_text" style="font-family: Verdana; font-size: 12" transform="rotate( 621.39005721492 608.366935483871)" x="627" y="612">0.99</text>
    <circle cx="621" cy="608" r="5" style="fill: green; stroke: black; stroke-width: 1" />
    <polyline points="579,580 579,552 601,552" style="stroke: rgb(0,0,255); stroke-width: 4" />
    <text class="node_text" style="font-family: Verdana; font-size: 12" transform="rotate( 601.599261465144 552.822580645161)" x="607" y="556">0.95</text>
    <circle cx="601" cy="552" r="5" style="fill: green; stroke: black; stroke-width: 1" />
    <polyline points="618,693 618,704 640,704" style="stroke: rgb(0,0,255); stroke-width: 4" />
    <text class="taxon_text" style="font-family: Verdana; font-size: 12; font-style: Italic" transform="rotate( 640.061011739404 704.838709677419)" x="646" y="708">Vanilla planifolia (AP3)</text>
    <polyline points="618,693 618,681 637,681" style="stroke: rgb(0,0,255); stroke-width: 4" />
    <text class="taxon_text" style="font-family: Verdana; font-size: 12; font-style: Italic" transform="rotate( 637.313818901871 681.451612903226)" x="643" y="685">Galeola falconeri (AP3)</text>
    <polyline points="655,810 655,821 671,821" style="stroke: rgb(0,0,255); stroke-width: 4" />
    <text class="taxon_text" style="font-family: Verdana; font-size: 12; font-style: Italic" transform="rotate( 671.320613176066 821.774193548387)" x="677" y="825">Dendrobium moniliforme (AP3)</text>
    <polyline points="655,810 655,798 674,798" style="stroke: rgb(8,0,247); stroke-width: 4" />
    <text class="taxon_text" style="font-family: Verdana; font-size: 12; font-style: Italic" transform="rotate( 674.362000895488 798.387096774194)" x="680" y="802">Dendrobium crumenatum (AP3)</text>
    <polyline points="653,792 653,810 655,810" style="stroke: rgb(0,0,255); stroke-width: 4" />
    <text class="node_text" style="font-family: Verdana; font-size: 12" transform="rotate( 655.735497620452 810.08064516129)" x="661" y="814">0.00</text>
    <circle cx="655" cy="810" r="5" style="fill: green; stroke: black; stroke-width: 1" />
    <polyline points="653,792 653,775 665,775" style="stroke: rgb(90,0,165); stroke-width: 4" />
    <text class="taxon_text" style="font-family: Verdana; font-size: 12; font-style: Italic" transform="rotate( 665.259488110484 775)" x="671" y="779">Dendrobium devonianum (AP3)</text>
    <polyline points="680,903 680,915 686,915" style="stroke: rgb(0,0,255); stroke-width: 4" />
    <text class="taxon_text" style="font-family: Verdana; font-size: 12; font-style: Italic" transform="rotate( 686.320891976494 915.322580645161)" x="692" y="919">Cymbidium goeringii (AP3)</text>
    <polyline points="680,903 680,891 685,891" style="stroke: rgb(-61,0,316); stroke-width: 4" />
    <text class="taxon_text" style="font-family: Verdana; font-size: 12; font-style: Italic" transform="rotate( 685.116805393352 891.935483870968)" x="691" y="895">Cymbidium ensifolium (AP3)</text>
    <polyline points="677,886 677,903 680,903" style="stroke: rgb(254,0,1); stroke-width: 4" />
    <text class="node_text" style="font-family: Verdana; font-size: 12" transform="rotate( 680.270575867876 903.629032258065)" x="686" y="907">0.81</text>
    <circle cx="680" cy="903" r="5" style="fill: green; stroke: black; stroke-width: 1" />
    <polyline points="677,886 677,868 677,868" style="stroke: rgb(129,0,126); stroke-width: 4" />
    <text class="taxon_text" style="font-family: Verdana; font-size: 12; font-style: Italic" transform="rotate( 677.839932086209 868.548387096774)" x="683" y="872">Cymbidium faberi (AP3)</text>
    <polyline points="669,973 669,985 670,985" style="stroke: rgb(235,0,20); stroke-width: 4" />
    <text class="taxon_text" style="font-family: Verdana; font-size: 12; font-style: Italic" transform="rotate( 670.319995585922 985.483870967742)" x="676" y="989">Oncidium Gower-Ramsey (AP3)</text>
    <polyline points="669,973 669,962 681,962" style="stroke: rgb(0,0,255); stroke-width: 4" />
    <text class="taxon_text" style="font-family: Verdana; font-size: 12; font-style: Italic" transform="rotate( 681.386566283103 962.096774193548)" x="687" y="966">Gongora galeata (AP3)</text>
    <polyline points="669,956 669,973 669,973" style="stroke: rgb(222,0,33); stroke-width: 4" />
    <text class="node_text" style="font-family: Verdana; font-size: 12" transform="rotate( 669.04738375008 973.790322580645)" x="675" y="977">0.00</text>
    <circle cx="669" cy="973" r="5" style="fill: green; stroke: black; stroke-width: 1" />
    <polyline points="669,956 669,938 717,938" style="stroke: rgb(0,0,255); stroke-width: 4" />
    <text class="taxon_text" style="font-family: Verdana; font-size: 12; font-style: Italic; fill: #73D700; font-weight: bold" transform="rotate( 717.788896224348 938.709677419355)" x="723" y="942">* Erycina pusilla AP3-B1</text>
    <polyline points="660,921 660,956 669,956" style="stroke: rgb(0,0,255); stroke-width: 4" />
    <text class="node_text" style="font-family: Verdana; font-size: 12" transform="rotate( 669.047347684158 956.25)" x="675" y="960">0.95</text>
    <circle cx="669" cy="956" r="5" style="fill: red; stroke: black; stroke-width: 1" />
    <polyline points="660,921 660,886 677,886" style="stroke: rgb(0,0,255); stroke-width: 4" />
    <text class="node_text" style="font-family: Verdana; font-size: 12" transform="rotate( 677.839932086209 886.088709677419)" x="683" y="890">1.00</text>
    <circle cx="677" cy="886" r="5" style="fill: green; stroke: black; stroke-width: 1" />
    <polyline points="653,883 653,921 660,921" style="stroke: rgb(0,0,255); stroke-width: 4" />
    <text class="node_text" style="font-family: Verdana; font-size: 12" transform="rotate( 660.613782537822 921.16935483871)" x="666" y="925">0.87</text>
    <circle cx="660" cy="921" r="5" style="fill: green; stroke: black; stroke-width: 1" />
    <polyline points="653,883 653,845 690,845" style="stroke: rgb(46,0,209); stroke-width: 4" />
    <text class="taxon_text" style="font-family: Verdana; font-size: 12; font-style: Italic" transform="rotate( 690.902465641041 845.161290322581)" x="696" y="849">Phalaenopsis equestris (AP3)</text>
    <polyline points="645,837 645,883 653,883" style="stroke: rgb(0,0,255); stroke-width: 4" />
    <text class="node_text" style="font-family: Verdana; font-size: 12" transform="rotate( 653.318167831679 883.165322580645)" x="659" y="887">0.83</text>
    <circle cx="653" cy="883" r="5" style="fill: green; stroke: black; stroke-width: 1" />
    <polyline points="645,837 645,792 653,792" style="stroke: rgb(0,0,255); stroke-width: 4" />
    <text class="node_text" style="font-family: Verdana; font-size: 12" transform="rotate( 653.664294035337 792.540322580645)" x="659" y="796">0.92</text>
    <circle cx="653" cy="792" r="5" style="fill: red; stroke: black; stroke-width: 1" />
    <polyline points="623,794 623,837 645,837" style="stroke: rgb(8,0,247); stroke-width: 4" />
    <text class="node_text" style="font-family: Verdana; font-size: 12" transform="rotate( 645.393334676609 837.852822580645)" x="651" y="841">0.96</text>
    <circle cx="645" cy="837" r="5" style="fill: green; stroke: black; stroke-width: 1" />
    <polyline points="623,794 623,751 693,751" style="stroke: rgb(0,0,255); stroke-width: 4" />
    <text class="taxon_text" style="font-family: Verdana; font-size: 12; font-style: Italic" transform="rotate( 693.949596085776 751.612903225806)" x="699" y="755">Orchis italica (AP3)</text>
    <polyline points="835,1137 835,1149 835,1149" style="stroke: rgb(0,0,255); stroke-width: 4" />
    <text class="taxon_text" style="font-family: Verdana; font-size: 12; font-style: Italic; fill: #FF0000; font-weight: bold" transform="rotate( 835.308727216897 1149.1935483871)" x="841" y="1153">Oncidium Gower-Ramsey AP3-A1</text>
    <polyline points="835,1137 835,1125 869,1125" style="stroke: rgb(0,0,255); stroke-width: 4" />
    <text class="taxon_text" style="font-family: Verdana; font-size: 12; font-style: Italic; fill: #FF0000; font-weight: bold" transform="rotate( 869.866063675827 1125.8064516129)" x="875" y="1129">* Erycina pusilla AP3-A1</text>
    <polyline points="809,1119 809,1137 835,1137" style="stroke: rgb(108,0,147); stroke-width: 4" />
    <text class="node_text" style="font-family: Verdana; font-size: 12" transform="rotate( 835.308727216897 1137.5)" x="841" y="1141">1.00</text>
    <circle cx="835" cy="1137" r="5" style="fill: green; stroke: black; stroke-width: 1" />
    <polyline points="809,1119 809,1102 816,1102" style="stroke: rgb(0,0,255); stroke-width: 4" />
    <text class="taxon_text" style="font-family: Verdana; font-size: 12; font-style: Italic; fill: #FF0000; font-weight: bold" transform="rotate( 816.083344146918 1102.41935483871)" x="822" y="1106">Gongora galeata AP3-A1</text>
    <polyline points="839,1207 839,1219 855,1219" style="stroke: rgb(0,0,255); stroke-width: 4" />
    <text class="taxon_text" style="font-family: Verdana; font-size: 12; font-style: Italic" transform="rotate( 855.769304758606 1219.35483870968)" x="861" y="1223">Dendrobium moniliforme (AP3)</text>
    <polyline points="839,1207 839,1195 856,1195" style="stroke: rgb(0,0,255); stroke-width: 4" />
    <text class="taxon_text" style="font-family: Verdana; font-size: 12; font-style: Italic" transform="rotate( 856.287623587293 1195.96774193548)" x="862" y="1199">Dendrobium crumenatum (AP3)</text>
    <polyline points="885,1277 885,1289 906,1289" style="stroke: rgb(0,0,255); stroke-width: 4" />
    <text class="taxon_text" style="font-family: Verdana; font-size: 12; font-style: Italic" transform="rotate( 906.517516400418 1289.51612903226)" x="912" y="1293">Orchis italica (AP3)</text>
    <polyline points="885,1277 885,1266 905,1266" style="stroke: rgb(0,0,255); stroke-width: 4" />
    <text class="taxon_text" style="font-family: Verdana; font-size: 12; font-style: Italic" transform="rotate( 905.14237429926 1266.12903225806)" x="911" y="1270">Habenaria radiata (AP3)</text>
    <polyline points="861,1260 861,1277 885,1277" style="stroke: rgb(0,0,255); stroke-width: 4" />
    <text class="node_text" style="font-family: Verdana; font-size: 12" transform="rotate( 885.3643376424 1277.82258064516)" x="891" y="1281">0.99</text>
    <circle cx="885" cy="1277" r="5" style="fill: green; stroke: black; stroke-width: 1" />
    <polyline points="861,1260 861,1242 912,1242" style="stroke: rgb(0,0,255); stroke-width: 4" />
    <text class="taxon_text" style="font-family: Verdana; font-size: 12; font-style: Italic" transform="rotate( 912.070041888193 1242.74193548387)" x="918" y="1246">Spiranthes odorata (AP3)</text>
    <polyline points="895,1324 895,1336 946,1336" style="stroke: rgb(0,0,255); stroke-width: 4" />
    <text class="taxon_text" style="font-family: Verdana; font-size: 12; font-style: Italic" transform="rotate( 946.142942422145 1336.29032258065)" x="952" y="1340">Vanilla planifolia (AP3)</text>
    <polyline points="895,1324 895,1312 961,1312" style="stroke: rgb(14,0,241); stroke-width: 4" />
    <text class="taxon_text" style="font-family: Verdana; font-size: 12; font-style: Italic" transform="rotate( 961.900143950703 1312.90322580645)" x="967" y="1316">Phragmipedium longifolium (AP3)</text>
    <polyline points="972,1418 972,1429 1000,1429" style="stroke: rgb(0,0,255); stroke-width: 4" />
    <text class="taxon_text" style="font-family: Verdana; font-size: 12; font-style: Italic" transform="rotate( 1000 1429.83870967742)" x="1006" y="1433">Phalaenopsis equestris (AP3)</text>
    <polyline points="972,1418 972,1406 995,1406" style="stroke: rgb(-35,0,290); stroke-width: 4" />
    <text class="taxon_text" style="font-family: Verdana; font-size: 12; font-style: Italic" transform="rotate( 995.612838144863 1406.45161290323)" x="1001" y="1410">Dendrobium moniliforme (AP3)</text>
    <polyline points="925,1464 925,1476 982,1476" style="stroke: rgb(38,0,217); stroke-width: 4" />
    <text class="taxon_text" style="font-family: Verdana; font-size: 12; font-style: Italic" transform="rotate( 982.387621003075 1476.61290322581)" x="988" y="1480">Spiranthes odorata (AP3)</text>
    <polyline points="925,1464 925,1453 966,1453" style="stroke: rgb(0,0,255); stroke-width: 4" />
    <text class="taxon_text" style="font-family: Verdana; font-size: 12; font-style: Italic" transform="rotate( 966.169290894323 1453.22580645161)" x="972" y="1457">Orchis italica (AP3)</text>
    <polyline points="920,1441 920,1464 925,1464" style="stroke: rgb(0,0,255); stroke-width: 4" />
    <text class="node_text" style="font-family: Verdana; font-size: 12" transform="rotate( 925.648196540712 1464.91935483871)" x="931" y="1468">0.10</text>
    <circle cx="925" cy="1464" r="5" style="fill: green; stroke: black; stroke-width: 1" />
    <polyline points="920,1441 920,1418 972,1418" style="stroke: rgb(0,0,255); stroke-width: 4" />
    <text class="node_text" style="font-family: Verdana; font-size: 12" transform="rotate( 972.8830633473 1418.14516129032)" x="978" y="1422">1.00</text>
    <circle cx="972" cy="1418" r="5" style="fill: green; stroke: black; stroke-width: 1" />
    <polyline points="910,1412 910,1441 920,1441" style="stroke: rgb(0,0,255); stroke-width: 4" />
    <text class="node_text" style="font-family: Verdana; font-size: 12" transform="rotate( 920.422706533375 1441.53225806452)" x="926" y="1445">0.20</text>
    <circle cx="920" cy="1441" r="5" style="fill: green; stroke: black; stroke-width: 1" />
    <polyline points="910,1412 910,1383 958,1383" style="stroke: rgb(8,0,247); stroke-width: 4" />
    <text class="taxon_text" style="font-family: Verdana; font-size: 12; font-style: Italic" transform="rotate( 958.367659960877 1383.06451612903)" x="964" y="1387">Phragmipedium longifolium (AP3)</text>
    <polyline points="904,1385 904,1412 910,1412" style="stroke: rgb(0,0,255); stroke-width: 4" />
    <text class="node_text" style="font-family: Verdana; font-size: 12" transform="rotate( 910.155765253579 1412.29838709677)" x="916" y="1416">0.29</text>
    <circle cx="910" cy="1412" r="5" style="fill: green; stroke: black; stroke-width: 1" />
    <polyline points="904,1385 904,1359 943,1359" style="stroke: rgb(0,0,255); stroke-width: 4" />
    <text class="taxon_text" style="font-family: Verdana; font-size: 12; font-style: Italic" transform="rotate( 943.722253350307 1359.67741935484)" x="949" y="1363">Vanilla planifolia (AP3)</text>
    <polyline points="883,1355 883,1385 904,1385" style="stroke: rgb(23,0,232); stroke-width: 4" />
    <text class="node_text" style="font-family: Verdana; font-size: 12" transform="rotate( 904.889559395907 1385.98790322581)" x="910" y="1389">0.96</text>
    <circle cx="904" cy="1385" r="5" style="fill: green; stroke: black; stroke-width: 1" />
    <polyline points="883,1355 883,1324 895,1324" style="stroke: rgb(0,0,255); stroke-width: 4" />
    <text class="node_text" style="font-family: Verdana; font-size: 12" transform="rotate( 895.132332130924 1324.59677419355)" x="901" y="1328">0.22</text>
    <circle cx="895" cy="1324" r="5" style="fill: green; stroke: black; stroke-width: 1" />
    <polyline points="857,1307 857,1355 883,1355" style="stroke: rgb(0,0,255); stroke-width: 4" />
    <text class="node_text" style="font-family: Verdana; font-size: 12" transform="rotate( 883.084900240701 1355.29233870968)" x="889" y="1359">0.92</text>
    <circle cx="883" cy="1355" r="5" style="fill: red; stroke: black; stroke-width: 1" />
    <polyline points="857,1307 857,1260 861,1260" style="stroke: rgb(0,0,255); stroke-width: 4" />
    <text class="node_text" style="font-family: Verdana; font-size: 12" transform="rotate( 861.274796676884 1260.28225806452)" x="867" y="1264">0.53</text>
    <circle cx="861" cy="1260" r="5" style="fill: green; stroke: black; stroke-width: 1" />
    <polyline points="830,1257 830,1307 857,1307" style="stroke: rgb(0,0,255); stroke-width: 4" />
    <text class="node_text" style="font-family: Verdana; font-size: 12" transform="rotate( 857.665721033184 1307.7872983871)" x="863" y="1311">0.98</text>
    <circle cx="857" cy="1307" r="5" style="fill: red; stroke: black; stroke-width: 1" />
    <polyline points="830,1257 830,1207 839,1207" style="stroke: rgb(0,0,255); stroke-width: 4" />
    <text class="node_text" style="font-family: Verdana; font-size: 12" transform="rotate( 839.640624228574 1207.66129032258)" x="845" y="1211">0.86</text>
    <circle cx="839" cy="1207" r="5" style="fill: green; stroke: black; stroke-width: 1" />
    <polyline points="817,1215 817,1257 830,1257" style="stroke: rgb(8,0,247); stroke-width: 4" />
    <text class="node_text" style="font-family: Verdana; font-size: 12" transform="rotate( 830.098638388911 1257.72429435484)" x="836" y="1261">0.85</text>
    <circle cx="830" cy="1257" r="5" style="fill: red; stroke: black; stroke-width: 1" />
    <polyline points="817,1215 817,1172 853,1172" style="stroke: rgb(0,0,255); stroke-width: 4" />
    <text class="taxon_text" style="font-family: Verdana; font-size: 12; font-style: Italic" transform="rotate( 853.48644779223 1172.58064516129)" x="859" y="1176">Phalaenopsis equestris (AP3)</text>
    <polyline points="801,1167 801,1215 817,1215" style="stroke: rgb(0,0,255); stroke-width: 4" />
    <text class="node_text" style="font-family: Verdana; font-size: 12" transform="rotate( 817.728631342405 1215.15246975806)" x="823" y="1219">0.97</text>
    <circle cx="817" cy="1215" r="5" style="fill: red; stroke: black; stroke-width: 1" />
    <polyline points="801,1167 801,1119 809,1119" style="stroke: rgb(0,0,255); stroke-width: 4" />
    <text class="node_text" style="font-family: Verdana; font-size: 12" transform="rotate( 809.099435873708 1119.95967741935)" x="815" y="1123">0.81</text>
    <circle cx="809" cy="1119" r="5" style="fill: green; stroke: black; stroke-width: 1" />
    <polyline points="786,1123 786,1167 801,1167" style="stroke: rgb(0,0,255); stroke-width: 4" />
    <text class="node_text" style="font-family: Verdana; font-size: 12" transform="rotate( 801.439186962948 1167.55607358871)" x="807" y="1171">0.98</text>
    <circle cx="801" cy="1167" r="5" style="fill: red; stroke: black; stroke-width: 1" />
    <polyline points="786,1123 786,1079 787,1079" style="stroke: rgb(0,0,255); stroke-width: 4" />
    <text class="taxon_text" style="font-family: Verdana; font-size: 12; font-style: Italic" transform="rotate( 787.26030130321 1079.03225806452)" x="793" y="1083">Cymbidium faberi (AP3)</text>
    <polyline points="784,1089 784,1123 786,1123" style="stroke: rgb(0,0,255); stroke-width: 4" />
    <text class="node_text" style="font-family: Verdana; font-size: 12" transform="rotate( 786.130922702333 1123.29416582661)" x="792" y="1127">0.76</text>
    <circle cx="786" cy="1123" r="5" style="fill: red; stroke: black; stroke-width: 1" />
    <polyline points="784,1089 784,1055 787,1055" style="stroke: rgb(0,0,255); stroke-width: 4" />
    <text class="taxon_text" style="font-family: Verdana; font-size: 12; font-style: Italic" transform="rotate( 787.266663331934 1055.64516129032)" x="793" y="1059">Cymbidium ensifolium (AP3)</text>
    <polyline points="784,1060 784,1089 784,1089" style="stroke: rgb(0,0,255); stroke-width: 4" />
    <text class="node_text" style="font-family: Verdana; font-size: 12" transform="rotate( 784.897132225442 1089.46966355847)" x="790" y="1093">0.00</text>
    <circle cx="784" cy="1089" r="5" style="fill: red; stroke: black; stroke-width: 1" />
    <polyline points="784,1060 784,1032 786,1032" style="stroke: rgb(204,0,51); stroke-width: 4" />
    <text class="taxon_text" style="font-family: Verdana; font-size: 12; font-style: Italic" transform="rotate( 786.082103354446 1032.25806451613)" x="792" y="1036">Cymbidium goeringii (AP3)</text>
    <polyline points="712,1034 712,1060 784,1060" style="stroke: rgb(174,0,81); stroke-width: 4" />
    <text class="node_text" style="font-family: Verdana; font-size: 12" transform="rotate( 784.897080187468 1060.8638640373)" x="790" y="1064">1.00</text>
    <circle cx="784" cy="1060" r="5" style="fill: red; stroke: black; stroke-width: 1" />
    <polyline points="712,1034 712,1008 713,1008" style="stroke: rgb(76,0,179); stroke-width: 4" />
    <text class="taxon_text" style="font-family: Verdana; font-size: 12; font-style: Italic" transform="rotate( 713.740980225316 1008.87096774194)" x="719" y="1012">Cymbidium ensifolium (AP3)</text>
    <polyline points="619,914 619,1034 712,1034" style="stroke: rgb(108,0,147); stroke-width: 4" />
    <text class="node_text" style="font-family: Verdana; font-size: 12" transform="rotate( 712.550804783699 1034.86741588962)" x="718" y="1038">1.00</text>
    <circle cx="712" cy="1034" r="5" style="fill: red; stroke: black; stroke-width: 1" />
    <polyline points="619,914 619,794 623,794" style="stroke: rgb(155,0,100); stroke-width: 4" />
    <text class="node_text" style="font-family: Verdana; font-size: 12" transform="rotate( 623.634443177022 794.732862903226)" x="629" y="798">0.66</text>
    <circle cx="623" cy="794" r="5" style="fill: green; stroke: black; stroke-width: 1" />
    <polyline points="604,821 604,914 619,914" style="stroke: rgb(0,0,255); stroke-width: 4" />
    <text class="node_text" style="font-family: Verdana; font-size: 12" transform="rotate( 619.953709697642 914.800139396421)" x="625" y="918">0.93</text>
    <circle cx="619" cy="914" r="5" style="fill: red; stroke: black; stroke-width: 1" />
    <polyline points="604,821 604,728 656,728" style="stroke: rgb(108,0,147); stroke-width: 4" />
    <text class="taxon_text" style="font-family: Verdana; font-size: 12; font-style: Italic" transform="rotate( 656.400815996865 728.225806451613)" x="662" y="732">Phragmipedium longifolium (AP3)</text>
    <polyline points="590,757 590,821 604,821" style="stroke: rgb(0,0,255); stroke-width: 4" />
    <text class="node_text" style="font-family: Verdana; font-size: 12" transform="rotate( 604.733290689167 821.512972924017)" x="610" y="825">0.89</text>
    <circle cx="604" cy="821" r="5" style="fill: red; stroke: black; stroke-width: 1" />
    <polyline points="590,757 590,693 618,693" style="stroke: rgb(0,0,255); stroke-width: 4" />
    <text class="node_text" style="font-family: Verdana; font-size: 12" transform="rotate( 618.469889637068 693.145161290323)" x="624" y="697">0.98</text>
    <circle cx="618" cy="693" r="5" style="fill: green; stroke: black; stroke-width: 1" />
    <polyline points="572,668 572,757 590,757" style="stroke: rgb(0,0,255); stroke-width: 4" />
    <text class="node_text" style="font-family: Verdana; font-size: 12" transform="rotate( 590.331559361968 757.32906710717)" x="596" y="761">0.96</text>
    <circle cx="590" cy="757" r="5" style="fill: red; stroke: black; stroke-width: 1" />
    <polyline points="572,668 572,580 579,580" style="stroke: rgb(49,0,206); stroke-width: 4" />
    <text class="node_text" style="font-family: Verdana; font-size: 12" transform="rotate( 579.437497639479 580.594758064516)" x="585" y="584">0.81</text>
    <circle cx="579" cy="580" r="5" style="fill: green; stroke: black; stroke-width: 1" />
    <polyline points="513,593 513,668 572,668" style="stroke: rgb(181,0,74); stroke-width: 4" />
    <text class="node_text" style="font-family: Verdana; font-size: 12" transform="rotate( 572.081452419322 668.961912585843)" x="578" y="672">0.84</text>
    <circle cx="572" cy="668" r="5" style="fill: red; stroke: black; stroke-width: 1" />
    <polyline points="513,593 513,517 570,517" style="stroke: rgb(0,0,255); stroke-width: 4" />
    <text class="taxon_text" style="font-family: Verdana; font-size: 12; font-style: Italic" transform="rotate( 570.733983700478 517.741935483871)" x="576" y="521">Phragmipedium longifolium (AP3)</text>
    <polyline points="50,339 50,593 513,593" style="stroke: rgb(-7,0,262); stroke-width: 4" />
    <text class="node_text" style="font-family: Verdana; font-size: 12" transform="rotate( 513.499425645304 593.351924034857)" x="519" y="597">1.00</text>
    <circle cx="513" cy="593" r="5" style="fill: red; stroke: black; stroke-width: 1" />
    <polyline points="50,339 50,84 513,84" style="stroke: rgb(0,0,255); stroke-width: 4" />
    <text class="node_text" style="font-family: Verdana; font-size: 12" transform="rotate( 513.499425645304 84.8065776209677)" x="519" y="88">0.00</text>
    <circle cx="513" cy="84" r="5" style="fill: red; stroke: black; stroke-width: 1" />
    <circle cx="50" cy="339" r="5" style="fill: red; stroke: black; stroke-width: 1" />
</svg>