<svg height="1200" width="1200" xmlns="http://www.w3.org/2000/svg" xmlns:svg="http://www.w3.org/2000/svg" xmlns:xlink="http://www.w3.org/1999/xlink">
    <style type="text/css"><![CDATA[
	polyline { fill: none; stroke: black; stroke-width: 1 }
	path { fill: none; stroke: black; stroke-width: 1 }
	line { fill: none; stroke: black; stroke-width: 1 }
	circle.node_circle  {}
	circle.taxon_circle {}
	text.node_text      {}
	text.taxon_text     {}
	line.scale_bar      {}
	text.scale_label    {}
	line.scale_major    {}
	line.scale_minor    {}
]]></style>
    <polyline points="481,75 481,83 507,83" style="stroke: rgb(-38,0,293); stroke-width: 2" />
    <text class="taxon_text" style="font-family: Verdana; font-size: 12; font-style: Italic; fill: #00C455" transform="rotate( 507.52482177128 83.8461538461538)" x="513" y="87">Oncidium Gower-Ramsey AP1-A</text>
    <polyline points="481,75 481,66 494,66" style="stroke: rgb(54,0,201); stroke-width: 2" />
    <text class="taxon_text" style="font-family: Verdana; font-size: 12; font-style: Italic; fill: #00C455" transform="rotate( 494.159316013369 66.9230769230769)" x="500" y="70">Cymbidium ensifolium AP1-A</text>
    <polyline points="474,62 474,75 481,75" style="stroke: rgb(0,0,255); stroke-width: 2" />
    <polyline points="474,62 474,50 502,50" style="stroke: rgb(0,0,255); stroke-width: 2" />
    <text class="taxon_text" style="font-family: Verdana; font-size: 12; font-style: Italic; fill: #00C455" transform="rotate( 502.737651023062 50)" x="508" y="54">Sedirea japonica AP1-A</text>
    <polyline points="480,143 480,151 504,151" style="stroke: rgb(9,0,246); stroke-width: 2" />
    <text class="taxon_text" style="font-family: Verdana; font-size: 12; font-style: Italic; fill: #00C455" transform="rotate( 504.817120087605 151.538461538462)" x="510" y="155">Dendrobium grex AP1-A</text>
    <polyline points="480,143 480,134 528,134" style="stroke: rgb(0,0,255); stroke-width: 2" />
    <text class="taxon_text" style="font-family: Verdana; font-size: 12; font-style: Italic; fill: #00C455" transform="rotate( 528.208378257343 134.615384615385)" x="534" y="138">Phalaenopsis amabilis AP1-A</text>
    <polyline points="473,130 473,143 480,143" style="stroke: rgb(0,0,255); stroke-width: 2" />
    <polyline points="473,130 473,117 503,117" style="stroke: rgb(113,0,142); stroke-width: 2" />
    <text class="taxon_text" style="font-family: Verdana; font-size: 12; font-style: Italic; fill: #00C455" transform="rotate( 503.726783231908 117.692307692308)" x="509" y="121">Cymbidium faberi AP1-A</text>
    <polyline points="437,115 437,130 473,130" style="stroke: rgb(0,0,255); stroke-width: 2" />
    <polyline points="437,115 437,100 516,100" style="stroke: rgb(21,0,234); stroke-width: 2" />
    <text class="taxon_text" style="font-family: Verdana; font-size: 12; font-style: Italic; fill: #00C455" transform="rotate( 516.125689136309 100.769230769231)" x="522" y="104">Erycina pusilla AP1-A</text>
    <polyline points="381,89 381,115 437,115" style="stroke: rgb(155,0,100); stroke-width: 2" />
    <polyline points="381,89 381,62 474,62" style="stroke: rgb(255,0,0); stroke-width: 2" />
    <polyline points="451,193 451,202 452,202" style="stroke: rgb(-25,0,280); stroke-width: 2" />
    <text class="taxon_text" style="font-family: Verdana; font-size: 12; font-style: Italic; fill: #B98A00" transform="rotate( 452.951457145912 202.307692307692)" x="458" y="206">Cymbidium ensifolium AGL-AE</text>
    <polyline points="451,193 451,185 452,185" style="stroke: rgb(215,0,40); stroke-width: 2" />
    <text class="taxon_text" style="font-family: Verdana; font-size: 12; font-style: Italic; fill: #B98A00" transform="rotate( 452.008535360723 185.384615384615)" x="458" y="189">Cymbidium faberi AGL-AE</text>
    <polyline points="449,181 449,193 451,193" style="stroke: rgb(0,0,255); stroke-width: 2" />
    <polyline points="449,181 449,168 451,168" style="stroke: rgb(0,0,255); stroke-width: 2" />
    <text class="taxon_text" style="font-family: Verdana; font-size: 12; font-style: Italic; fill: #B98A00" transform="rotate( 451.741202331305 168.461538461538)" x="457" y="172">Cymbidium goeringii AGL-AE</text>
    <polyline points="453,227 453,236 460,236" style="stroke: rgb(0,0,255); stroke-width: 2" />
    <text class="taxon_text" style="font-family: Verdana; font-size: 12; font-style: Italic; fill: #B98A00" transform="rotate( 460.437545778269 236.153846153846)" x="466" y="240">Oncidium Gower-Ramsey AGL-AE</text>
    <polyline points="453,227 453,219 486,219" style="stroke: rgb(0,0,255); stroke-width: 2" />
    <text class="taxon_text" style="font-family: Verdana; font-size: 12; font-style: Italic; fill: #B98A00" transform="rotate( 486.236328830078 219.230769230769)" x="492" y="223">Erycina pusilla AGL-AE</text>
    <polyline points="432,204 432,227 453,227" style="stroke: rgb(0,0,255); stroke-width: 2" />
    <polyline points="432,204 432,181 449,181" style="stroke: rgb(114,0,141); stroke-width: 2" />
    <polyline points="482,312 482,320 505,320" style="stroke: rgb(0,0,255); stroke-width: 2" />
    <text class="taxon_text" style="font-family: Verdana; font-size: 12; font-style: Italic; fill: #800080" transform="rotate( 505.210481545177 320.769230769231)" x="511" y="324">Phalaenopsis equestris SEP-E</text>
    <polyline points="482,312 482,303 544,303" style="stroke: rgb(0,0,255); stroke-width: 2" />
    <text class="taxon_text" style="font-family: Verdana; font-size: 12; font-style: Italic; fill: #800080" transform="rotate( 544.615751985702 303.846153846154)" x="550" y="307">Erycina pusilla SEP-E</text>
    <polyline points="480,299 480,312 482,312" style="stroke: rgb(0,0,255); stroke-width: 2" />
    <polyline points="480,299 480,286 502,286" style="stroke: rgb(0,0,255); stroke-width: 2" />
    <text class="taxon_text" style="font-family: Verdana; font-size: 12; font-style: Italic; fill: #800080" transform="rotate( 502.397374267045 286.923076923077)" x="508" y="290">Dendrobium grex SEP-E</text>
    <polyline points="438,284 438,299 480,299" style="stroke: rgb(81,0,174); stroke-width: 2" />
    <polyline points="438,284 438,270 490,270" style="stroke: rgb(1,0,254); stroke-width: 2" />
    <text class="taxon_text" style="font-family: Verdana; font-size: 12; font-style: Italic; fill: #800080" transform="rotate( 490.015654057392 270)" x="496" y="274">Paphiopedilum concolor SEP-E</text>
    <polyline points="420,268 420,284 438,284" style="stroke: rgb(0,0,255); stroke-width: 2" />
    <polyline points="420,268 420,253 453,253" style="stroke: rgb(47,0,208); stroke-width: 2" />
    <text class="taxon_text" style="font-family: Verdana; font-size: 12; font-style: Italic; fill: #800080" transform="rotate( 453.383390940586 253.076923076923)" x="459" y="257">Oncidium Gower-Ramsey SEP-E</text>
    <polyline points="463,380 463,388 463,388" style="stroke: rgb(0,0,255); stroke-width: 2" />
    <text class="taxon_text" style="font-family: Verdana; font-size: 12; font-style: Italic; fill: #800080" transform="rotate( 463.369043398 388.461538461538)" x="469" y="392">Cymbidium goeringii SEP-E</text>
    <polyline points="463,380 463,371 465,371" style="stroke: rgb(0,0,255); stroke-width: 2" />
    <text class="taxon_text" style="font-family: Verdana; font-size: 12; font-style: Italic; fill: #800080" transform="rotate( 465.157119460478 371.538461538462)" x="471" y="375">Cymbidium ensifolium SEP-E</text>
    <polyline points="419,367 419,380 463,380" style="stroke: rgb(207,0,48); stroke-width: 2" />
    <polyline points="419,367 419,354 468,354" style="stroke: rgb(0,0,255); stroke-width: 2" />
    <text class="taxon_text" style="font-family: Verdana; font-size: 12; font-style: Italic; fill: #800080" transform="rotate( 468.740145863333 354.615384615385)" x="474" y="358">Dendrobium crumenatum SEP-E</text>
    <polyline points="396,352 396,367 419,367" style="stroke: rgb(105,0,150); stroke-width: 2" />
    <polyline points="396,352 396,337 475,337" style="stroke: rgb(98,0,157); stroke-width: 2" />
    <text class="taxon_text" style="font-family: Verdana; font-size: 12; font-style: Italic; fill: #800080" transform="rotate( 475.398647817477 337.692307692308)" x="481" y="341">Dendrobium nobile SEP-E</text>
    <polyline points="346,310 346,352 396,352" style="stroke: rgb(23,0,232); stroke-width: 2" />
    <polyline points="346,310 346,268 420,268" style="stroke: rgb(-2,0,257); stroke-width: 2" />
    <polyline points="279,257 279,310 346,310" style="stroke: rgb(151,0,104); stroke-width: 2" />
    <polyline points="279,257 279,204 432,204" style="stroke: rgb(15,0,240); stroke-width: 2" />
    <polyline points="243,173 243,257 279,257" style="stroke: rgb(154,0,101); stroke-width: 2" />
    <polyline points="243,173 243,89 381,89" style="stroke: rgb(66,0,189); stroke-width: 2" />
    <polyline points="915,430 915,439 931,439" style="stroke: rgb(0,0,255); stroke-width: 2" />
    <text class="taxon_text" style="font-family: Verdana; font-size: 12; font-style: Italic; fill: #3315B7" transform="rotate( 931.095293571867 439.230769230769)" x="937" y="443">Dendrobium crumenatum AP3-B</text>
    <polyline points="915,430 915,422 927,422" style="stroke: rgb(0,0,255); stroke-width: 2" />
    <text class="taxon_text" style="font-family: Verdana; font-size: 12; font-style: Italic; fill: #3315B7" transform="rotate( 927.136855214843 422.307692307692)" x="933" y="426">Dendrobium moniliforme AP3-B</text>
    <polyline points="913,418 913,430 915,430" style="stroke: rgb(0,0,255); stroke-width: 2" />
    <polyline points="913,418 913,405 922,405" style="stroke: rgb(95,0,160); stroke-width: 2" />
    <text class="taxon_text" style="font-family: Verdana; font-size: 12; font-style: Italic; fill: #3315B7" transform="rotate( 922.375272056583 405.384615384615)" x="928" y="409">Dendrobium devonianum AP3-B</text>
    <polyline points="915,464 915,473 935,473" style="stroke: rgb(0,0,255); stroke-width: 2" />
    <text class="taxon_text" style="font-family: Verdana; font-size: 12; font-style: Italic; fill: #3315B7" transform="rotate( 935.035782425487 473.076923076923)" x="941" y="477">Phaius tancarvilleae AP3-B</text>
    <polyline points="915,464 915,456 941,456" style="stroke: rgb(0,0,255); stroke-width: 2" />
    <text class="taxon_text" style="font-family: Verdana; font-size: 12; font-style: Italic; fill: #3315B7" transform="rotate( 941.902804142577 456.153846153846)" x="947" y="460">Brassavola nodosa AP3-B</text>
    <polyline points="933,515 933,523 933,523" style="stroke: rgb(0,0,255); stroke-width: 2" />
    <text class="taxon_text" style="font-family: Verdana; font-size: 12; font-style: Italic; fill: #3315B7" transform="rotate( 933.832401888778 523.846153846154)" x="939" y="527">Cymbidium faberi AP3-B</text>
    <polyline points="933,515 933,506 940,506" style="stroke: rgb(0,0,255); stroke-width: 2" />
    <text class="taxon_text" style="font-family: Verdana; font-size: 12; font-style: Italic; fill: #3315B7" transform="rotate( 940.81399490419 506.923076923077)" x="946" y="510">Cymbidium goeringii AP3-B</text>
    <polyline points="928,502 928,515 933,515" style="stroke: rgb(0,0,255); stroke-width: 2" />
    <polyline points="928,502 928,490 1000,490" style="stroke: rgb(156,0,99); stroke-width: 2" />
    <text class="taxon_text" style="font-family: Verdana; font-size: 12; font-style: Italic; fill: #3315B7" transform="rotate( 1000 490)" x="1006" y="494">Cymbidium ensifolium AP3-B</text>
    <polyline points="912,483 912,502 928,502" style="stroke: rgb(0,0,255); stroke-width: 2" />
    <polyline points="912,483 912,464 915,464" style="stroke: rgb(0,0,255); stroke-width: 2" />
    <polyline points="907,450 907,483 912,483" style="stroke: rgb(0,0,255); stroke-width: 2" />
    <polyline points="907,450 907,418 913,418" style="stroke: rgb(47,0,208); stroke-width: 2" />
    <polyline points="917,583 917,591 927,591" style="stroke: rgb(39,0,216); stroke-width: 2" />
    <text class="taxon_text" style="font-family: Verdana; font-size: 12; font-style: Italic; fill: #3315B7" transform="rotate( 927.226220827535 591.538461538462)" x="933" y="595">Oncidium Gower-Ramsey AP3-B</text>
    <polyline points="917,583 917,574 958,574" style="stroke: rgb(-6,0,261); stroke-width: 2" />
    <text class="taxon_text" style="font-family: Verdana; font-size: 12; font-style: Italic; fill: #3315B7" transform="rotate( 958.602334681657 574.615384615385)" x="964" y="578">Erycina pusilla AP3-B</text>
    <polyline points="895,570 895,583 917,583" style="stroke: rgb(0,0,255); stroke-width: 2" />
    <polyline points="895,570 895,557 919,557" style="stroke: rgb(0,0,255); stroke-width: 2" />
    <text class="taxon_text" style="font-family: Verdana; font-size: 12; font-style: Italic; fill: #3315B7" transform="rotate( 919.108844341424 557.692307692308)" x="925" y="561">Gongora galeata AP3-B</text>
    <polyline points="878,555 878,570 895,570" style="stroke: rgb(0,0,255); stroke-width: 2" />
    <polyline points="878,555 878,540 909,540" style="stroke: rgb(10,0,245); stroke-width: 2" />
    <text class="taxon_text" style="font-family: Verdana; font-size: 12; font-style: Italic; fill: #3315B7" transform="rotate( 909.713234070369 540.769230769231)" x="915" y="544">Phalaenopsis equestris AP3-B</text>
    <polyline points="850,503 850,555 878,555" style="stroke: rgb(42,0,213); stroke-width: 2" />
    <polyline points="850,503 850,450 907,450" style="stroke: rgb(224,0,31); stroke-width: 2" />
    <polyline points="856,684 856,693 863,693" style="stroke: rgb(0,0,255); stroke-width: 2" />
    <text class="taxon_text" style="font-family: Verdana; font-size: 12; font-style: Italic; fill: #FF0000" transform="rotate( 863.993557474994 693.076923076923)" x="869" y="697">Phragmipedium longifolium PI-B</text>
    <polyline points="856,684 856,676 863,676" style="stroke: rgb(0,0,255); stroke-width: 2" />
    <text class="taxon_text" style="font-family: Verdana; font-size: 12; font-style: Italic; fill: #FF0000" transform="rotate( 863.636858832885 676.153846153846)" x="869" y="680">Paphiopedilum concolor PI-B</text>
    <polyline points="862,752 862,760 866,760" style="stroke: rgb(0,0,255); stroke-width: 2" />
    <text class="taxon_text" style="font-family: Verdana; font-size: 12; font-style: Italic; fill: #FF0000" transform="rotate( 866.733721026527 760.769230769231)" x="872" y="764">Sedirea japonica PI-B</text>
    <polyline points="862,752 862,743 869,743" style="stroke: rgb(0,0,255); stroke-width: 2" />
    <text class="taxon_text" style="font-family: Verdana; font-size: 12; font-style: Italic; fill: #FF0000" transform="rotate( 869.951646892063 743.846153846154)" x="875" y="747">Phalaenopsis equestris PI-B</text>
    <polyline points="855,803 855,811 856,811" style="stroke: rgb(182,0,73); stroke-width: 2" />
    <text class="taxon_text" style="font-family: Verdana; font-size: 12; font-style: Italic; fill: #FF0000" transform="rotate( 856.340194747087 811.538461538462)" x="862" y="815">Cymbidium goeringii PI-B</text>
    <polyline points="855,803 855,794 856,794" style="stroke: rgb(0,0,255); stroke-width: 2" />
    <text class="taxon_text" style="font-family: Verdana; font-size: 12; font-style: Italic; fill: #FF0000" transform="rotate( 856.98523115664 794.615384615385)" x="862" y="798">Cymbidium faberi PI-B</text>
    <polyline points="878,853 878,862 882,862" style="stroke: rgb(0,0,255); stroke-width: 2" />
    <text class="taxon_text" style="font-family: Verdana; font-size: 12; font-style: Italic; fill: #FF0000" transform="rotate( 882.76186375744 862.307692307692)" x="888" y="866">Oncidium Gower-Ramsey PI-B</text>
    <polyline points="878,853 878,845 912,845" style="stroke: rgb(0,0,255); stroke-width: 2" />
    <text class="taxon_text" style="font-family: Verdana; font-size: 12; font-style: Italic; fill: #FF0000" transform="rotate( 912.330042524042 845.384615384615)" x="918" y="849">Erycina pusilla PI-B</text>
    <polyline points="857,841 857,853 878,853" style="stroke: rgb(0,0,255); stroke-width: 2" />
    <polyline points="857,841 857,828 863,828" style="stroke: rgb(0,0,255); stroke-width: 2" />
    <text class="taxon_text" style="font-family: Verdana; font-size: 12; font-style: Italic; fill: #FF0000" transform="rotate( 863.276723051826 828.461538461538)" x="869" y="832">Gongora galeata PI-B</text>
    <polyline points="846,822 846,841 857,841" style="stroke: rgb(0,0,255); stroke-width: 2" />
    <polyline points="846,822 846,803 855,803" style="stroke: rgb(0,0,255); stroke-width: 2" />
    <polyline points="843,799 843,822 846,822" style="stroke: rgb(0,0,255); stroke-width: 2" />
    <polyline points="843,799 843,777 862,777" style="stroke: rgb(0,0,255); stroke-width: 2" />
    <text class="taxon_text" style="font-family: Verdana; font-size: 12; font-style: Italic; fill: #FF0000" transform="rotate( 862.278425139114 777.692307692308)" x="868" y="781">Dendrobium moniliforme PI-B</text>
    <polyline points="841,776 841,799 843,799" style="stroke: rgb(0,0,255); stroke-width: 2" />
    <polyline points="841,776 841,752 862,752" style="stroke: rgb(0,0,255); stroke-width: 2" />
    <polyline points="841,751 841,776 841,776" style="stroke: rgb(54,0,201); stroke-width: 2" />
    <polyline points="841,751 841,726 855,726" style="stroke: rgb(0,0,255); stroke-width: 2" />
    <text class="taxon_text" style="font-family: Verdana; font-size: 12; font-style: Italic; fill: #FF0000" transform="rotate( 855.639400305684 726.923076923077)" x="861" y="730">Phaius tancarvilleae PI-B</text>
    <polyline points="838,730 838,751 841,751" style="stroke: rgb(0,0,255); stroke-width: 2" />
    <polyline points="838,730 838,710 859,710" style="stroke: rgb(0,0,255); stroke-width: 2" />
    <text class="taxon_text" style="font-family: Verdana; font-size: 12; font-style: Italic; fill: #FF0000" transform="rotate( 859.161703920429 710)" x="865" y="714">Brassavola nodosa PI-B</text>
    <polyline points="826,707 826,730 838,730" style="stroke: rgb(0,0,255); stroke-width: 2" />
    <polyline points="826,707 826,684 856,684" style="stroke: rgb(174,0,81); stroke-width: 2" />
    <polyline points="818,683 818,707 826,707" style="stroke: rgb(210,0,45); stroke-width: 2" />
    <polyline points="818,683 818,659 851,659" style="stroke: rgb(0,0,255); stroke-width: 2" />
    <text class="taxon_text" style="font-family: Verdana; font-size: 12; font-style: Italic; fill: #FF0000" transform="rotate( 851.000408436629 659.230769230769)" x="857" y="663">Spiranthes odorata PI-B</text>
    <polyline points="807,662 807,683 818,683" style="stroke: rgb(0,0,255); stroke-width: 2" />
    <polyline points="807,662 807,642 819,642" style="stroke: rgb(0,0,255); stroke-width: 2" />
    <text class="taxon_text" style="font-family: Verdana; font-size: 12; font-style: Italic; fill: #FF0000" transform="rotate( 819.384840569014 642.307692307692)" x="825" y="646">Habenaria petelotii PI-B</text>
    <polyline points="804,644 804,662 807,662" style="stroke: rgb(0,0,255); stroke-width: 2" />
    <polyline points="804,644 804,625 818,625" style="stroke: rgb(52,0,203); stroke-width: 2" />
    <text class="taxon_text" style="font-family: Verdana; font-size: 12; font-style: Italic; fill: #FF0000" transform="rotate( 818.705050865637 625.384615384615)" x="824" y="629">Orchis italica PI-B</text>
    <polyline points="793,626 793,644 804,644" style="stroke: rgb(207,0,48); stroke-width: 2" />
    <polyline points="793,626 793,608 793,608" style="stroke: rgb(50,0,205); stroke-width: 2" />
    <text class="taxon_text" style="font-family: Verdana; font-size: 12; font-style: Italic; fill: #FF0000" transform="rotate( 793.910676195783 608.461538461538)" x="799" y="612">Habenaria radiata PI-B</text>
    <polyline points="553,564 553,626 793,626" style="stroke: rgb(-8,0,263); stroke-width: 2" />
    <polyline points="553,564 553,503 850,503" style="stroke: rgb(67,0,188); stroke-width: 2" />
    <polyline points="176,369 176,564 553,564" style="stroke: rgb(255,0,0); stroke-width: 2" />
    <polyline points="176,369 176,173 243,173" style="stroke: rgb(224,0,31); stroke-width: 2" />
    <polyline points="292,887 292,896 296,896" style="stroke: rgb(0,0,255); stroke-width: 2" />
    <text class="taxon_text" style="font-family: Verdana; font-size: 12; font-style: Italic; fill: #0069AC" transform="rotate( 296.178202991396 896.153846153846)" x="302" y="900">Dendrobium thyrsiflorum D</text>
    <polyline points="292,887 292,879 295,879" style="stroke: rgb(0,0,255); stroke-width: 2" />
    <text class="taxon_text" style="font-family: Verdana; font-size: 12; font-style: Italic; fill: #0069AC" transform="rotate( 295.625969333485 879.230769230769)" x="301" y="883">Dendrobium nobile D</text>
    <polyline points="324,955 324,963 326,963" style="stroke: rgb(0,0,255); stroke-width: 2" />
    <text class="taxon_text" style="font-family: Verdana; font-size: 12; font-style: Italic; fill: #0069AC" transform="rotate( 326.096969930863 963.846153846154)" x="332" y="967">Oncidium Gower-Ramsey D</text>
    <polyline points="324,955 324,946 344,946" style="stroke: rgb(0,0,255); stroke-width: 2" />
    <text class="taxon_text" style="font-family: Verdana; font-size: 12; font-style: Italic; fill: #0069AC" transform="rotate( 344.345122518928 946.923076923077)" x="350" y="950">Erycina pusilla D</text>
    <polyline points="300,942 300,955 324,955" style="stroke: rgb(29,0,226); stroke-width: 2" />
    <polyline points="300,942 300,930 316,930" style="stroke: rgb(0,0,255); stroke-width: 2" />
    <text class="taxon_text" style="font-family: Verdana; font-size: 12; font-style: Italic; fill: #0069AC" transform="rotate( 316.173567878871 930)" x="322" y="934">Cymbidium ensifolium D</text>
    <polyline points="292,927 292,942 300,942" style="stroke: rgb(0,0,255); stroke-width: 2" />
    <polyline points="292,927 292,913 313,913" style="stroke: rgb(0,0,255); stroke-width: 2" />
    <text class="taxon_text" style="font-family: Verdana; font-size: 12; font-style: Italic; fill: #0069AC" transform="rotate( 313.727852564025 913.076923076923)" x="319" y="917">Phalaenopsis equestris D</text>
    <polyline points="283,907 283,927 292,927" style="stroke: rgb(0,0,255); stroke-width: 2" />
    <polyline points="283,907 283,887 292,887" style="stroke: rgb(125,0,130); stroke-width: 2" />
    <polyline points="274,989 274,997 311,997" style="stroke: rgb(0,0,255); stroke-width: 2" />
    <text class="taxon_text" style="font-family: Verdana; font-size: 12; font-style: Italic; fill: #0069AC" transform="rotate( 311.822149968603 997.692307692308)" x="317" y="1001">Dendrobium crumenatum D</text>
    <polyline points="274,989 274,980 333,980" style="stroke: rgb(-63,0,318); stroke-width: 2" />
    <text class="taxon_text" style="font-family: Verdana; font-size: 12; font-style: Italic; fill: #0069AC" transform="rotate( 333.305032212625 980.769230769231)" x="339" y="984">Orchis italica D</text>
    <polyline points="228,948 228,989 274,989" style="stroke: rgb(53,0,202); stroke-width: 2" />
    <polyline points="228,948 228,907 283,907" style="stroke: rgb(0,0,255); stroke-width: 2" />
    <polyline points="260,1023 260,1031 280,1031" style="stroke: rgb(0,0,255); stroke-width: 2" />
    <text class="taxon_text" style="font-family: Verdana; font-size: 12; font-style: Italic; fill: #3CDA00" transform="rotate( 280.829086155204 1031.53846153846)" x="286" y="1035">Dendrobium crumenatum AG-C</text>
    <polyline points="260,1023 260,1014 301,1014" style="stroke: rgb(-2,0,257); stroke-width: 2" />
    <text class="taxon_text" style="font-family: Verdana; font-size: 12; font-style: Italic; fill: #3CDA00" transform="rotate( 301.059704108567 1014.61538461538)" x="307" y="1018">Orchis italica AG-C</text>
    <polyline points="296,1090 296,1099 306,1099" style="stroke: rgb(-46,0,301); stroke-width: 2" />
    <text class="taxon_text" style="font-family: Verdana; font-size: 12; font-style: Italic; fill: #3CDA00" transform="rotate( 306.532011220751 1099.23076923077)" x="312" y="1103">Oncidium Gower-Ramsey AG-C</text>
    <polyline points="296,1090 296,1082 309,1082" style="stroke: rgb(0,0,255); stroke-width: 2" />
    <text class="taxon_text" style="font-family: Verdana; font-size: 12; font-style: Italic; fill: #3CDA00" transform="rotate( 309.124377797449 1082.30769230769)" x="315" y="1086">Erycina pusilla AG-C</text>
    <polyline points="299,1124 299,1133 299,1133" style="stroke: rgb(0,0,255); stroke-width: 2" />
    <text class="taxon_text" style="font-family: Verdana; font-size: 12; font-style: Italic; fill: #3CDA00" transform="rotate( 299.355265093864 1133.07692307692)" x="305" y="1137">Cymbidium faberi AG-C</text>
    <polyline points="299,1124 299,1116 301,1116" style="stroke: rgb(0,0,255); stroke-width: 2" />
    <text class="taxon_text" style="font-family: Verdana; font-size: 12; font-style: Italic; fill: #3CDA00" transform="rotate( 301.34307711975 1116.15384615385)" x="307" y="1120">Cymbidium ensifolium AG-C</text>
    <polyline points="289,1107 289,1124 299,1124" style="stroke: rgb(0,0,255); stroke-width: 2" />
    <polyline points="289,1107 289,1090 296,1090" style="stroke: rgb(0,0,255); stroke-width: 2" />
    <polyline points="282,1086 282,1107 289,1107" style="stroke: rgb(0,0,255); stroke-width: 2" />
    <polyline points="282,1086 282,1065 303,1065" style="stroke: rgb(-70,0,325); stroke-width: 2" />
    <text class="taxon_text" style="font-family: Verdana; font-size: 12; font-style: Italic; fill: #3CDA00" transform="rotate( 303.516494648917 1065.38461538462)" x="309" y="1069">Phalaenopsis equestris AG-C</text>
    <polyline points="278,1067 278,1086 282,1086" style="stroke: rgb(0,0,255); stroke-width: 2" />
    <polyline points="278,1067 278,1048 292,1048" style="stroke: rgb(0,0,255); stroke-width: 2" />
    <text class="taxon_text" style="font-family: Verdana; font-size: 12; font-style: Italic; fill: #3CDA00" transform="rotate( 292.329371176434 1048.46153846154)" x="298" y="1052">Dendrobium thyrsiflorum AG-C</text>
    <polyline points="243,1045 243,1067 278,1067" style="stroke: rgb(0,0,255); stroke-width: 2" />
    <polyline points="243,1045 243,1023 260,1023" style="stroke: rgb(0,0,255); stroke-width: 2" />
    <polyline points="176,996 176,1045 243,1045" style="stroke: rgb(0,0,255); stroke-width: 2" />
    <polyline points="176,996 176,948 228,948" style="stroke: rgb(59,0,196); stroke-width: 2" />
    <polyline points="50,682 50,996 176,996" style="stroke: rgb(-88,0,343); stroke-width: 2" />
    <polyline points="50,682 50,369 176,369" style="stroke: rgb(255,0,0); stroke-width: 2" />
</svg>