<svg height="2000" width="1200" xmlns="http://www.w3.org/2000/svg" xmlns:svg="http://www.w3.org/2000/svg" xmlns:xlink="http://www.w3.org/1999/xlink">
    <style type="text/css"><![CDATA[
	polyline { fill: none; stroke: black; stroke-width: 2 }
	path { fill: none; stroke: black; stroke-width: 2 }
	line { fill: none; stroke: black; stroke-width: 2 }
	circle.node_circle  {}
	circle.taxon_circle {}
	text.node_text      {}
	text.taxon_text     {}
	line.scale_bar      {}
	text.scale_label    {}
	line.scale_major    {}
	line.scale_minor    {}
]]></style>
    <polyline points="667,205 667,218 1000,218" style="stroke: black; stroke-width: 2" />
    <polygon class="collapsed" id="collapsed60" points="1000,218 1000,221 1000,216 1000,218 " style="fill: white; stroke: black; stroke-width: 2" />
    <text class="collapsed_text" id="collapsed_text60" style="font-style: italic;" transform="rotate()" x="1006" y="222">Oreonastes</text>
    <polyline points="667,205 667,192 1000,192" style="stroke: black; stroke-width: 2" />
    <polygon class="collapsed" id="collapsed40" points="1000,192 1000,195 1000,189 1000,192 " style="fill: white; stroke: black; stroke-width: 2" />
    <text class="collapsed_text" id="collapsed_text40" style="font-style: italic;" transform="rotate()" x="1006" y="196">Megaclinium</text>
    <polyline points="667,258 667,271 1000,271" style="stroke: black; stroke-width: 2" />
    <polygon class="collapsed" id="collapsed67" points="1000,271 1000,274 1000,268 1000,271 " style="fill: white; stroke: black; stroke-width: 2" />
    <text class="collapsed_text" id="collapsed_text67" style="font-style: italic;" transform="rotate()" x="1006" y="275">Genyorchis</text>
    <polyline points="667,258 667,245 1000,245" style="stroke: black; stroke-width: 2" />
    <polygon class="collapsed" id="collapsed64" points="1000,245 1000,248 1000,242 1000,245 " style="fill: white; stroke: black; stroke-width: 2" />
    <text class="collapsed_text" id="collapsed_text64" style="font-style: italic;" transform="rotate()" x="1006" y="249">Saltatoria</text>
    <polyline points="620,232 620,258 667,258" style="stroke: black; stroke-width: 2" />
    <polyline points="620,232 620,205 667,205" style="stroke: black; stroke-width: 2" />
    <polyline points="572,199 572,232 620,232" style="stroke: black; stroke-width: 2" />
    <polyline points="572,199 572,166 1000,166" style="stroke: black; stroke-width: 2" />
    <polygon class="collapsed" id="collapsed31" points="1000,166 1000,168 1000,163 1000,166 " style="fill: white; stroke: black; stroke-width: 2" />
    <text class="collapsed_text" id="collapsed_text31" style="font-style: italic;" transform="rotate()" x="1006" y="170">Bulbophyllaria</text>
    <polyline points="525,248 525,298 1000,298" style="stroke: black; stroke-width: 2" />
    <polygon class="collapsed" id="collapsed70" points="1000,298 1000,300 1000,295 1000,298 " style="fill: white; stroke: black; stroke-width: 2" />
    <text class="collapsed_text" id="collapsed_text70" style="font-style: italic;" transform="rotate()" x="1006" y="302">Chaseella</text>
    <polyline points="525,248 525,199 572,199" style="stroke: black; stroke-width: 2" />
    <polyline points="525,337 525,350 1000,350" style="stroke: black; stroke-width: 2" />
    <polygon class="collapsed" id="collapsed77" points="1000,350 1000,353 1000,348 1000,350 " style="fill: white; stroke: black; stroke-width: 2" />
    <text class="collapsed_text" id="collapsed_text77" style="font-style: italic;" transform="rotate()" x="1006" y="354">Trichopus</text>
    <polyline points="525,337 525,324 1000,324" style="stroke: black; stroke-width: 2" />
    <polygon class="collapsed" id="collapsed72" points="1000,324 1000,327 1000,321 1000,324 " style="fill: white; stroke: black; stroke-width: 2" />
    <text class="collapsed_text" id="collapsed_text72" style="font-style: italic;" transform="rotate()" x="1006" y="328">Bulbophyllum</text>
    <polyline points="477,293 477,337 525,337" style="stroke: black; stroke-width: 2" />
    <polyline points="477,293 477,248 525,248" style="stroke: black; stroke-width: 2" />
    <polyline points="430,216 430,293 477,293" style="stroke: black; stroke-width: 2" />
    <polyline points="430,216 430,139 1000,139" style="stroke: black; stroke-width: 2" />
    <polygon class="collapsed" id="collapsed23" points="1000,139 1000,142 1000,136 1000,139 " style="fill: white; stroke: black; stroke-width: 2" />
    <text class="collapsed_text" id="collapsed_text23" style="font-style: italic;" transform="rotate()" x="1006" y="143">Adelopetalum</text>
    <polyline points="952,416 952,430 1000,430" style="stroke: black; stroke-width: 2" />
    <polygon class="collapsed" id="collapsed100" points="1000,430 1000,432 1000,427 1000,430 " style="fill: white; stroke: black; stroke-width: 2" />
    <text class="collapsed_text" id="collapsed_text100" style="" transform="rotate()" x="1006" y="434">PapulipetalumPolymeres</text>
    <polyline points="952,416 952,403 1000,403" style="stroke: black; stroke-width: 2" />
    <polygon class="collapsed" id="collapsed99" points="1000,403 1000,406 1000,400 1000,403 " style="fill: silver; stroke: black; stroke-width: 2" />
    <text class="collapsed_text" id="collapsed_text99" style="font-style: italic;" transform="rotate()" x="1006" y="407">Polymeres</text>
    <polyline points="905,397 905,416 952,416" style="stroke: black; stroke-width: 2" />
    <polyline points="905,397 905,377 1000,377" style="stroke: black; stroke-width: 2" />
    <polygon class="collapsed" id="collapsed91" points="1000,377 1000,380 1000,374 1000,377 " style="fill: white; stroke: black; stroke-width: 2" />
    <text class="collapsed_text" id="collapsed_text91" style="font-style: italic;" transform="rotate()" x="1006" y="381">Brachyantha</text>
    <polyline points="857,426 857,456 1000,456" style="stroke: black; stroke-width: 2" />
    <polygon class="collapsed" id="collapsed101" points="1000,456 1000,459 1000,453 1000,456 " style="fill: silver; stroke: black; stroke-width: 2" />
    <text class="collapsed_text" id="collapsed_text101" style="font-style: italic;" transform="rotate()" x="1006" y="460">Polymeres</text>
    <polyline points="857,426 857,397 905,397" style="stroke: black; stroke-width: 2" />
    <polyline points="810,454 810,482 1000,482" style="stroke: black; stroke-width: 2" />
    <polygon class="collapsed" id="collapsed102" points="1000,482 1000,485 1000,480 1000,482 " style="fill: silver; stroke: black; stroke-width: 2" />
    <text class="collapsed_text" id="collapsed_text102" style="font-style: italic;" transform="rotate()" x="1006" y="486">Polymeres</text>
    <polyline points="810,454 810,426 857,426" style="stroke: black; stroke-width: 2" />
    <polyline points="762,481 762,509 1000,509" style="stroke: black; stroke-width: 2" />
    <polygon class="collapsed" id="collapsed105" points="1000,509 1000,511 1000,506 1000,509 " style="fill: silver; stroke: black; stroke-width: 2" />
    <text class="collapsed_text" id="collapsed_text105" style="font-style: italic;" transform="rotate()" x="1006" y="513">Polymeres</text>
    <polyline points="762,481 762,454 810,454" style="stroke: black; stroke-width: 2" />
    <polyline points="810,575 810,588 1000,588" style="stroke: black; stroke-width: 2" />
    <polygon class="collapsed" id="collapsed118" points="1000,588 1000,591 1000,585 1000,588 " style="fill: white; stroke: black; stroke-width: 2" />
    <text class="collapsed_text" id="collapsed_text118" style="font-style: italic;" transform="rotate()" x="1006" y="592">Hyalosema</text>
    <polyline points="810,575 810,561 1000,561" style="stroke: black; stroke-width: 2" />
    <polygon class="collapsed" id="collapsed117" points="1000,561 1000,564 1000,559 1000,561 " style="fill: white; stroke: black; stroke-width: 2" />
    <text class="collapsed_text" id="collapsed_text117" style="font-style: italic;" transform="rotate()" x="1006" y="565">Hoplandra</text>
    <polyline points="762,555 762,575 810,575" style="stroke: black; stroke-width: 2" />
    <polyline points="762,555 762,535 1000,535" style="stroke: black; stroke-width: 2" />
    <polygon class="collapsed" id="collapsed109" points="1000,535 1000,538 1000,532 1000,535 " style="fill: white; stroke: black; stroke-width: 2" />
    <text class="collapsed_text" id="collapsed_text109" style="font-style: italic;" transform="rotate()" x="1006" y="539">Epicrianthes</text>
    <polyline points="715,518 715,555 762,555" style="stroke: black; stroke-width: 2" />
    <polyline points="715,518 715,481 762,481" style="stroke: black; stroke-width: 2" />
    <polyline points="857,627 857,641 1000,641" style="stroke: black; stroke-width: 2" />
    <polygon class="collapsed" id="collapsed161" points="1000,641 1000,643 1000,638 1000,641 " style="fill: silver; stroke: black; stroke-width: 2" />
    <text class="collapsed_text" id="collapsed_text161" style="font-style: italic;" transform="rotate()" x="1006" y="645">Polymeres</text>
    <polyline points="857,627 857,614 1000,614" style="stroke: black; stroke-width: 2" />
    <polygon class="collapsed" id="collapsed148" points="1000,614 1000,617 1000,611 1000,614 " style="fill: white; stroke: black; stroke-width: 2" />
    <text class="collapsed_text" id="collapsed_text148" style="font-style: italic;" transform="rotate()" x="1006" y="618">Brachypus</text>
    <polyline points="857,680 857,693 1000,693" style="stroke: black; stroke-width: 2" />
    <polygon class="collapsed" id="collapsed166" points="1000,693 1000,696 1000,691 1000,693 " style="fill: silver; stroke: black; stroke-width: 2" />
    <text class="collapsed_text" id="collapsed_text166" style="font-style: italic;" transform="rotate()" x="1006" y="697">Polymeres</text>
    <polyline points="857,680 857,667 1000,667" style="stroke: black; stroke-width: 2" />
    <polygon class="collapsed" id="collapsed165" points="1000,667 1000,670 1000,664 1000,667 " style="fill: white; stroke: black; stroke-width: 2" />
    <text class="collapsed_text" id="collapsed_text165" style="font-style: italic;" transform="rotate()" x="1006" y="671">Elliptifolia</text>
    <polyline points="810,654 810,680 857,680" style="stroke: black; stroke-width: 2" />
    <polyline points="810,654 810,627 857,627" style="stroke: black; stroke-width: 2" />
    <polyline points="857,759 857,773 1000,773" style="stroke: black; stroke-width: 2" />
    <polygon class="collapsed" id="collapsed200" points="1000,773 1000,775 1000,770 1000,773 " style="fill: white; stroke: black; stroke-width: 2" />
    <text class="collapsed_text" id="collapsed_text200" style="font-style: italic;" transform="rotate()" x="1006" y="777">Epibulbon</text>
    <polyline points="857,759 857,746 1000,746" style="stroke: black; stroke-width: 2" />
    <polygon class="collapsed" id="collapsed189" points="1000,746 1000,749 1000,743 1000,746 " style="fill: white; stroke: black; stroke-width: 2" />
    <text class="collapsed_text" id="collapsed_text189" style="font-style: italic;" transform="rotate()" x="1006" y="750">Papulipetalum</text>
    <polyline points="810,740 810,759 857,759" style="stroke: black; stroke-width: 2" />
    <polyline points="810,740 810,720 1000,720" style="stroke: black; stroke-width: 2" />
    <polygon class="collapsed" id="collapsed179" points="1000,720 1000,723 1000,717 1000,720 " style="fill: white; stroke: black; stroke-width: 2" />
    <text class="collapsed_text" id="collapsed_text179" style="font-style: italic;" transform="rotate()" x="1006" y="724">Peltopus</text>
    <polyline points="762,697 762,740 810,740" style="stroke: black; stroke-width: 2" />
    <polyline points="762,697 762,654 810,654" style="stroke: black; stroke-width: 2" />
    <polyline points="762,812 762,825 1000,825" style="stroke: black; stroke-width: 2" />
    <polygon class="collapsed" id="collapsed251" points="1000,825 1000,828 1000,823 1000,825 " style="fill: silver; stroke: black; stroke-width: 2" />
    <text class="collapsed_text" id="collapsed_text251" style="font-style: italic;" transform="rotate()" x="1006" y="829">Polymeres</text>
    <polyline points="762,812 762,799 1000,799" style="stroke: black; stroke-width: 2" />
    <polygon class="collapsed" id="collapsed218" points="1000,799 1000,802 1000,796 1000,799 " style="fill: white; stroke: black; stroke-width: 2" />
    <text class="collapsed_text" id="collapsed_text218" style="font-style: italic;" transform="rotate()" x="1006" y="803">Codonosiphon</text>
    <polyline points="715,754 715,812 762,812" style="stroke: black; stroke-width: 2" />
    <polyline points="715,754 715,697 762,697" style="stroke: black; stroke-width: 2" />
    <polyline points="667,636 667,754 715,754" style="stroke: black; stroke-width: 2" />
    <polyline points="667,636 667,518 715,518" style="stroke: black; stroke-width: 2" />
    <polyline points="762,865 762,878 1000,878" style="stroke: black; stroke-width: 2" />
    <polygon class="collapsed" id="collapsed268" points="1000,878 1000,881 1000,875 1000,878 " style="fill: white; stroke: black; stroke-width: 2" />
    <text class="collapsed_text" id="collapsed_text268" style="font-style: italic;" transform="rotate()" x="1006" y="882">Minutissima</text>
    <polyline points="762,865 762,852 1000,852" style="stroke: black; stroke-width: 2" />
    <polygon class="collapsed" id="collapsed261" points="1000,852 1000,855 1000,849 1000,852 " style="fill: white; stroke: black; stroke-width: 2" />
    <text class="collapsed_text" id="collapsed_text261" style="font-style: italic;" transform="rotate()" x="1006" y="856">Monanthaparva</text>
    <polyline points="715,885 715,905 1000,905" style="stroke: black; stroke-width: 2" />
    <polygon class="collapsed" id="collapsed273" points="1000,905 1000,907 1000,902 1000,905 " style="fill: white; stroke: black; stroke-width: 2" />
    <text class="collapsed_text" id="collapsed_text273" style="font-style: italic;" transform="rotate()" x="1006" y="909">Monanthes</text>
    <polyline points="715,885 715,865 762,865" style="stroke: black; stroke-width: 2" />
    <polyline points="667,908 667,931 1000,931" style="stroke: black; stroke-width: 2" />
    <polygon class="collapsed" id="collapsed300" points="1000,931 1000,934 1000,928 1000,931 " style="fill: white; stroke: black; stroke-width: 2" />
    <text class="collapsed_text" id="collapsed_text300" style="font-style: italic;" transform="rotate()" x="1006" y="935">Pelma</text>
    <polyline points="667,908 667,885 715,885" style="stroke: black; stroke-width: 2" />
    <polyline points="620,772 620,908 667,908" style="stroke: black; stroke-width: 2" />
    <polyline points="620,772 620,636 667,636" style="stroke: black; stroke-width: 2" />
    <polyline points="715,970 715,984 1000,984" style="stroke: black; stroke-width: 2" />
    <polygon class="collapsed" id="collapsed316" points="1000,984 1000,986 1000,981 1000,984 " style="fill: white; stroke: black; stroke-width: 2" />
    <text class="collapsed_text" id="collapsed_text316" style="font-style: italic;" transform="rotate()" x="1006" y="988">Macrouris</text>
    <polyline points="715,970 715,957 1000,957" style="stroke: black; stroke-width: 2" />
    <polygon class="collapsed" id="collapsed313" points="1000,957 1000,960 1000,954 1000,957 " style="fill: white; stroke: black; stroke-width: 2" />
    <text class="collapsed_text" id="collapsed_text313" style="font-style: italic;" transform="rotate()" x="1006" y="961">Lepanthanthe</text>
    <polyline points="667,990 667,1010 1000,1010" style="stroke: black; stroke-width: 2" />
    <polygon class="collapsed" id="collapsed327" points="1000,1010 1000,1013 1000,1007 1000,1010 " style="fill: white; stroke: black; stroke-width: 2" />
    <text class="collapsed_text" id="collapsed_text327" style="font-style: italic;" transform="rotate()" x="1006" y="1014">Macrouris</text>
    <polyline points="667,990 667,970 715,970" style="stroke: black; stroke-width: 2" />
    <polyline points="620,1013 620,1036 1000,1036" style="stroke: black; stroke-width: 2" />
    <polygon class="collapsed" id="collapsed328" points="1000,1036 1000,1039 1000,1034 1000,1036 " style="fill: white; stroke: black; stroke-width: 2" />
    <text class="collapsed_text" id="collapsed_text328" style="font-style: italic;" transform="rotate()" x="1006" y="1040">Imitatores</text>
    <polyline points="620,1013 620,990 667,990" style="stroke: black; stroke-width: 2" />
    <polyline points="572,893 572,1013 620,1013" style="stroke: black; stroke-width: 2" />
    <polyline points="572,893 572,772 620,772" style="stroke: black; stroke-width: 2" />
    <polyline points="525,978 525,1063 1000,1063" style="stroke: black; stroke-width: 2" />
    <polygon class="collapsed" id="collapsed331" points="1000,1063 1000,1066 1000,1060 1000,1063 " style="fill: white; stroke: black; stroke-width: 2" />
    <text class="collapsed_text" id="collapsed_text331" style="font-style: italic;" transform="rotate()" x="1006" y="1067">Saurocephalum</text>
    <polyline points="525,978 525,893 572,893" style="stroke: black; stroke-width: 2" />
    <polyline points="525,1102 525,1116 1000,1116" style="stroke: black; stroke-width: 2" />
    <polygon class="collapsed" id="collapsed350" points="1000,1116 1000,1118 1000,1113 1000,1116 " style="fill: white; stroke: black; stroke-width: 2" />
    <text class="collapsed_text" id="collapsed_text350" style="font-style: italic;" transform="rotate()" x="1006" y="1120">Pseudopelma</text>
    <polyline points="525,1102 525,1089 1000,1089" style="stroke: black; stroke-width: 2" />
    <polygon class="collapsed" id="collapsed343" points="1000,1089 1000,1092 1000,1086 1000,1089 " style="fill: white; stroke: black; stroke-width: 2" />
    <text class="collapsed_text" id="collapsed_text343" style="font-style: italic;" transform="rotate()" x="1006" y="1093">Monanthaparva</text>
    <polyline points="477,1040 477,1102 525,1102" style="stroke: black; stroke-width: 2" />
    <polyline points="477,1040 477,978 525,978" style="stroke: black; stroke-width: 2" />
    <polyline points="430,1091 430,1142 1000,1142" style="stroke: black; stroke-width: 2" />
    <polygon class="collapsed" id="collapsed353" points="1000,1142 1000,1145 1000,1139 1000,1142 " style="fill: white; stroke: black; stroke-width: 2" />
    <text class="collapsed_text" id="collapsed_text353" style="font-style: italic;" transform="rotate()" x="1006" y="1146">Uncifera</text>
    <polyline points="430,1091 430,1040 477,1040" style="stroke: black; stroke-width: 2" />
    <polyline points="382,653 382,1091 430,1091" style="stroke: black; stroke-width: 2" />
    <polyline points="382,653 382,216 430,216" style="stroke: black; stroke-width: 2" />
    <polyline points="810,1234 810,1248 1000,1248" style="stroke: black; stroke-width: 2" />
    <polygon class="collapsed" id="collapsed389" points="1000,1248 1000,1250 1000,1245 1000,1248 " style="fill: white; stroke: black; stroke-width: 2" />
    <text class="collapsed_text" id="collapsed_text389" style="font-style: italic;" transform="rotate()" x="1006" y="1252">Stenochilus</text>
    <polyline points="810,1234 810,1221 1000,1221" style="stroke: black; stroke-width: 2" />
    <polygon class="collapsed" id="collapsed388" points="1000,1221 1000,1224 1000,1218 1000,1221 " style="fill: white; stroke: black; stroke-width: 2" />
    <text class="collapsed_text" id="collapsed_text388" style="font-style: italic;" transform="rotate()" x="1006" y="1225">Sestochilus</text>
    <polyline points="762,1254 762,1274 1000,1274" style="stroke: black; stroke-width: 2" />
    <polygon class="collapsed" id="collapsed390" points="1000,1274 1000,1277 1000,1271 1000,1274 " style="fill: white; stroke: black; stroke-width: 2" />
    <text class="collapsed_text" id="collapsed_text390" style="font-style: italic;" transform="rotate()" x="1006" y="1278">Stenochilus</text>
    <polyline points="762,1254 762,1234 810,1234" style="stroke: black; stroke-width: 2" />
    <polyline points="715,1224 715,1254 762,1254" style="stroke: black; stroke-width: 2" />
    <polyline points="715,1224 715,1195 1000,1195" style="stroke: black; stroke-width: 2" />
    <polygon class="collapsed" id="collapsed385" points="1000,1195 1000,1198 1000,1192 1000,1195 " style="fill: white; stroke: black; stroke-width: 2" />
    <text class="collapsed_text" id="collapsed_text385" style="font-style: italic;" transform="rotate()" x="1006" y="1199">Stenochilus</text>
    <polyline points="667,1284 667,1327 1000,1327" style="stroke: black; stroke-width: 2" />
    <polygon class="collapsed" id="collapsed395" points="1000,1327 1000,1330 1000,1324 1000,1327 " style="fill: white; stroke: black; stroke-width: 2" />
    <text class="collapsed_text" id="collapsed_text395" style="font-style: italic;" transform="rotate()" x="1006" y="1331">Stenochilus</text>
    <polyline points="667,1284 667,1300 1000,1300" style="stroke: black; stroke-width: 2" />
    <polygon class="collapsed" id="collapsed391" points="1000,1300 1000,1303 1000,1298 1000,1300 " style="fill: white; stroke: black; stroke-width: 2" />
    <text class="collapsed_text" id="collapsed_text391" style="font-style: italic;" transform="rotate()" x="1006" y="1304">Stenochilus</text>
    <polyline points="667,1284 667,1224 715,1224" style="stroke: black; stroke-width: 2" />
    <polyline points="620,1339 620,1380 1000,1380" style="stroke: black; stroke-width: 2" />
    <polygon class="collapsed" id="collapsed397" points="1000,1380 1000,1382 1000,1377 1000,1380 " style="fill: white; stroke: black; stroke-width: 2" />
    <text class="collapsed_text" id="collapsed_text397" style="font-style: italic;" transform="rotate()" x="1006" y="1384">Stenochilus</text>
    <polyline points="620,1339 620,1353 1000,1353" style="stroke: black; stroke-width: 2" />
    <polygon class="collapsed" id="collapsed396" points="1000,1353 1000,1356 1000,1350 1000,1353 " style="fill: white; stroke: black; stroke-width: 2" />
    <text class="collapsed_text" id="collapsed_text396" style="font-style: italic;" transform="rotate()" x="1006" y="1357">Stenochilus</text>
    <polyline points="620,1339 620,1284 667,1284" style="stroke: black; stroke-width: 2" />
    <polyline points="620,1419 620,1432 1000,1432" style="stroke: black; stroke-width: 2" />
    <polygon class="collapsed" id="collapsed400" points="1000,1432 1000,1435 1000,1430 1000,1432 " style="fill: white; stroke: black; stroke-width: 2" />
    <text class="collapsed_text" id="collapsed_text400" style="font-style: italic;" transform="rotate()" x="1006" y="1436">Stenochilus</text>
    <polyline points="620,1419 620,1406 1000,1406" style="stroke: black; stroke-width: 2" />
    <polygon class="collapsed" id="collapsed399" points="1000,1406 1000,1409 1000,1403 1000,1406 " style="fill: white; stroke: black; stroke-width: 2" />
    <text class="collapsed_text" id="collapsed_text399" style="font-style: italic;" transform="rotate()" x="1006" y="1410">Sestochilus</text>
    <polyline points="572,1379 572,1419 620,1419" style="stroke: black; stroke-width: 2" />
    <polyline points="572,1379 572,1339 620,1339" style="stroke: black; stroke-width: 2" />
    <polyline points="525,1419 525,1459 1000,1459" style="stroke: black; stroke-width: 2" />
    <polygon class="collapsed" id="collapsed401" points="1000,1459 1000,1461 1000,1456 1000,1459 " style="fill: white; stroke: black; stroke-width: 2" />
    <text class="collapsed_text" id="collapsed_text401" style="font-style: italic;" transform="rotate()" x="1006" y="1463">Sestochilus</text>
    <polyline points="525,1419 525,1379 572,1379" style="stroke: black; stroke-width: 2" />
    <polyline points="477,1294 477,1419 525,1419" style="stroke: black; stroke-width: 2" />
    <polyline points="477,1294 477,1168 1000,1168" style="stroke: black; stroke-width: 2" />
    <polygon class="collapsed" id="collapsed367" points="1000,1168 1000,1171 1000,1166 1000,1168 " style="fill: white; stroke: black; stroke-width: 2" />
    <text class="collapsed_text" id="collapsed_text367" style="font-style: italic;" transform="rotate()" x="1006" y="1172">Beccariana</text>
    <polyline points="572,1498 572,1511 1000,1511" style="stroke: black; stroke-width: 2" />
    <polygon class="collapsed" id="collapsed440" points="1000,1511 1000,1514 1000,1509 1000,1511 " style="fill: white; stroke: black; stroke-width: 2" />
    <text class="collapsed_text" id="collapsed_text440" style="font-style: italic;" transform="rotate()" x="1006" y="1515">Intervallatae</text>
    <polyline points="572,1498 572,1485 1000,1485" style="stroke: black; stroke-width: 2" />
    <polygon class="collapsed" id="collapsed429" points="1000,1485 1000,1488 1000,1482 1000,1485 " style="fill: white; stroke: black; stroke-width: 2" />
    <text class="collapsed_text" id="collapsed_text429" style="font-style: italic;" transform="rotate()" x="1006" y="1489">Hymenobractea</text>
    <polyline points="525,1518 525,1538 1000,1538" style="stroke: black; stroke-width: 2" />
    <polygon class="collapsed" id="collapsed447" points="1000,1538 1000,1541 1000,1535 1000,1538 " style="fill: white; stroke: black; stroke-width: 2" />
    <text class="collapsed_text" id="collapsed_text447" style="font-style: italic;" transform="rotate()" x="1006" y="1542">Lepidorhiza</text>
    <polyline points="525,1518 525,1498 572,1498" style="stroke: black; stroke-width: 2" />
    <polyline points="477,1541 477,1564 1000,1564" style="stroke: black; stroke-width: 2" />
    <polygon class="collapsed" id="collapsed468" points="1000,1564 1000,1567 1000,1561 1000,1564 " style="fill: white; stroke: black; stroke-width: 2" />
    <text class="collapsed_text" id="collapsed_text468" style="font-style: italic;" transform="rotate()" x="1006" y="1568">Leopardinae</text>
    <polyline points="477,1541 477,1518 525,1518" style="stroke: black; stroke-width: 2" />
    <polyline points="430,1417 430,1541 477,1541" style="stroke: black; stroke-width: 2" />
    <polyline points="430,1417 430,1294 477,1294" style="stroke: black; stroke-width: 2" />
    <polyline points="382,1504 382,1591 1000,1591" style="stroke: black; stroke-width: 2" />
    <polygon class="collapsed" id="collapsed471" points="1000,1591 1000,1593 1000,1588 1000,1591 " style="fill: white; stroke: black; stroke-width: 2" />
    <text class="collapsed_text" id="collapsed_text471" style="font-style: italic;" transform="rotate()" x="1006" y="1595">Brachystachyae</text>
    <polyline points="382,1504 382,1417 430,1417" style="stroke: black; stroke-width: 2" />
    <polyline points="335,1079 335,1504 382,1504" style="stroke: black; stroke-width: 2" />
    <polyline points="335,1079 335,653 382,653" style="stroke: black; stroke-width: 2" />
    <polyline points="572,1657 572,1670 1000,1670" style="stroke: black; stroke-width: 2" />
    <polygon class="collapsed" id="collapsed506" points="1000,1670 1000,1673 1000,1667 1000,1670 " style="fill: white; stroke: black; stroke-width: 2" />
    <text class="collapsed_text" id="collapsed_text506" style="font-style: italic;" transform="rotate()" x="1006" y="1674">Cirrhopetalum</text>
    <polyline points="572,1657 572,1643 1000,1643" style="stroke: black; stroke-width: 2" />
    <polygon class="collapsed" id="collapsed492" points="1000,1643 1000,1646 1000,1641 1000,1643 " style="fill: white; stroke: black; stroke-width: 2" />
    <text class="collapsed_text" id="collapsed_text492" style="font-style: italic;" transform="rotate()" x="1006" y="1647">Recurvae</text>
    <polyline points="525,1637 525,1657 572,1657" style="stroke: black; stroke-width: 2" />
    <polyline points="525,1637 525,1617 1000,1617" style="stroke: black; stroke-width: 2" />
    <polygon class="collapsed" id="collapsed479" points="1000,1617 1000,1620 1000,1614 1000,1617 " style="fill: white; stroke: black; stroke-width: 2" />
    <text class="collapsed_text" id="collapsed_text479" style="font-style: italic;" transform="rotate()" x="1006" y="1621">Racemosae</text>
    <polyline points="477,1666 477,1696 1000,1696" style="stroke: black; stroke-width: 2" />
    <polygon class="collapsed" id="collapsed509" points="1000,1696 1000,1699 1000,1693 1000,1696 " style="fill: white; stroke: black; stroke-width: 2" />
    <text class="collapsed_text" id="collapsed_text509" style="font-style: italic;" transform="rotate()" x="1006" y="1700">Sunipia</text>
    <polyline points="477,1666 477,1637 525,1637" style="stroke: black; stroke-width: 2" />
    <polyline points="477,1736 477,1749 1000,1749" style="stroke: black; stroke-width: 2" />
    <polygon class="collapsed" id="collapsed554" points="1000,1749 1000,1752 1000,1746 1000,1749 " style="fill: white; stroke: black; stroke-width: 2" />
    <text class="collapsed_text" id="collapsed_text554" style="font-style: italic;" transform="rotate()" x="1006" y="1753">Hirtula</text>
    <polyline points="477,1736 477,1723 1000,1723" style="stroke: black; stroke-width: 2" />
    <polygon class="collapsed" id="collapsed513" points="1000,1723 1000,1725 1000,1720 1000,1723 " style="fill: white; stroke: black; stroke-width: 2" />
    <text class="collapsed_text" id="collapsed_text513" style="font-style: italic;" transform="rotate()" x="1006" y="1727">Stachysanthes</text>
    <polyline points="430,1701 430,1736 477,1736" style="stroke: black; stroke-width: 2" />
    <polyline points="430,1701 430,1666 477,1666" style="stroke: black; stroke-width: 2" />
    <polyline points="477,1815 477,1828 1000,1828" style="stroke: black; stroke-width: 2" />
    <polygon class="collapsed" id="collapsed581" points="1000,1828 1000,1831 1000,1825 1000,1828 " style="fill: white; stroke: black; stroke-width: 2" />
    <text class="collapsed_text" id="collapsed_text581" style="font-style: italic;" transform="rotate()" x="1006" y="1832">Reptantia</text>
    <polyline points="477,1815 477,1802 1000,1802" style="stroke: black; stroke-width: 2" />
    <polygon class="collapsed" id="collapsed572" points="1000,1802 1000,1805 1000,1799 1000,1802 " style="fill: white; stroke: black; stroke-width: 2" />
    <text class="collapsed_text" id="collapsed_text572" style="font-style: italic;" transform="rotate()" x="1006" y="1806">Lemniscatae</text>
    <polyline points="430,1795 430,1815 477,1815" style="stroke: black; stroke-width: 2" />
    <polyline points="430,1795 430,1775 1000,1775" style="stroke: black; stroke-width: 2" />
    <polygon class="collapsed" id="collapsed568" points="1000,1775 1000,1778 1000,1773 1000,1775 " style="fill: white; stroke: black; stroke-width: 2" />
    <text class="collapsed_text" id="collapsed_text568" style="font-style: italic;" transform="rotate()" x="1006" y="1779">Trias</text>
    <polyline points="382,1748 382,1795 430,1795" style="stroke: black; stroke-width: 2" />
    <polyline points="382,1748 382,1701 430,1701" style="stroke: black; stroke-width: 2" />
    <polyline points="382,1868 382,1881 1000,1881" style="stroke: black; stroke-width: 2" />
    <polygon class="collapsed" id="collapsed584" points="1000,1881 1000,1884 1000,1878 1000,1881 " style="fill: white; stroke: black; stroke-width: 2" />
    <text class="collapsed_text" id="collapsed_text584" style="font-style: italic;" transform="rotate()" x="1006" y="1885">Drymoda</text>
    <polyline points="382,1868 382,1855 1000,1855" style="stroke: black; stroke-width: 2" />
    <polygon class="collapsed" id="collapsed583" points="1000,1855 1000,1857 1000,1852 1000,1855 " style="fill: white; stroke: black; stroke-width: 2" />
    <text class="collapsed_text" id="collapsed_text583" style="font-style: italic;" transform="rotate()" x="1006" y="1859">Beccariana</text>
    <polyline points="335,1808 335,1868 382,1868" style="stroke: black; stroke-width: 2" />
    <polyline points="335,1808 335,1748 382,1748" style="stroke: black; stroke-width: 2" />
    <polyline points="287,1443 287,1808 335,1808" style="stroke: black; stroke-width: 2" />
    <polyline points="287,1443 287,1079 335,1079" style="stroke: black; stroke-width: 2" />
    <polyline points="240,1675 240,1907 1000,1907" style="stroke: black; stroke-width: 2" />
    <polygon class="collapsed" id="collapsed585" points="1000,1907 1000,1910 1000,1905 1000,1907 " style="fill: white; stroke: black; stroke-width: 2" />
    <text class="collapsed_text" id="collapsed_text585" style="font-style: italic;" transform="rotate()" x="1006" y="1911">Rhinanthera</text>
    <polyline points="240,1675 240,1443 287,1443" style="stroke: black; stroke-width: 2" />
    <polyline points="192,1804 192,1934 1000,1934" style="stroke: black; stroke-width: 2" />
    <polygon class="collapsed" id="collapsed586" points="1000,1934 1000,1936 1000,1931 1000,1934 " style="fill: white; stroke: black; stroke-width: 2" />
    <text class="collapsed_text" id="collapsed_text586" style="font-style: italic;" transform="rotate()" x="1006" y="1938">Macrocaulia</text>
    <polyline points="192,1804 192,1675 240,1675" style="stroke: black; stroke-width: 2" />
    <polyline points="145,959 145,1804 192,1804" style="stroke: black; stroke-width: 2" />
    <polyline points="145,959 145,113 1000,113" style="stroke: black; stroke-width: 2" />
    <polygon class="collapsed" id="collapsed10" points="1000,113 1000,116 1000,110 1000,113 " style="fill: white; stroke: black; stroke-width: 2" />
    <text class="collapsed_text" id="collapsed_text10" style="" transform="rotate()" x="1006" y="117">OUTGROUP</text>
    <polyline points="97,523 97,959 145,959" style="stroke: black; stroke-width: 2" />
    <polyline points="97,523 97,86 1000,86" style="stroke: black; stroke-width: 2" />
    <polygon class="collapsed" id="collapsed8" points="1000,86 1000,89 1000,84 1000,86 " style="fill: white; stroke: black; stroke-width: 2" />
    <text class="collapsed_text" id="collapsed_text8" style="" transform="rotate()" x="1006" y="90">OUTGROUP</text>
    <polyline points="50,291 50,523 97,523" style="stroke: black; stroke-width: 2" />
    <polyline points="50,291 50,60 1000,60" style="stroke: black; stroke-width: 2" />
    <polygon class="collapsed" id="collapsed6" points="1000,60 1000,63 1000,57 1000,60 " style="fill: white; stroke: black; stroke-width: 2" />
    <text class="collapsed_text" id="collapsed_text6" style="" transform="rotate()" x="1006" y="64">OUTGROUP</text>
</svg>