<svg height="2500" width="1200" xmlns="http://www.w3.org/2000/svg" xmlns:svg="http://www.w3.org/2000/svg" xmlns:xlink="http://www.w3.org/1999/xlink">
    <style type="text/css"><![CDATA[
	polyline { fill: none; stroke: black; stroke-width: 2 }
	path { fill: none; stroke: black; stroke-width: 2 }
	line { fill: none; stroke: black; stroke-width: 2 }
	circle.node_circle  {}
	circle.taxon_circle {}
	text.node_text      {}
	text.taxon_text     {}
	line.scale_bar      {}
	text.scale_label    {}
	line.scale_major    {}
	line.scale_minor    {}
]]></style>
    <polyline points="700,252 700,269 1000,269" style="stroke: black; stroke-width: 2" />
    <polygon class="collapsed" id="collapsed60" points="950,269 1000,282 1000,255 950,269 " style="fill: white; stroke: black; stroke-width: 2" />
    <text class="collapsed_text" id="collapsed_text60" style="font-style: italic;" transform="rotate()" x="1006" y="273">Oreonastes</text>
    <polyline points="700,252 700,235 1000,235" style="stroke: black; stroke-width: 2" />
    <polygon class="collapsed" id="collapsed40" points="950,235 1000,248 1000,221 950,235 " style="fill: white; stroke: black; stroke-width: 2" />
    <text class="collapsed_text" id="collapsed_text40" style="font-style: italic;" transform="rotate()" x="1006" y="239">Megaclinium</text>
    <polyline points="700,320 700,338 1000,338" style="stroke: black; stroke-width: 2" />
    <polygon class="collapsed" id="collapsed67" points="950,338 1000,351 1000,324 950,338 " style="fill: white; stroke: black; stroke-width: 2" />
    <text class="collapsed_text" id="collapsed_text67" style="font-style: italic;" transform="rotate()" x="1006" y="342">Genyorchis</text>
    <polyline points="700,320 700,303 1000,303" style="stroke: black; stroke-width: 2" />
    <polygon class="collapsed" id="collapsed64" points="950,303 1000,317 1000,290 950,303 " style="fill: white; stroke: black; stroke-width: 2" />
    <text class="collapsed_text" id="collapsed_text64" style="font-style: italic;" transform="rotate()" x="1006" y="307">Saltatoria</text>
    <polyline points="650,286 650,320 700,320" style="stroke: black; stroke-width: 2" />
    <polyline points="650,286 650,252 700,252" style="stroke: black; stroke-width: 2" />
    <polyline points="600,243 600,286 650,286" style="stroke: black; stroke-width: 2" />
    <polyline points="600,243 600,200 1000,200" style="stroke: black; stroke-width: 2" />
    <polygon class="collapsed" id="collapsed31" points="950,200 1000,214 1000,187 950,200 " style="fill: white; stroke: black; stroke-width: 2" />
    <text class="collapsed_text" id="collapsed_text31" style="font-style: italic;" transform="rotate()" x="1006" y="204">Bulbophyllaria</text>
    <polyline points="550,308 550,372 1000,372" style="stroke: black; stroke-width: 2" />
    <polygon class="collapsed" id="collapsed70" points="950,372 1000,385 1000,358 950,372 " style="fill: white; stroke: black; stroke-width: 2" />
    <text class="collapsed_text" id="collapsed_text70" style="font-style: italic;" transform="rotate()" x="1006" y="376">Chaseella</text>
    <polyline points="550,308 550,243 600,243" style="stroke: black; stroke-width: 2" />
    <polyline points="550,423 550,440 1000,440" style="stroke: black; stroke-width: 2" />
    <polygon class="collapsed" id="collapsed77" points="950,440 1000,454 1000,427 950,440 " style="fill: white; stroke: black; stroke-width: 2" />
    <text class="collapsed_text" id="collapsed_text77" style="font-style: italic;" transform="rotate()" x="1006" y="444">Trichopus</text>
    <polyline points="550,423 550,406 1000,406" style="stroke: black; stroke-width: 2" />
    <polygon class="collapsed" id="collapsed72" points="950,406 1000,420 1000,393 950,406 " style="fill: white; stroke: black; stroke-width: 2" />
    <text class="collapsed_text" id="collapsed_text72" style="font-style: italic;" transform="rotate()" x="1006" y="410">Bulbophyllum</text>
    <polyline points="500,365 500,423 550,423" style="stroke: black; stroke-width: 2" />
    <polyline points="500,365 500,308 550,308" style="stroke: black; stroke-width: 2" />
    <polyline points="450,266 450,365 500,365" style="stroke: black; stroke-width: 2" />
    <polyline points="450,266 450,166 1000,166" style="stroke: black; stroke-width: 2" />
    <polygon class="collapsed" id="collapsed23" points="950,166 1000,180 1000,153 950,166 " style="fill: white; stroke: black; stroke-width: 2" />
    <text class="collapsed_text" id="collapsed_text23" style="font-style: italic;" transform="rotate()" x="1006" y="170">Adelopetalum</text>
    <polyline points="950,492 950,509 1000,509" style="stroke: black; stroke-width: 2" />
    <polygon class="collapsed" id="collapsed98" points="950,509 1000,522 1000,495 950,509 " style="fill: silver; stroke: black; stroke-width: 2" />
    <text class="collapsed_text" id="collapsed_text98" style="font-style: italic;" transform="rotate()" x="1006" y="513">Polymeres</text>
    <polyline points="950,492 950,475 1000,475" style="stroke: black; stroke-width: 2" />
    <polygon class="collapsed" id="collapsed91" points="950,475 1000,488 1000,461 950,475 " style="fill: white; stroke: black; stroke-width: 2" />
    <text class="collapsed_text" id="collapsed_text91" style="font-style: italic;" transform="rotate()" x="1006" y="479">Brachyantha</text>
    <polyline points="900,518 900,543 1000,543" style="stroke: black; stroke-width: 2" />
    <polygon class="collapsed" id="collapsed101" points="950,543 1000,557 1000,530 950,543 " style="fill: silver; stroke: black; stroke-width: 2" />
    <text class="collapsed_text" id="collapsed_text101" style="font-style: italic;" transform="rotate()" x="1006" y="547">Polymeres</text>
    <polyline points="900,518 900,492 950,492" style="stroke: black; stroke-width: 2" />
    <polyline points="850,548 850,578 1000,578" style="stroke: black; stroke-width: 2" />
    <polygon class="collapsed" id="collapsed102" points="950,578 1000,591 1000,564 950,578 " style="fill: silver; stroke: black; stroke-width: 2" />
    <text class="collapsed_text" id="collapsed_text102" style="font-style: italic;" transform="rotate()" x="1006" y="582">Polymeres</text>
    <polyline points="850,548 850,518 900,518" style="stroke: black; stroke-width: 2" />
    <polyline points="800,580 800,612 1000,612" style="stroke: black; stroke-width: 2" />
    <polygon class="collapsed" id="collapsed105" points="950,612 1000,625 1000,598 950,612 " style="fill: silver; stroke: black; stroke-width: 2" />
    <text class="collapsed_text" id="collapsed_text105" style="font-style: italic;" transform="rotate()" x="1006" y="616">Polymeres</text>
    <polyline points="800,580 800,548 850,548" style="stroke: black; stroke-width: 2" />
    <polyline points="850,698 850,715 1000,715" style="stroke: black; stroke-width: 2" />
    <polygon class="collapsed" id="collapsed118" points="950,715 1000,728 1000,701 950,715 " style="fill: white; stroke: black; stroke-width: 2" />
    <text class="collapsed_text" id="collapsed_text118" style="font-style: italic;" transform="rotate()" x="1006" y="719">Hyalosema</text>
    <polyline points="850,698 850,680 1000,680" style="stroke: black; stroke-width: 2" />
    <polygon class="collapsed" id="collapsed117" points="950,680 1000,694 1000,667 950,680 " style="fill: white; stroke: black; stroke-width: 2" />
    <text class="collapsed_text" id="collapsed_text117" style="font-style: italic;" transform="rotate()" x="1006" y="684">Hoplandra</text>
    <polyline points="800,672 800,698 850,698" style="stroke: black; stroke-width: 2" />
    <polyline points="800,672 800,646 1000,646" style="stroke: black; stroke-width: 2" />
    <polygon class="collapsed" id="collapsed109" points="950,646 1000,660 1000,633 950,646 " style="fill: white; stroke: black; stroke-width: 2" />
    <text class="collapsed_text" id="collapsed_text109" style="font-style: italic;" transform="rotate()" x="1006" y="650">Epicrianthes</text>
    <polyline points="750,626 750,672 800,672" style="stroke: black; stroke-width: 2" />
    <polyline points="750,626 750,580 800,580" style="stroke: black; stroke-width: 2" />
    <polyline points="900,766 900,783 1000,783" style="stroke: black; stroke-width: 2" />
    <polygon class="collapsed" id="collapsed161" points="950,783 1000,797 1000,770 950,783 " style="fill: silver; stroke: black; stroke-width: 2" />
    <text class="collapsed_text" id="collapsed_text161" style="font-style: italic;" transform="rotate()" x="1006" y="787">Polymeres</text>
    <polyline points="900,766 900,749 1000,749" style="stroke: black; stroke-width: 2" />
    <polygon class="collapsed" id="collapsed148" points="950,749 1000,762 1000,735 950,749 " style="fill: white; stroke: black; stroke-width: 2" />
    <text class="collapsed_text" id="collapsed_text148" style="font-style: italic;" transform="rotate()" x="1006" y="753">Brachypus</text>
    <polyline points="900,835 900,852 1000,852" style="stroke: black; stroke-width: 2" />
    <polygon class="collapsed" id="collapsed166" points="950,852 1000,865 1000,838 950,852 " style="fill: silver; stroke: black; stroke-width: 2" />
    <text class="collapsed_text" id="collapsed_text166" style="font-style: italic;" transform="rotate()" x="1006" y="856">Polymeres</text>
    <polyline points="900,835 900,818 1000,818" style="stroke: black; stroke-width: 2" />
    <polygon class="collapsed" id="collapsed165" points="950,818 1000,831 1000,804 950,818 " style="fill: white; stroke: black; stroke-width: 2" />
    <text class="collapsed_text" id="collapsed_text165" style="font-style: italic;" transform="rotate()" x="1006" y="822">Elliptifolia</text>
    <polyline points="850,800 850,835 900,835" style="stroke: black; stroke-width: 2" />
    <polyline points="850,800 850,766 900,766" style="stroke: black; stroke-width: 2" />
    <polyline points="900,938 900,955 1000,955" style="stroke: black; stroke-width: 2" />
    <polygon class="collapsed" id="collapsed200" points="950,955 1000,968 1000,941 950,955 " style="fill: white; stroke: black; stroke-width: 2" />
    <text class="collapsed_text" id="collapsed_text200" style="font-style: italic;" transform="rotate()" x="1006" y="959">Epibulbon</text>
    <polyline points="900,938 900,920 1000,920" style="stroke: black; stroke-width: 2" />
    <polygon class="collapsed" id="collapsed189" points="950,920 1000,934 1000,907 950,920 " style="fill: white; stroke: black; stroke-width: 2" />
    <text class="collapsed_text" id="collapsed_text189" style="font-style: italic;" transform="rotate()" x="1006" y="924">Papulipetalum</text>
    <polyline points="850,912 850,938 900,938" style="stroke: black; stroke-width: 2" />
    <polyline points="850,912 850,886 1000,886" style="stroke: black; stroke-width: 2" />
    <polygon class="collapsed" id="collapsed179" points="950,886 1000,900 1000,873 950,886 " style="fill: white; stroke: black; stroke-width: 2" />
    <text class="collapsed_text" id="collapsed_text179" style="font-style: italic;" transform="rotate()" x="1006" y="890">Peltopus</text>
    <polyline points="800,856 800,912 850,912" style="stroke: black; stroke-width: 2" />
    <polyline points="800,856 800,800 850,800" style="stroke: black; stroke-width: 2" />
    <polyline points="800,1006 800,1023 1000,1023" style="stroke: black; stroke-width: 2" />
    <polygon class="collapsed" id="collapsed251" points="950,1023 1000,1037 1000,1010 950,1023 " style="fill: silver; stroke: black; stroke-width: 2" />
    <text class="collapsed_text" id="collapsed_text251" style="font-style: italic;" transform="rotate()" x="1006" y="1027">Polymeres</text>
    <polyline points="800,1006 800,989 1000,989" style="stroke: black; stroke-width: 2" />
    <polygon class="collapsed" id="collapsed218" points="950,989 1000,1002 1000,975 950,989 " style="fill: white; stroke: black; stroke-width: 2" />
    <text class="collapsed_text" id="collapsed_text218" style="font-style: italic;" transform="rotate()" x="1006" y="993">Codonosiphon</text>
    <polyline points="750,931 750,1006 800,1006" style="stroke: black; stroke-width: 2" />
    <polyline points="750,931 750,856 800,856" style="stroke: black; stroke-width: 2" />
    <polyline points="700,778 700,931 750,931" style="stroke: black; stroke-width: 2" />
    <polyline points="700,778 700,626 750,626" style="stroke: black; stroke-width: 2" />
    <polyline points="800,1075 800,1092 1000,1092" style="stroke: black; stroke-width: 2" />
    <polygon class="collapsed" id="collapsed268" points="950,1092 1000,1105 1000,1078 950,1092 " style="fill: white; stroke: black; stroke-width: 2" />
    <text class="collapsed_text" id="collapsed_text268" style="font-style: italic;" transform="rotate()" x="1006" y="1096">Minutissima</text>
    <polyline points="800,1075 800,1058 1000,1058" style="stroke: black; stroke-width: 2" />
    <polygon class="collapsed" id="collapsed261" points="950,1058 1000,1071 1000,1044 950,1058 " style="fill: white; stroke: black; stroke-width: 2" />
    <text class="collapsed_text" id="collapsed_text261" style="font-style: italic;" transform="rotate()" x="1006" y="1062">Monanthaparva</text>
    <polyline points="750,1100 750,1126 1000,1126" style="stroke: black; stroke-width: 2" />
    <polygon class="collapsed" id="collapsed273" points="950,1126 1000,1140 1000,1113 950,1126 " style="fill: white; stroke: black; stroke-width: 2" />
    <text class="collapsed_text" id="collapsed_text273" style="font-style: italic;" transform="rotate()" x="1006" y="1130">Monanthes</text>
    <polyline points="750,1100 750,1075 800,1075" style="stroke: black; stroke-width: 2" />
    <polyline points="700,1130 700,1160 1000,1160" style="stroke: black; stroke-width: 2" />
    <polygon class="collapsed" id="collapsed300" points="950,1160 1000,1174 1000,1147 950,1160 " style="fill: white; stroke: black; stroke-width: 2" />
    <text class="collapsed_text" id="collapsed_text300" style="font-style: italic;" transform="rotate()" x="1006" y="1164">Pelma</text>
    <polyline points="700,1130 700,1100 750,1100" style="stroke: black; stroke-width: 2" />
    <polyline points="650,954 650,1130 700,1130" style="stroke: black; stroke-width: 2" />
    <polyline points="650,954 650,778 700,778" style="stroke: black; stroke-width: 2" />
    <polyline points="750,1212 750,1229 1000,1229" style="stroke: black; stroke-width: 2" />
    <polygon class="collapsed" id="collapsed316" points="950,1229 1000,1242 1000,1215 950,1229 " style="fill: white; stroke: black; stroke-width: 2" />
    <text class="collapsed_text" id="collapsed_text316" style="font-style: italic;" transform="rotate()" x="1006" y="1233">Macrouris</text>
    <polyline points="750,1212 750,1195 1000,1195" style="stroke: black; stroke-width: 2" />
    <polygon class="collapsed" id="collapsed313" points="950,1195 1000,1208 1000,1181 950,1195 " style="fill: white; stroke: black; stroke-width: 2" />
    <text class="collapsed_text" id="collapsed_text313" style="font-style: italic;" transform="rotate()" x="1006" y="1199">Lepanthanthe</text>
    <polyline points="700,1238 700,1263 1000,1263" style="stroke: black; stroke-width: 2" />
    <polygon class="collapsed" id="collapsed327" points="950,1263 1000,1277 1000,1250 950,1263 " style="fill: white; stroke: black; stroke-width: 2" />
    <text class="collapsed_text" id="collapsed_text327" style="font-style: italic;" transform="rotate()" x="1006" y="1267">Macrouris</text>
    <polyline points="700,1238 700,1212 750,1212" style="stroke: black; stroke-width: 2" />
    <polyline points="650,1268 650,1298 1000,1298" style="stroke: black; stroke-width: 2" />
    <polygon class="collapsed" id="collapsed328" points="950,1298 1000,1311 1000,1284 950,1298 " style="fill: white; stroke: black; stroke-width: 2" />
    <text class="collapsed_text" id="collapsed_text328" style="font-style: italic;" transform="rotate()" x="1006" y="1302">Imitatores</text>
    <polyline points="650,1268 650,1238 700,1238" style="stroke: black; stroke-width: 2" />
    <polyline points="600,1111 600,1268 650,1268" style="stroke: black; stroke-width: 2" />
    <polyline points="600,1111 600,954 650,954" style="stroke: black; stroke-width: 2" />
    <polyline points="550,1221 550,1332 1000,1332" style="stroke: black; stroke-width: 2" />
    <polygon class="collapsed" id="collapsed331" points="950,1332 1000,1345 1000,1318 950,1332 " style="fill: white; stroke: black; stroke-width: 2" />
    <text class="collapsed_text" id="collapsed_text331" style="font-style: italic;" transform="rotate()" x="1006" y="1336">Saurocephalum</text>
    <polyline points="550,1221 550,1111 600,1111" style="stroke: black; stroke-width: 2" />
    <polyline points="550,1383 550,1400 1000,1400" style="stroke: black; stroke-width: 2" />
    <polygon class="collapsed" id="collapsed350" points="950,1400 1000,1414 1000,1387 950,1400 " style="fill: white; stroke: black; stroke-width: 2" />
    <text class="collapsed_text" id="collapsed_text350" style="font-style: italic;" transform="rotate()" x="1006" y="1404">Pseudopelma</text>
    <polyline points="550,1383 550,1366 1000,1366" style="stroke: black; stroke-width: 2" />
    <polygon class="collapsed" id="collapsed343" points="950,1366 1000,1380 1000,1353 950,1366 " style="fill: white; stroke: black; stroke-width: 2" />
    <text class="collapsed_text" id="collapsed_text343" style="font-style: italic;" transform="rotate()" x="1006" y="1370">Monanthaparva</text>
    <polyline points="500,1302 500,1383 550,1383" style="stroke: black; stroke-width: 2" />
    <polyline points="500,1302 500,1221 550,1221" style="stroke: black; stroke-width: 2" />
    <polyline points="450,1368 450,1435 1000,1435" style="stroke: black; stroke-width: 2" />
    <polygon class="collapsed" id="collapsed353" points="950,1435 1000,1448 1000,1421 950,1435 " style="fill: white; stroke: black; stroke-width: 2" />
    <text class="collapsed_text" id="collapsed_text353" style="font-style: italic;" transform="rotate()" x="1006" y="1439">Uncifera</text>
    <polyline points="450,1368 450,1302 500,1302" style="stroke: black; stroke-width: 2" />
    <polyline points="400,817 400,1368 450,1368" style="stroke: black; stroke-width: 2" />
    <polyline points="400,817 400,266 450,266" style="stroke: black; stroke-width: 2" />
    <polyline points="850,1555 850,1572 1000,1572" style="stroke: black; stroke-width: 2" />
    <polygon class="collapsed" id="collapsed389" points="950,1572 1000,1585 1000,1558 950,1572 " style="fill: white; stroke: black; stroke-width: 2" />
    <text class="collapsed_text" id="collapsed_text389" style="font-style: italic;" transform="rotate()" x="1006" y="1576">Stenochilus</text>
    <polyline points="850,1555 850,1538 1000,1538" style="stroke: black; stroke-width: 2" />
    <polygon class="collapsed" id="collapsed388" points="950,1538 1000,1551 1000,1524 950,1538 " style="fill: white; stroke: black; stroke-width: 2" />
    <text class="collapsed_text" id="collapsed_text388" style="font-style: italic;" transform="rotate()" x="1006" y="1542">Sestochilus</text>
    <polyline points="800,1580 800,1606 1000,1606" style="stroke: black; stroke-width: 2" />
    <polygon class="collapsed" id="collapsed390" points="950,1606 1000,1620 1000,1593 950,1606 " style="fill: white; stroke: black; stroke-width: 2" />
    <text class="collapsed_text" id="collapsed_text390" style="font-style: italic;" transform="rotate()" x="1006" y="1610">Stenochilus</text>
    <polyline points="800,1580 800,1555 850,1555" style="stroke: black; stroke-width: 2" />
    <polyline points="750,1542 750,1580 800,1580" style="stroke: black; stroke-width: 2" />
    <polyline points="750,1542 750,1503 1000,1503" style="stroke: black; stroke-width: 2" />
    <polygon class="collapsed" id="collapsed385" points="950,1503 1000,1517 1000,1490 950,1503 " style="fill: white; stroke: black; stroke-width: 2" />
    <text class="collapsed_text" id="collapsed_text385" style="font-style: italic;" transform="rotate()" x="1006" y="1507">Stenochilus</text>
    <polyline points="700,1619 700,1675 1000,1675" style="stroke: black; stroke-width: 2" />
    <polygon class="collapsed" id="collapsed395" points="950,1675 1000,1688 1000,1661 950,1675 " style="fill: red; stroke: black; stroke-width: 2" />
    <text class="collapsed_text" id="collapsed_text395" style="" transform="rotate()" x="1006" y="1679">SestochilusStenochilus</text>
    <polyline points="700,1619 700,1640 1000,1640" style="stroke: black; stroke-width: 2" />
    <polygon class="collapsed" id="collapsed391" points="950,1640 1000,1654 1000,1627 950,1640 " style="fill: red; stroke: black; stroke-width: 2" />
    <text class="collapsed_text" id="collapsed_text391" style="" transform="rotate()" x="1006" y="1644">SestochilusStenochilus</text>
    <polyline points="700,1619 700,1542 750,1542" style="stroke: black; stroke-width: 2" />
    <polyline points="650,1690 650,1743 1000,1743" style="stroke: black; stroke-width: 2" />
    <polygon class="collapsed" id="collapsed397" points="950,1743 1000,1757 1000,1730 950,1743 " style="fill: red; stroke: black; stroke-width: 2" />
    <text class="collapsed_text" id="collapsed_text397" style="" transform="rotate()" x="1006" y="1747">SestochilusStenochilus</text>
    <polyline points="650,1690 650,1709 1000,1709" style="stroke: black; stroke-width: 2" />
    <polygon class="collapsed" id="collapsed396" points="950,1709 1000,1722 1000,1695 950,1709 " style="fill: red; stroke: black; stroke-width: 2" />
    <text class="collapsed_text" id="collapsed_text396" style="" transform="rotate()" x="1006" y="1713">SestochilusStenochilus</text>
    <polyline points="650,1690 650,1619 700,1619" style="stroke: black; stroke-width: 2" />
    <polyline points="650,1795 650,1812 1000,1812" style="stroke: black; stroke-width: 2" />
    <polygon class="collapsed" id="collapsed400" points="950,1812 1000,1825 1000,1798 950,1812 " style="fill: red; stroke: black; stroke-width: 2" />
    <text class="collapsed_text" id="collapsed_text400" style="" transform="rotate()" x="1006" y="1816">SestochilusStenochilus</text>
    <polyline points="650,1795 650,1778 1000,1778" style="stroke: black; stroke-width: 2" />
    <polygon class="collapsed" id="collapsed399" points="950,1778 1000,1791 1000,1764 950,1778 " style="fill: white; stroke: black; stroke-width: 2" />
    <text class="collapsed_text" id="collapsed_text399" style="font-style: italic;" transform="rotate()" x="1006" y="1782">Sestochilus</text>
    <polyline points="600,1742 600,1795 650,1795" style="stroke: black; stroke-width: 2" />
    <polyline points="600,1742 600,1690 650,1690" style="stroke: black; stroke-width: 2" />
    <polyline points="550,1794 550,1846 1000,1846" style="stroke: black; stroke-width: 2" />
    <polygon class="collapsed" id="collapsed401" points="950,1846 1000,1860 1000,1833 950,1846 " style="fill: white; stroke: black; stroke-width: 2" />
    <text class="collapsed_text" id="collapsed_text401" style="font-style: italic;" transform="rotate()" x="1006" y="1850">Sestochilus</text>
    <polyline points="550,1794 550,1742 600,1742" style="stroke: black; stroke-width: 2" />
    <polyline points="500,1632 500,1794 550,1794" style="stroke: black; stroke-width: 2" />
    <polyline points="500,1632 500,1469 1000,1469" style="stroke: black; stroke-width: 2" />
    <polygon class="collapsed" id="collapsed367" points="950,1469 1000,1482 1000,1455 950,1469 " style="fill: white; stroke: black; stroke-width: 2" />
    <text class="collapsed_text" id="collapsed_text367" style="font-style: italic;" transform="rotate()" x="1006" y="1473">Drymoda</text>
    <polyline points="600,1898 600,1915 1000,1915" style="stroke: black; stroke-width: 2" />
    <polygon class="collapsed" id="collapsed440" points="950,1915 1000,1928 1000,1901 950,1915 " style="fill: white; stroke: black; stroke-width: 2" />
    <text class="collapsed_text" id="collapsed_text440" style="font-style: italic;" transform="rotate()" x="1006" y="1919">Intervallatae</text>
    <polyline points="600,1898 600,1880 1000,1880" style="stroke: black; stroke-width: 2" />
    <polygon class="collapsed" id="collapsed429" points="950,1880 1000,1894 1000,1867 950,1880 " style="fill: white; stroke: black; stroke-width: 2" />
    <text class="collapsed_text" id="collapsed_text429" style="font-style: italic;" transform="rotate()" x="1006" y="1884">Hymenobractea</text>
    <polyline points="550,1923 550,1949 1000,1949" style="stroke: black; stroke-width: 2" />
    <polygon class="collapsed" id="collapsed447" points="950,1949 1000,1962 1000,1935 950,1949 " style="fill: white; stroke: black; stroke-width: 2" />
    <text class="collapsed_text" id="collapsed_text447" style="font-style: italic;" transform="rotate()" x="1006" y="1953">Lepidorhiza</text>
    <polyline points="550,1923 550,1898 600,1898" style="stroke: black; stroke-width: 2" />
    <polyline points="500,1953 500,1983 1000,1983" style="stroke: black; stroke-width: 2" />
    <polygon class="collapsed" id="collapsed468" points="950,1983 1000,1997 1000,1970 950,1983 " style="fill: white; stroke: black; stroke-width: 2" />
    <text class="collapsed_text" id="collapsed_text468" style="font-style: italic;" transform="rotate()" x="1006" y="1987">Leopardinae</text>
    <polyline points="500,1953 500,1923 550,1923" style="stroke: black; stroke-width: 2" />
    <polyline points="450,1792 450,1953 500,1953" style="stroke: black; stroke-width: 2" />
    <polyline points="450,1792 450,1632 500,1632" style="stroke: black; stroke-width: 2" />
    <polyline points="400,1905 400,2018 1000,2018" style="stroke: black; stroke-width: 2" />
    <polygon class="collapsed" id="collapsed471" points="950,2018 1000,2031 1000,2004 950,2018 " style="fill: white; stroke: black; stroke-width: 2" />
    <text class="collapsed_text" id="collapsed_text471" style="font-style: italic;" transform="rotate()" x="1006" y="2022">Brachystachyae</text>
    <polyline points="400,1905 400,1792 450,1792" style="stroke: black; stroke-width: 2" />
    <polyline points="350,1361 350,1905 400,1905" style="stroke: black; stroke-width: 2" />
    <polyline points="350,1361 350,817 400,817" style="stroke: black; stroke-width: 2" />
    <polyline points="600,2103 600,2120 1000,2120" style="stroke: black; stroke-width: 2" />
    <polygon class="collapsed" id="collapsed506" points="950,2120 1000,2134 1000,2107 950,2120 " style="fill: white; stroke: black; stroke-width: 2" />
    <text class="collapsed_text" id="collapsed_text506" style="font-style: italic;" transform="rotate()" x="1006" y="2124">Cirrhopetalum</text>
    <polyline points="600,2103 600,2086 1000,2086" style="stroke: black; stroke-width: 2" />
    <polygon class="collapsed" id="collapsed492" points="950,2086 1000,2100 1000,2073 950,2086 " style="fill: white; stroke: black; stroke-width: 2" />
    <text class="collapsed_text" id="collapsed_text492" style="font-style: italic;" transform="rotate()" x="1006" y="2090">Recurvae</text>
    <polyline points="550,2078 550,2103 600,2103" style="stroke: black; stroke-width: 2" />
    <polyline points="550,2078 550,2052 1000,2052" style="stroke: black; stroke-width: 2" />
    <polygon class="collapsed" id="collapsed479" points="950,2052 1000,2065 1000,2038 950,2052 " style="fill: white; stroke: black; stroke-width: 2" />
    <text class="collapsed_text" id="collapsed_text479" style="font-style: italic;" transform="rotate()" x="1006" y="2056">Racemosae</text>
    <polyline points="500,2116 500,2155 1000,2155" style="stroke: black; stroke-width: 2" />
    <polygon class="collapsed" id="collapsed509" points="950,2155 1000,2168 1000,2141 950,2155 " style="fill: white; stroke: black; stroke-width: 2" />
    <text class="collapsed_text" id="collapsed_text509" style="font-style: italic;" transform="rotate()" x="1006" y="2159">Sunipia</text>
    <polyline points="500,2116 500,2078 550,2078" style="stroke: black; stroke-width: 2" />
    <polyline points="500,2206 500,2223 1000,2223" style="stroke: black; stroke-width: 2" />
    <polygon class="collapsed" id="collapsed554" points="950,2223 1000,2237 1000,2210 950,2223 " style="fill: white; stroke: black; stroke-width: 2" />
    <text class="collapsed_text" id="collapsed_text554" style="font-style: italic;" transform="rotate()" x="1006" y="2227">Hirtula</text>
    <polyline points="500,2206 500,2189 1000,2189" style="stroke: black; stroke-width: 2" />
    <polygon class="collapsed" id="collapsed513" points="950,2189 1000,2202 1000,2175 950,2189 " style="fill: white; stroke: black; stroke-width: 2" />
    <text class="collapsed_text" id="collapsed_text513" style="font-style: italic;" transform="rotate()" x="1006" y="2193">Stachysanthes</text>
    <polyline points="450,2161 450,2206 500,2206" style="stroke: black; stroke-width: 2" />
    <polyline points="450,2161 450,2116 500,2116" style="stroke: black; stroke-width: 2" />
    <polyline points="500,2309 500,2326 1000,2326" style="stroke: black; stroke-width: 2" />
    <polygon class="collapsed" id="collapsed581" points="950,2326 1000,2340 1000,2313 950,2326 " style="fill: white; stroke: black; stroke-width: 2" />
    <text class="collapsed_text" id="collapsed_text581" style="font-style: italic;" transform="rotate()" x="1006" y="2330">Reptantia</text>
    <polyline points="500,2309 500,2292 1000,2292" style="stroke: black; stroke-width: 2" />
    <polygon class="collapsed" id="collapsed572" points="950,2292 1000,2305 1000,2278 950,2292 " style="fill: white; stroke: black; stroke-width: 2" />
    <text class="collapsed_text" id="collapsed_text572" style="font-style: italic;" transform="rotate()" x="1006" y="2296">Lemniscatae</text>
    <polyline points="450,2283 450,2309 500,2309" style="stroke: black; stroke-width: 2" />
    <polyline points="450,2283 450,2258 1000,2258" style="stroke: black; stroke-width: 2" />
    <polygon class="collapsed" id="collapsed568" points="950,2258 1000,2271 1000,2244 950,2258 " style="fill: white; stroke: black; stroke-width: 2" />
    <text class="collapsed_text" id="collapsed_text568" style="font-style: italic;" transform="rotate()" x="1006" y="2262">Trias</text>
    <polyline points="400,2222 400,2283 450,2283" style="stroke: black; stroke-width: 2" />
    <polyline points="400,2222 400,2161 450,2161" style="stroke: black; stroke-width: 2" />
    <polyline points="350,2291 350,2360 1000,2360" style="stroke: black; stroke-width: 2" />
    <polygon class="collapsed" id="collapsed582" points="950,2360 1000,2374 1000,2347 950,2360 " style="fill: white; stroke: black; stroke-width: 2" />
    <text class="collapsed_text" id="collapsed_text582" style="font-style: italic;" transform="rotate()" x="1006" y="2364">Drymoda</text>
    <polyline points="350,2291 350,2222 400,2222" style="stroke: black; stroke-width: 2" />
    <polyline points="300,1826 300,2291 350,2291" style="stroke: black; stroke-width: 2" />
    <polyline points="300,1826 300,1361 350,1361" style="stroke: black; stroke-width: 2" />
    <polyline points="250,2110 250,2395 1000,2395" style="stroke: black; stroke-width: 2" />
    <polygon class="collapsed" id="collapsed585" points="950,2395 1000,2408 1000,2381 950,2395 " style="fill: white; stroke: black; stroke-width: 2" />
    <text class="collapsed_text" id="collapsed_text585" style="font-style: italic;" transform="rotate()" x="1006" y="2399">Rhinanthera</text>
    <polyline points="250,2110 250,1826 300,1826" style="stroke: black; stroke-width: 2" />
    <polyline points="200,2270 200,2429 1000,2429" style="stroke: black; stroke-width: 2" />
    <polygon class="collapsed" id="collapsed586" points="950,2429 1000,2442 1000,2415 950,2429 " style="fill: white; stroke: black; stroke-width: 2" />
    <text class="collapsed_text" id="collapsed_text586" style="font-style: italic;" transform="rotate()" x="1006" y="2433">Macrocaulia</text>
    <polyline points="200,2270 200,2110 250,2110" style="stroke: black; stroke-width: 2" />
    <polyline points="150,1201 150,2270 200,2270" style="stroke: black; stroke-width: 2" />
    <polyline points="150,1201 150,132 1000,132" style="stroke: black; stroke-width: 2" />
    <polygon class="collapsed" id="collapsed10" points="950,132 1000,145 1000,118 950,132 " style="fill: white; stroke: black; stroke-width: 2" />
    <text class="collapsed_text" id="collapsed_text10" style="" transform="rotate()" x="1006" y="136">OUTGROUP</text>
    <polyline points="100,649 100,1201 150,1201" style="stroke: black; stroke-width: 2" />
    <polyline points="100,649 100,98 1000,98" style="stroke: black; stroke-width: 2" />
    <polygon class="collapsed" id="collapsed8" points="950,98 1000,111 1000,84 950,98 " style="fill: white; stroke: black; stroke-width: 2" />
    <text class="collapsed_text" id="collapsed_text8" style="" transform="rotate()" x="1006" y="102">OUTGROUP</text>
    <polyline points="50,356 50,649 100,649" style="stroke: black; stroke-width: 2" />
    <polyline points="50,356 50,63 1000,63" style="stroke: black; stroke-width: 2" />
    <polygon class="collapsed" id="collapsed6" points="950,63 1000,77 1000,50 950,63 " style="fill: white; stroke: black; stroke-width: 2" />
    <text class="collapsed_text" id="collapsed_text6" style="" transform="rotate()" x="1006" y="67">OUTGROUP</text>
</svg>